<svg width="273" height="264" viewBox="0 0 273 264" fill="none" xmlns="http://www.w3.org/2000/svg">
<path d="M182.5 122C184.102 110.697 181.722 105.734 176 97.4999H179L194 117L189 131.5C186.433 134.74 184.793 136.042 181.5 137.5C185.956 129.451 187.177 123.925 188 113C187.431 117.653 185.971 119.44 182.5 122Z" fill="#FB6C05" stroke="black" stroke-width="2" stroke-linecap="round"/>
<path d="M204.302 243L71.3066 239.283C50.0041 236.918 44.2789 235.544 34.8079 233.089C1.30905 222.765 -30.6898 204.594 54.3071 207.898C95.7171 200.404 2.07123 193.848 87.7375 187.502C132.353 183.189 153.781 184.948 191.197 189.018C213.672 191.463 221.996 196.697 241.8 196.748C256.763 196.786 297.185 208.521 252.8 211.202C227.617 211.137 219.944 217.698 234.3 219.461C285.298 219.461 264.799 239.283 204.302 243Z" fill="#C4C4C4"/>
<path d="M236 183.5L240.065 192M222 204C231.91 207.084 237.318 206.691 247 206.5L240.065 192M241.5 163.5L240.065 192" stroke="black" stroke-width="2" stroke-linecap="round"/>
<path d="M223.5 111L235.5 135.5H228.5" stroke="black" stroke-width="2" stroke-linecap="round"/>
<path d="M100 74.9999C107.97 68.21 113.139 65.1485 125 62.4999C125.371 63.7298 125.732 64.8912 126.091 65.9999L132.5 66.9999L133.929 73.9999L165.5 69.9999C165.925 71.4288 166.314 72.7518 166.676 73.9999H204.5L212.5 85.9999L215.5 88.9999L182 87.4999L180 84.607L177.5 84.4999L169 76.2541L176.5 88.9999H173.5L168.613 80.9999C169.469 84.3061 170.196 87.5026 171 91.4999C156.757 93.0137 149.071 94.5019 136 98.4999L128 91.9091C122.248 92.8142 117.951 95.0179 112 98.4999L117.5 100.5L103 134.5C100.619 133.998 98.4821 133.506 96.5 132.993C96.6572 136.872 96.7014 139.8 96.6325 142.5C96.5727 144.847 96.4275 147.022 96.1969 149.5C96.137 150.143 96.0714 150.807 96 151.5L56 161.5L51.5 137L77 129.161C75.1639 128.42 73.2145 127.406 71 126L81.4732 115.5L83.5672 111.5C80.3762 107.625 76.2874 104.504 70.5 100.5L74.3767 97.4999C73.7706 97.1659 73.1466 96.8349 72.5 96.4999C82.0764 80.931 88.4511 77.1969 101.022 76.4999C100.692 76.0105 100.352 75.5112 100 74.9999Z" fill="#C4C4C4"/>
<path d="M148 139.5L142 169.5C149.97 162.416 155.2 160.143 166.384 167C156.348 165.512 151.527 166.451 144 170.5L146 171.5C147.964 170.921 149.77 170.474 151.5 170.143C156.005 178.362 159.08 181.666 165 186.5L136 211C123.37 207.795 118.254 204.034 113.5 193L132.5 172.11C123.573 173.908 115.072 178.888 116.5 176L119.5 168.696C119.012 168.792 118.512 168.893 118 169C121.492 157.635 123.079 150.899 124.5 137.5C138.948 135.534 145.206 135.394 148 139.5Z" fill="#C4C4C4"/>
<path d="M32 196.5H39C39.7287 197.222 40.4422 197.887 41.1535 198.5C46.682 203.263 52.0792 204.844 63.5 205L61.25 208L59 211C45.7396 210.304 40.3291 208.024 35.5 199.5C25.3512 205.867 19.5371 209.093 8.5 213L8 210.75L7.5 208.5C17.3299 205.648 22.6991 203.074 32 196.5Z" fill="#C4C4C4"/>
<path d="M94 199.5L79 178C88.9146 171.202 98.2479 163.335 99.8236 165.5V168.696L102.5 167.5C105.495 176.01 108.108 180 113.5 186.5L94 199.5Z" fill="#C4C4C4"/>
<path d="M52 188.5L58.5 183.5L63 189C72.424 195.247 78.0208 198.326 89 202.5L88.5 203.5C76.3276 199.596 71.3155 195.967 63 189L56 194.5L53 190L52 188.5Z" fill="#C4C4C4"/>
<path d="M186.5 88.9999H191C199.619 91.2887 204.632 91.8945 214 91.7045L216.5 96.4999C203.473 96.5909 197.077 95.8915 189.25 91.7045C183.694 96.4697 177.882 97.755 164.5 98.4999L158.5 94.4999C169.621 94.0602 175.867 93.1806 187 90.2499L186.5 88.9999Z" fill="#C4C4C4"/>
<path d="M112 98.4999C121.024 90.7632 126.299 88.5766 136 87.4999C131.103 79.1863 128.664 73.9494 126.091 65.9999M112 98.4999C108.464 88.7576 105.879 83.7072 101.022 76.4999M112 98.4999C102.357 103.655 99.1414 108.771 94 118.5C93.6604 117.967 93.3272 117.448 93 116.944M112 98.4999L117.5 100.5L103 134.5C100.619 133.998 98.4821 133.506 96.5 132.993M112 98.4999C117.951 95.0179 122.248 92.8142 128 91.9091M126.091 65.9999C125.732 64.8912 125.371 63.7298 125 62.4999C113.139 65.1485 107.97 68.21 100 74.9999C100.352 75.5112 100.692 76.0105 101.022 76.4999M126.091 65.9999L132.5 66.9999L133.929 73.9999M101.022 76.4999C88.4511 77.1969 82.0764 80.931 72.5 96.4999C73.1466 96.8349 73.7706 97.1659 74.3767 97.4999M74.3767 97.4999L70.5 100.5C76.2874 104.504 80.3762 107.625 83.5672 111.5M74.3767 97.4999C80.7412 101.006 85.1357 104.832 93 116.944M93 116.944L89.5 122C87.7976 117.646 85.9281 114.367 83.5672 111.5M83.5672 111.5L81.4732 115.5M91.5 131.551C86.5654 129.959 82.2056 127.996 76.5 125L81.4732 115.5M91.5 131.551C90.2579 131.471 89.0997 131.403 88 131.327M91.5 131.551C92.3148 131.814 93.1452 132.067 94 132.312M81.4732 115.5L71 126C73.2145 127.406 75.1639 128.42 77 129.161M77 129.161L51.5 137L56 161.5L96 151.5M77 129.161C80.7121 130.66 83.961 131.048 88 131.327M96 151.5C91.7393 145.229 90.0173 140.771 88 131.327M96 151.5C93.8412 146.125 92.6144 143.114 92 137.5M96 151.5C96.0714 150.807 96.137 150.143 96.1969 149.5M96.5 132.993C95.64 132.771 94.8091 132.545 94 132.312M96.5 132.993C96.6572 136.872 96.7014 139.8 96.6325 142.5M94 132.312L94.5 136M96.6325 142.5C102.901 137.446 106.771 135.045 115.5 132.993L121 140.5M96.6325 142.5C96.5727 144.847 96.4275 147.022 96.1969 149.5M96.1969 149.5L105.5 167M142 169.5L148 139.5M142 169.5L138 171.5M142 169.5C134.034 167.022 128.935 166.841 119.5 168.696M142 169.5L144 170.5M142 169.5C149.97 162.416 155.2 160.143 166.384 167M148 139.5C145.206 135.394 138.948 135.534 124.5 137.5C123.079 150.899 121.492 157.635 118 169C118.512 168.893 119.012 168.792 119.5 168.696M148 139.5C159.271 135.554 165.518 135.52 176.5 140.5M138 171.5H146M138 171.5C136.204 171.503 134.343 171.738 132.5 172.11M146 171.5L144 170.5M146 171.5C147.964 170.921 149.77 170.474 151.5 170.143M119.5 168.696L116.5 176C115.072 178.888 123.573 173.908 132.5 172.11M169 168.696C168.092 168.078 167.221 167.513 166.384 167M144 170.5C151.527 166.451 156.348 165.512 166.384 167M171.5 170.5C163.144 169.289 157.825 168.935 151.5 170.143M151.5 170.143C156.005 178.362 159.08 181.666 165 186.5L136 211C123.37 207.795 118.254 204.034 113.5 193L132.5 172.11M32 196.5H39M32 196.5V199.5H35.5M32 196.5C22.6991 203.074 17.3299 205.648 7.5 208.5L8 210.75M39 196.5V199.5M39 196.5C39.7287 197.222 40.4422 197.887 41.1535 198.5M39 199.5H35.5M39 199.5C41.7743 203.058 44.0999 204.742 50 207M35.5 199.5C26.9186 208.045 21.2752 210.808 10.5 214M35.5 199.5C25.3512 205.867 19.5371 209.093 8.5 213L8 210.75M35.5 199.5C40.3291 208.024 45.7396 210.304 59 211L61.25 208M61.25 208L63.5 205C52.0792 204.844 46.682 203.263 41.1535 198.5M61.25 208C58.5972 208.048 57.1538 207.984 55 207M8 210.75C10.9695 209.718 12.6327 209.137 15.5 208M79 178L94 199.5L113.5 186.5C108.108 180 105.495 176.01 102.5 167.5L99.8236 168.696M79 178L99.8236 168.696M79 178C88.9146 171.202 98.2479 163.335 99.8236 165.5V168.696M56 194.5L63 189M56 194.5C54.1279 198.313 52.8284 200.189 50 203M56 194.5L53 190M63 189L58.5 183.5L52 188.5L53 190M63 189C71.3155 195.967 76.3276 199.596 88.5 203.5M63 189C72.424 195.246 78.0208 198.326 89 202.5L88.5 203.5M52 189C48.9627 194.234 46.5568 196.277 41.1535 198.5M53 190C51.6748 193.946 50.5793 195.942 47 198.5M59 197.5C62.8522 201.557 66.0712 204.078 70.5 206.21M79 209.5C75.6234 208.396 72.8861 207.36 70.5 206.21M61.25 194.5C68.9192 200.878 73.621 204.088 84 208M88.5 203.5L83 211L70.5 206.21M133.929 73.9999L137.5 91.4999C133.785 91.3426 130.729 91.4798 128 91.9091M133.929 73.9999L165.5 69.9999C165.925 71.4288 166.314 72.7518 166.676 73.9999M128 91.9091L136 98.4999C149.071 94.5019 156.757 93.0137 171 91.4999C170.196 87.5026 169.469 84.3061 168.613 80.9999M166.676 73.9999H204.5L212.5 85.9999M166.676 73.9999L169 76.2541M166.676 73.9999C167.419 76.5595 168.044 78.8039 168.613 80.9999M212.5 85.9999L180 84.607M212.5 85.9999L215.5 88.9999L182 87.4999L180 84.607M169 76.2541L177.5 84.4999L180 84.607M169 76.2541L176.5 88.9999H173.5L168.613 80.9999M191 88.9999H186.5L187 90.2499M191 88.9999V91.9091L189.25 91.7045M191 88.9999C199.619 91.2887 204.632 91.8945 214 91.7045L216.5 96.4999C203.473 96.5909 197.077 95.8915 189.25 91.7045M187 90.2499L187.5 91.4999L189.25 91.7045M187 90.2499C175.867 93.1806 169.621 94.0602 158.5 94.4999L164.5 98.4999C177.882 97.755 183.694 96.4697 189.25 91.7045M198.5 101.5L187.5 135.5M198.5 101.5C204.606 104.125 209.483 105.196 224 105.5C222.414 114.209 221.436 118.97 219 126.5M198.5 101.5C208.816 100.496 214.605 100.213 225 103" stroke="black" stroke-width="2" stroke-linecap="round"/>
<path d="M196.5 193L211 169M196.5 193L197.5 196.5M196.5 193L192 195.5M196.5 193C208.001 190.78 212.154 196.614 219.606 205M211 169C221.225 168.495 227.058 172.22 237.5 180.5L220.5 206C220.196 205.663 219.898 205.329 219.606 205M211 169C209.209 166.317 207.515 164.68 205 163.463M197.5 196.5L195 198.5L192 195.5M197.5 196.5C204.446 195.78 208.851 198.106 217.5 206.5L219.606 205M192 195.5C181.751 191.261 176.248 189.696 169 195.5C169.413 194.677 171.438 189.192 178 170.5M199 161.5C201.485 162.091 203.407 162.693 205 163.463M208.5 155.5L197.5 134.5L200.5 131.5M208.5 155.5C198.109 161.705 192.844 165.878 184 174C174.749 167.737 170.887 163.243 165 154.5L190.5 134.5C192.844 134.634 194.157 134.649 196.5 134.5M208.5 155.5L210.5 154.5M212.5 153.5L200.5 131.5M212.5 153.5C222.02 157.289 227.83 158.25 240 155.5M212.5 153.5L210.5 154.5M200.5 131.5L225 129L240 155.5M240 155.5V159M210.5 154.5L210.875 159M240 159L242.5 163C229.439 165.392 222.415 165.395 211 160.5L210.875 159M240 159C240.352 160.575 226.956 161.219 218.5 159M210.875 159L205 163.463M57.5 161.5C51.5614 173.587 49.6398 180.474 48.5 193M179.5 204V200.5M179.5 204C171.715 212.413 165.962 213.557 154.5 212.5C154.348 211.966 154.222 211.469 154.121 211M179.5 204C170.536 209.516 164.999 211.129 154.121 211M179.5 204L181.5 200M179.5 204C187.87 214.379 194.139 213.189 205 212.5M179.5 200.5C171.583 204.61 166.406 205.601 155 203.5C153.83 206.304 153.505 208.136 154.121 211M179.5 200.5L181.5 200M181.5 200C189.407 206.453 194.632 207.533 205 206C204.832 205.967 204.665 205.934 204.5 205.902M190.5 201C194.649 204.283 198.439 204.728 204.5 205.902M204.5 205.902C201.601 202.506 200.529 200.59 199 196.5M204.5 205.902L205 212C196.483 211.52 191.847 210.923 185 206.5" stroke="black" stroke-width="2" stroke-linecap="round"/>
<path d="M167 107.506C167.336 107.494 167.67 107.518 168 107.579M167 107.506C169.658 110.403 170.793 113.091 170.511 119M167 107.506C166.336 107.529 165.665 107.695 165.004 108M170 124.355C170.639 124.309 171.306 124.258 172 124.203M170 124.355C170.266 122.309 170.437 120.544 170.511 119M170 124.355C169.302 124.405 168.636 124.449 168 124.485M168 107.579C171.46 110.95 172.485 114.337 172 124.203M168 107.579C170.051 107.956 171.951 109.741 173.17 113M172 124.203C172.381 124.173 172.771 124.141 173.17 124.109M173.17 113C174.167 115.667 174.708 119.322 174.5 124.001C174.046 124.038 173.603 124.074 173.17 124.109M173.17 113V124.109M170.511 119C170.112 122.213 169.67 123.611 168 124.485M170.511 119L168 123M170.511 119C169.701 116.368 169.188 114.474 168 112.308M168 124.485C165.549 124.626 163.538 124.655 161.844 124.485M163.5 108.957C160.731 111.229 158.42 116.136 158 123.501C159.087 124.027 160.34 124.335 161.844 124.485M163.5 108.957C163.99 108.555 164.494 108.236 165.004 108M163.5 108.957C162.669 112.155 162.111 114.613 161.844 117.111M161.844 124.485C161.8 123.972 161.765 123.478 161.737 123M161.737 123H168M161.737 123C161.61 120.807 161.648 118.948 161.844 117.111M169 123H168M165.004 108L163.964 111M165.004 108C165.805 108.978 166.457 109.853 167 110.667M163.5 122.5L161.844 117.111M161.844 117.111L163.51 112.308M163.964 111L167 110.667M163.964 111L163.51 112.308M167 110.667C167.383 111.24 167.711 111.782 168 112.308M168 112.308H163.51M166 113C161.844 113 161 123.5 166 123C170.167 123.5 170.156 113 166 113Z" stroke="black" stroke-width="2" stroke-linecap="round"/>
<path d="M159.5 103.999C166.129 101.257 170.089 101.369 177.5 103.999" stroke="black" stroke-width="2" stroke-linecap="round"/>
<path d="M124 105C129.791 102.119 133.261 101.735 140 104" stroke="black" stroke-width="2" stroke-linecap="round"/>
<path d="M143.538 59.4676C149.192 63.9283 152.905 64.229 159.879 63.3703C170.312 61.0515 174.394 58.7008 176.861 51.7137C179.327 44.7266 179.415 42.247 177.762 37.2418C176.495 40.341 175.755 41.6389 174.394 43.3373C176.437 36.8857 176.149 26.1889 174.437 22.4029C170.495 13.6857 167.196 9.74309 160.468 3.44606C161.827 10.9699 160.633 13.9729 156.366 17.9952C152.341 20.3575 150.395 21.969 147.561 25.3932C144.463 29.9534 144.729 33.0628 147.425 39.2218C145.018 36.3065 143.057 35.067 139.078 33.1739C141.252 37.6883 141.635 39.8183 141.744 43.3421C139.325 51.1105 139.662 54.8308 143.538 59.4676Z" fill="#FB6C05" stroke="black" stroke-width="2" stroke-linecap="round"/>
<path d="M144.94 53.136C144.507 57.7589 146.222 59.4398 150.225 61.999C152.169 62.7299 153.229 62.7727 155.112 62.7008C157.125 62.696 158.185 62.5683 160 62.2008C163.337 56.7564 161.334 56.4438 159.812 52.4286C159.066 54.8918 158.021 55.8774 155.294 57.0907C154.34 48.883 152.302 46.2795 147.244 43.5211C145.977 48.2969 146.416 51.0344 148.864 56.0038C147.22 54.616 146.379 54.032 144.94 53.136Z" fill="#D95F08"/>
<path d="M154.166 63.1244C151.908 61.0561 151.436 59.5115 151.783 56.1885" stroke="black" stroke-linecap="round"/>
<path d="M155.776 63.5194C155.002 62.2449 154.742 61.466 155.115 59.7645" stroke="black" stroke-linecap="round"/>
<path d="M165.021 63.6237C157.963 64.6397 154.5 64.3014 148.811 62.7996C143.939 65.825 144.413 68.6063 148.542 71.17L164.179 70.9338C166.056 70.6033 166.817 66.837 165.021 63.6237Z" fill="#F7F7F7" stroke="black" stroke-width="2"/>
<path d="M146.092 67.149C148.458 67.8212 149.84 68.0293 152.055 68.035" stroke="black" stroke-linecap="round"/>
<path d="M144.982 65.5565C147.348 66.2287 148.73 66.4367 150.945 66.4425" stroke="black" stroke-linecap="round"/>
<path d="M161.508 66.9069C163.966 66.9842 163.85 66.7333 166 66.2008" stroke="black" stroke-linecap="round"/>
<path d="M160.044 65.6312C162.503 65.7085 163.893 65.5748 166.044 65.0422" stroke="black" stroke-linecap="round"/>
<path d="M159.304 63.546C163.682 62.9065 165.312 58.9464 167.126 55.2009" stroke="black" stroke-linecap="round"/>
<path d="M64.5 249C76.1825 247.981 80.8372 250.648 88.5 256.5C91.4839 252.318 93.3319 250.218 97 247C105.308 240.328 108.356 239.651 113.5 239M64.5 249C74.5824 250.604 79.7607 252.746 87.5 260.5C88.0123 259.94 88.5116 259.395 89 258.862M64.5 249L65.7219 248M64.5 249C54.4323 246.781 48.7198 245.949 40.5 250.435M64.5 249C53.9319 249.683 48.8157 250.813 41.5 254.5L40.5 250.435M86.5 231C95.0289 227.927 98.3675 229.751 103.5 235C107.951 238.086 111 237.5 113.5 239M86.5 231C83.3342 225.45 76.4728 222.904 63 218.5L37.5 243.5M86.5 231L65.7219 248M113.5 239C112.183 239.671 110.951 240.336 109.789 241M109.789 241C113.645 240.765 115.642 240.928 118.5 242.5C108.083 249.426 102.522 253.707 93.5 262.5C92.7194 262.063 92.0247 261.559 89 258.862M109.789 241C100.932 246.059 96.1347 251.08 89 258.862M37.5 243.5C49.2213 240.908 55.3353 242.314 65.7219 248M37.5 243.5L38.5 247.25M40.5 250.435C40.1708 250.615 39.8376 250.803 39.5 251L38.5 247.25M38.5 247.25C41.621 245.598 43.4695 245.045 47 245" stroke="black" stroke-width="2" stroke-linecap="round"/>
<path d="M123 125.001L120 126M123 125.001C121.653 117.595 124.235 111.599 127.626 109.5M123 125.001C123.887 124.798 125.715 124.357 126.5 124.206M138 124.001C137.387 113.784 134.269 109.329 131 108.759M138 124.001H140C138.649 112.704 136.761 109.165 131 108.759M138 124.001C137.114 123.923 136.287 123.86 135.5 123.815M131 108.759C131.357 109.251 131.69 109.723 132 110.177M131 108.759C132.657 109.942 133.733 111.33 134.5 115.208M131 108.759C130.509 108.673 130.014 108.675 129.524 108.759M136.5 122.5C136.021 117.828 135.259 114.955 132 110.177M135.5 123.815C135.352 121.755 135.19 120.001 135.007 118.5M135.5 123.815C134.259 123.743 133.117 123.716 132 123.739M135.007 118.5C134.854 117.235 134.686 116.148 134.5 115.208M135.007 118.5C134.888 119.574 134.732 120.415 134.5 121.094M132 123.739C130.357 123.774 128.769 123.921 127 124.206M132 123.739C132.913 123.307 133.547 122.834 134 122.143M127.626 109.5C125.966 115.327 126 119 126.5 124.206M127.626 109.5C127.912 109.323 128.204 109.173 128.5 109.053M126.5 124.206C127.017 124.107 126.515 124.284 127 124.206M132 110.177L133.25 112.693L134.5 115.208M128.5 109.053L128.208 112M128.5 109.053C128.666 108.986 128.832 108.928 129 108.879M127 124.206L127.169 122.5M127.169 122.5L127.367 120.5M127.169 122.5L131.367 123.645M134 122.143C134.199 121.84 134.363 121.495 134.5 121.094M134 122.143L131.367 123.645M127.367 120.5C129.944 124.113 132.395 124.755 134.24 121.724L134.5 121.094M127.367 120.5L128.208 112M129.524 108.759L131.367 111.379M129.524 108.759C129.348 108.789 129.174 108.829 129 108.879M128.208 112L131.367 111.379M131.367 111.379L132.289 112.69L131 113M129 108.879L129.823 113.168L131 113M131 113C125.944 112.764 127 124.364 131.367 123.645M131 113C135.444 112.571 136 123.864 131.367 123.645" stroke="black" stroke-width="2" stroke-linecap="round"/>
<path d="M151.5 108.5C152.934 103.675 152.674 100.595 150.5 94.4999L157 93.4999L161 95.9999C161.026 102.471 158.543 105.035 151.5 108.5Z" fill="#FB6C05" stroke="black" stroke-width="2" stroke-linecap="round"/>
<path d="M179 97.4999L193 115.5" stroke="black" stroke-width="2" stroke-linecap="round"/>
<path d="M208.5 96.4999L210.5 99.9999" stroke="black" stroke-width="2" stroke-linecap="round"/>
<path d="M63.5 219C75.5135 222.428 80.8422 224.902 86 231C93.6542 228.683 97.7487 229.384 104.5 236C106.494 237.643 108.173 238.21 111.5 239C99.0429 243.01 94.7643 247.457 88.5 256.5C80.398 249.312 75.4355 247.536 66 247.5C56.965 242.18 49.6218 239.588 38.5 242.5L63.5 219Z" fill="#0D49AB"/>
<path d="M66 247.5L86 231M66 247.5C56.965 242.18 49.6218 239.588 38.5 242.5L63.5 219C75.5135 222.428 80.8422 224.902 86 231M66 247.5C75.4355 247.536 80.398 249.312 88.5 256.5C94.7643 247.457 99.0429 243.01 111.5 239C108.173 238.21 106.494 237.643 104.5 236C97.7487 229.384 93.6542 228.683 86 231" stroke="black" stroke-width="2" stroke-linecap="round"/>
<path d="M240 155.5C229.313 157.413 223.304 157.495 212.5 153.5L208.5 155.5C197.739 162.04 192.089 165.927 184 174C175.768 167.715 171.22 164.079 165 154.5L190.5 134.5C192.892 134.826 194.428 134.949 197.5 135L201 132L225 129L240 155.5Z" fill="#0D49AB"/>
<path d="M201 132L212.5 153.5M201 132L225 129L240 155.5C229.313 157.413 223.304 157.495 212.5 153.5M201 132L197.5 135M212.5 153.5L208.5 155.5M197.5 135L208.5 155.5M197.5 135C194.428 134.949 192.892 134.826 190.5 134.5L165 154.5C171.22 164.079 175.768 167.715 184 174C192.089 165.927 197.739 162.04 208.5 155.5" stroke="black" stroke-width="2" stroke-linecap="round"/>
<path d="M94 199.5L79 178L102.5 167.5C105.583 176.062 108.189 180.036 113.5 186.5L94 199.5Z" fill="#0D49AB" stroke="black" stroke-width="2" stroke-linecap="round"/>
<path d="M165.5 70.4999C153.205 71.0691 146.305 71.7609 134 73.9999L138 91.4999C134.578 91.3794 132.521 91.4528 128.5 91.9999L136 98.4999C149.169 94.0392 156.876 92.6543 171 91.4999L165.5 70.4999Z" fill="#0D49AB" stroke="black" stroke-width="2" stroke-linecap="round"/>
<path d="M247 206.5L236 183.5L222 204C232.125 206.969 237.539 207.183 247 206.5Z" fill="#F7F7F7" stroke="black" stroke-width="2" stroke-linecap="round"/>
<path d="M169.5 194.5L178 170L184 173.5L199 161.5C206.165 162.974 208.521 164.772 211 169L196.5 193L192 195.5C178.354 191.206 173.342 190.914 169.5 194.5Z" fill="#F7F7F7" stroke="black" stroke-width="2" stroke-linecap="round"/>
<path d="M196.5 193L211 169C222.331 168.244 227.812 172.474 237.5 180.5L220.5 206C211.134 194.748 205.88 190.398 196.5 193Z" fill="#F7F7F7" stroke="black" stroke-width="2" stroke-linecap="round"/>
<path d="M155 203L161.5 190L172 187" stroke="black" stroke-width="2" stroke-linecap="round"/>
<path d="M180 192.5L179 200.5L181 200L182 192.5H180Z" stroke="black" stroke-width="2" stroke-linecap="round"/>
<path d="M120.5 160C112.801 161.383 109.921 163.212 105.5 167C103.895 167.025 103.057 167.091 102.5 168M72.5 157.5C78.5674 163.743 81.1331 167.441 84 174.5" stroke="black" stroke-width="2" stroke-linecap="round"/>
</svg>
