<svg id="_Layer_" data-name="&lt;Layer&gt;" xmlns="http://www.w3.org/2000/svg" viewBox="0 0 3200 1600"><defs><style>.cls-1,.cls-21,.cls-24{fill:#fff;}.cls-2{fill:#ebf2f9;}.cls-25,.cls-3{fill:#82b378;}.cls-4{fill:#67935d;}.cls-5{fill:#a8d29f;}.cls-6{fill:#ceefc7;}.cls-7{fill:#e7ffe1;}.cls-8{fill:#d2e4ff;}.cls-15,.cls-16,.cls-20,.cls-8{opacity:0.6;}.cls-15,.cls-9{fill:#c7deff;}.cls-10{fill:#ffbd7b;}.cls-11{fill:#cadefc;}.cls-12{fill:#afcdfb;}.cls-13{fill:#e9f3fe;}.cls-14{fill:#8fb2e5;}.cls-16{fill:#f8fbff;}.cls-17{fill:#f93;}.cls-18{fill:#ed8629;}.cls-19{fill:#f1a34f;}.cls-20{fill:#92c4ff;}.cls-21{opacity:0.5;}.cls-22,.cls-23{fill:#d7f2d1;}.cls-23{opacity:0.3;}.cls-24{opacity:0.4;}.cls-25{opacity:0.2;}.cls-26{fill:#163560;}.cls-27{fill:#1c468a;}.cls-28{fill:#ffb27d;}.cls-29{fill:#aa443e;}.cls-30{fill:#ee9849;}.cls-31{fill:#e58638;}.cls-32{fill:#ed975d;}.cls-33{fill:#d9935c;}.cls-34{fill:#cc7c46;}.cls-35{fill:#cc7b44;}.cls-36{fill:#c65447;}.cls-37{fill:#c4453b;}.cls-38{fill:#2e3552;}.cls-39{fill:#e49963;}.cls-40{fill:#9e3a38;}.cls-41{fill:#b74b42;}.cls-42{fill:#d68d5d;}.cls-43{fill:#699dee;}.cls-44{fill:#3b76ca;}.cls-45{fill:#d2e6f9;}</style></defs><rect class="cls-1" width="3200" height="1600"/><path class="cls-2" d="M355.76,1458.57S206.26,1022.65,425,762.36c282.1-335.73,646.65-55.1,783.44-63.28s144.49-330.32,553.2-368.8c316-29.75,835-32.09,724.28,494.21-84.18,400.14,384.17,192.88,293,634.93Z"/><path class="cls-3" d="M970.56,1373c-3.9,19.57-9.18,34.94-15.61,47-29,54.46-81.2,41.29-132.21,41.29-34,0-49.4-12.41-56.38-32.83h0c-5.83-17.05-5.81-39.66-5.81-65.33,0-56.42,34.52-101.25,96.84-101.25S981.58,1317.63,970.56,1373Z"/><path class="cls-4" d="M955,1420c-29,54.46-81.2,41.29-132.21,41.29-34,0-49.4-12.41-56.38-32.83,63.08-49.73,139.25-102.09,139.25-102.09C905.62,1329.68,942.88,1379.53,955,1420Z"/><path class="cls-5" d="M722.62,1381.42c-.39-57.16,41.17-103.08,96.67-118.33,56.63-15.55,103.65,22.5,103.56,77.94-.08,55.68-48.09,110.84-105.52,118.25C761.77,1466.45,723,1437,722.62,1381.42Z"/><path class="cls-6" d="M727.61,1380c-.37-54.31,39.12-98,91.85-112.43,53.81-14.78,98.49,21.37,98.41,74.05-.09,52.91-45.7,105.32-100.27,112.37C764.81,1460.84,728,1432.87,727.61,1380Z"/><path class="cls-7" d="M823.64,1348.23l-15.43-58.08c-1.15-4.32,2.21-9.41,6.9-10.43a121.66,121.66,0,0,1,45.36-1.5c4.36.67,6.1,5.55,3.53,9.88l-35.6,60C827.12,1350.28,824.2,1350.34,823.64,1348.23Z"/><path class="cls-7" d="M810.27,1366.06l-57.86,36.16c-4.31,2.69-9.22,1-10.07-3.42a115.73,115.73,0,0,1-2.09-21.48,146.41,146.41,0,0,1,2.12-24.47c.81-4.7,5.7-8.2,9.89-7.08l58.07,15.45C812.41,1361.77,812.38,1364.75,810.27,1366.06Z"/><path class="cls-7" d="M813.84,1355.31l-57.22-15.22c-4.26-1.14-5.6-6.28-2.74-10.55a163.54,163.54,0,0,1,14.87-19.09,184,184,0,0,1,19.31-18.27c3.91-3.2,9.07-2.27,10.44,1.86l19,57.38A3.2,3.2,0,0,1,813.84,1355.31Z"/><path class="cls-7" d="M819.35,1371.44l-17.7,63.9c-1.32,4.75-6.47,7.87-10.56,6.38a95.94,95.94,0,0,1-18.19-8.81,103.55,103.55,0,0,1-17.19-13.64c-3-2.94-1.83-8.55,2.33-11.35L815.67,1369C817.73,1367.63,820,1369.11,819.35,1371.44Z"/><path class="cls-7" d="M833.4,1350l38.66-57.26c2.87-4.26,8.44-5.42,11.41-2.37a94,94,0,0,1,12.39,15.76,111,111,0,0,1,9.75,20.21c1.48,4.08-1.57,9.26-6.17,10.48l-63.77,17C833.39,1354.4,832,1352.06,833.4,1350Z"/><path class="cls-7" d="M835.69,1359l63-11c4.69-.82,8.08,3,6.94,7.71a145.87,145.87,0,0,1-7.16,22.18,176.74,176.74,0,0,1-11.9,23.34c-2.62,4.31-8.12,5.67-11.13,2.77l-41.79-40.28C832.14,1362.36,833.4,1359.43,835.69,1359Z"/><path class="cls-7" d="M830,1368.8l34,46.45c2.53,3.46.74,9.09-3.67,11.53a149.17,149.17,0,0,1-21.26,9.74A153.5,153.5,0,0,1,815,1443c-4.61.83-7.91-2.93-6.69-7.62l17-64.94C825.87,1368.12,828.8,1367.11,830,1368.8Z"/><polygon class="cls-8" points="1362.69 1370.8 1302.11 1460.01 1301.45 1460.96 897.42 1460.96 847.23 1353.79 911.53 1005.03 947.6 809.4 947.6 705.63 1269.12 705.63 1269.12 795.79 1362.69 1370.8"/><path class="cls-8" d="M1269.13,705.63H947.6l-55.28-32.32s50.18-50.19,93.56-50.19h280.69S1288.69,652.9,1269.13,705.63Z"/><path class="cls-9" d="M1342.86,1268l-8-20.63c25.35-9.78,59.15-26.91,76.24-52.95,9.43-14.38,9.46-24.88,9.43-26.09l-.15-1.3.23-1c.34-2.53,34.93-254.13,42.48-325.44,1.9-17.87-1.71-32.07-10.72-42.2-15.68-17.64-43.64-18.7-44.72-18.73H1259.77V757.52H1407.9c1.56,0,38.43.73,61,26.15,13.32,15,18.76,34.89,16.19,59.22-7.36,69.49-40.17,308.62-42.45,325.23C1442.73,1177.93,1438.49,1231.07,1342.86,1268Z"/><path class="cls-9" d="M1269.13,705.63H947.6s218.26-20,262.94-82.51h56S1288.69,652.9,1269.13,705.63Z"/><path class="cls-10" d="M1333.41,1354.3l-53.7,79.07-.58.84H921l-44.49-95,57-309.14c22-2.32,60.86-4.82,88.7,2.16,35,8.77,184.29-15.35,256.29-15.42Z"/><path class="cls-11" d="M1151,1362.31s25.41-5.68,31.37-9.22,20.18-8.48,26.41-7.8,57-6,59.26,3l-36.23,18.39S1159.09,1368.45,1151,1362.31Z"/><path class="cls-12" d="M1230,1364.78s34.8-21.12,38-16.48,3.51,31.3,6.53,40.32,1,14.48-7.93,19.44-34,21.13-34,21.13Z"/><path class="cls-13" d="M1151,1362.31s26.86,2.84,46.52,3,31.74-4.27,34.29,1.38,3.38,43.92,5.44,53-5.49,12.49-26,10.92-53.71,2.09-53.34-7.15S1143.87,1361.62,1151,1362.31Z"/><path class="cls-1" d="M1187.74,1371.05s-26.38-2.81-32-3.16,1,20.31,1.71,25.9c0,0,2.25,1.06,2.53-2s-2.22-13.55,1.2-15,9.11-5.21,13.9-4.44S1190,1373,1187.74,1371.05Z"/><path class="cls-1" d="M1202.3,1426.3a169.18,169.18,0,0,1,18.2.08c7,.63,12.09-2.07,11.56-5.67s-3.43-33.8-3.91-38.31-7.16,1.74-7.41,6.31-7.87,13.07-10.1,20.67-13.11,13.6-13,15.77S1202.3,1426.3,1202.3,1426.3Z"/><path class="cls-14" d="M1252.11,1356.8s-5.13,4.89-10.29,6.69-6.62,1.71-6,4.94,2.66,15.47,2.79,17.46,2.34,2.4,3,.72,1.44-7.7,3.21-11.47,4.19-11.43,7.68-13.64S1256.36,1355.07,1252.11,1356.8Z"/><path class="cls-11" d="M924.7,1362.37s25.49-5.35,31.49-8.81,20.29-8.22,26.51-7.45,57.09-5.24,59.22,3.79l-36.47,17.91S932.71,1368.61,924.7,1362.37Z"/><path class="cls-12" d="M1003.69,1365.88s35.07-20.66,38.23-16,3.1,31.34,6,40.4.76,14.5-8.19,19.34-34.31,20.68-34.31,20.68Z"/><path class="cls-13" d="M924.7,1362.37s26.83,3.19,46.48,3.61,31.79-3.85,34.27,1.83,2.8,44,4.74,53.07-5.65,12.42-26.11,10.59-53.73,1.37-53.25-7.86S917.57,1361.58,924.7,1362.37Z"/><path class="cls-1" d="M961.32,1371.59s-26.34-3.16-32-3.59.71,20.32,1.37,25.92c0,0,2.23,1.1,2.56-2s-2-13.59,1.39-15,9.19-5.09,14-4.25S963.54,1373.53,961.32,1371.59Z"/><path class="cls-1" d="M975.14,1427a166.93,166.93,0,0,1,18.2.32c6.94.72,12.12-1.91,11.64-5.52s-3-33.84-3.41-38.36-7.18,1.65-7.49,6.21-8,13-10.37,20.54-13.29,13.42-13.17,15.6S975.14,1427,975.14,1427Z"/><path class="cls-14" d="M1025.87,1358.2s-5.2,4.81-10.38,6.54-6.64,1.62-6.1,4.87,2.45,15.5,2.55,17.49,2.31,2.43,2.95.76,1.54-7.68,3.37-11.43,4.34-11.37,7.86-13.54S1030.15,1356.52,1025.87,1358.2Z"/><path class="cls-5" d="M1118.35,1423.79c-21.93,19.23-53.57-3-65.84-6.21s-29.79-22.37-29.79-22.37,38.38-9.93,66.77-4.1c28,5.75,28.84,31.94,28.85,32.66Z"/><path class="cls-3" d="M1118.34,1423.77c-.27-.46-17.54-28.32-95.62-28.56,0,0,38.38-9.93,66.77-4.1C1117.48,1396.86,1118.33,1423.05,1118.34,1423.77Z"/><path class="cls-5" d="M1067.49,1296.16c1.25,29.14-35.9,39.88-46.09,47.42s-36.1,9.2-36.1,9.2,16.31-36.13,38.64-54.6c22-18.22,43-2.47,43.53-2Z"/><path class="cls-3" d="M1067.47,1296.15c-.53-.07-33.07-4.07-82.17,56.63,0,0,16.31-36.13,38.64-54.6C1046,1280,1066.9,1295.71,1067.47,1296.15Z"/><path class="cls-5" d="M1237.28,1207c-5.4,28.67-44,30.68-55.65,35.72s-37.24.76-37.24.76,24.08-31.48,50-44.4c25.59-12.74,42.4,7.35,42.86,7.91Z"/><path class="cls-3" d="M1237.27,1207c-.5-.19-31.28-11.48-92.88,36.49,0,0,24.08-31.48,50-44.4C1220,1186.38,1236.81,1206.47,1237.27,1207Z"/><path class="cls-5" d="M947.73,1084.5c28.55-6,45.22,28.89,54.32,37.71s15,34.11,15,34.11-38.31-10.18-60.18-29.19c-21.57-18.75-9.46-42-9.12-42.62Z"/><path class="cls-3" d="M947.73,1084.51c0,.54,1.39,33.29,69.3,71.81,0,0-38.31-10.18-60.18-29.19C935.28,1108.38,947.39,1085.15,947.73,1084.51Z"/><path class="cls-11" d="M1073.66,1294.49s23.33,11.59,30.19,12.58,21,6.11,25.43,10.56,48.07,31.23,44.15,39.64l-39.72-8.51S1076.08,1304.35,1073.66,1294.49Z"/><path class="cls-12" d="M1133.52,1346.15s40.33,5.49,39.91,11.12-17,26.54-20.3,35.45-8.38,11.86-18.4,10.11-39.75-5-39.75-5Z"/><path class="cls-13" d="M1073.66,1294.49s19.1,19.12,34.27,31.62,27.35,16.65,25.78,22.65-25,36.26-29.15,44.61-12.12,6.25-27-7.85-43-32.19-37-39.14S1068.55,1289.46,1073.66,1294.49Z"/><path class="cls-1" d="M1096.71,1324.41s-18.73-18.79-22.91-22.63-12,16.39-15,21.2c0,0,1.08,2.24,3.22,0s6.8-11.94,10.37-10.9,10.36,1.69,13.58,5.3S1097.25,1327.31,1096.71,1324.41Z"/><path class="cls-1" d="M1073.24,1376.5a166.6,166.6,0,0,1,14.09,11.51c5,4.87,10.7,6,12.56,2.87s18.61-28.41,21.08-32.23-6.67-3.15-9.73.25-14.34,5.2-20.86,9.7-18.75,2.32-20,4.1S1073.24,1376.5,1073.24,1376.5Z"/><path class="cls-14" d="M1155.7,1353.85s-7.07.57-12.21-1.28-6.22-2.84-7.81,0-7.67,13.69-8.82,15.32.31,3.33,1.85,2.42,6-5.07,9.72-6.89,10.45-6.25,14.55-5.77S1160.09,1355.18,1155.7,1353.85Z"/><path class="cls-15" d="M1123.73,1461.32l178.38-1.31c-31.59.26-62.89.61-90.26,1-51.08.64-88.46,1.25-88.46,1.25Z"/><path class="cls-15" d="M1362.7,1370.8,1302.11,1460l-.66,1h-70.09c21.15-268.28-24.3-563.16-60.61-651.05C1127.84,706,1036.42,705.63,1036.42,705.63h232.7v90.16Z"/><path class="cls-16" d="M987.77,818.2,916.59,1336s4.49,76.45,27.45,74.39,16.28-73.31,17.59-77.6,64.76-514.61,64.76-514.61S1010.57,790.89,987.77,818.2Z"/><path class="cls-17" d="M1630.05,1336.21a286.06,286.06,0,0,1-12.64,45.41c-38.25,100.77-118,79-195.79,79-87.85,0-87.68-58.84-87.68-138.38s48.67-142.76,136.52-142.76S1645.58,1258.2,1630.05,1336.21Z"/><path class="cls-18" d="M1617.41,1381.62c-38.25,100.77-118,79-195.79,79-87.85,0-87.68-58.84-87.68-138.38,67.55-27,190.78-80.33,190.78-80.33S1605,1309.22,1617.41,1381.62Z"/><path class="cls-17" d="M1280.47,1348.13c-.54-80.59,58.06-145.33,136.29-166.82,79.84-21.93,146.14,31.71,146,109.87-.12,78.51-67.8,156.28-148.78,166.73C1335.68,1468,1281,1426.51,1280.47,1348.13Z"/><path class="cls-10" d="M1287.51,1346.19c-.52-76.58,55.16-138.1,129.5-158.52,75.86-20.83,138.86,30.14,138.74,104.4-.12,74.61-64.43,148.5-141.37,158.43C1340,1460.1,1288,1420.67,1287.51,1346.19Z"/><path class="cls-19" d="M1422.9,1301.34l-21.76-81.88c-1.62-6.1,3.13-13.28,9.73-14.72a172.12,172.12,0,0,1,64-2.11c6.14.95,8.6,7.83,5,13.94l-50.2,84.63C1427.81,1304.23,1423.69,1304.31,1422.9,1301.34Z"/><path class="cls-19" d="M1404.05,1326.48l-81.58,51c-6.07,3.79-13,1.45-14.19-4.82a163.74,163.74,0,0,1-3-30.29,204.84,204.84,0,0,1,3-34.5c1.14-6.63,8-11.56,13.93-10l81.88,21.79C1407.07,1320.43,1407,1324.62,1404.05,1326.48Z"/><path class="cls-19" d="M1409.09,1311.32l-80.69-21.46c-6-1.6-7.89-8.86-3.86-14.88a232.09,232.09,0,0,1,21-26.9,259.73,259.73,0,0,1,27.22-25.76c5.53-4.51,12.8-3.21,14.73,2.63l26.74,80.88C1415.16,1308.73,1412,1312.1,1409.09,1311.32Z"/><path class="cls-19" d="M1416.85,1334.05l-24.95,90.1c-1.86,6.7-9.13,11.1-14.9,9a135.23,135.23,0,0,1-25.64-12.43,145.81,145.81,0,0,1-24.23-19.22c-4.21-4.15-2.59-12,3.28-16l81.25-54.83C1414.57,1328.69,1417.76,1330.78,1416.85,1334.05Z"/><path class="cls-19" d="M1436.65,1303.8l54.51-80.72c4.06-6,11.91-7.64,16.09-3.34a131.21,131.21,0,0,1,17.47,22.22,157.39,157.39,0,0,1,13.75,28.48c2.09,5.76-2.21,13.06-8.7,14.79l-89.91,24C1436.65,1310,1434.67,1306.74,1436.65,1303.8Z"/><path class="cls-19" d="M1439.89,1316.57l88.8-15.45c6.61-1.14,11.39,4.16,9.78,10.88a205.66,205.66,0,0,1-10.1,31.27,249.82,249.82,0,0,1-16.78,32.9c-3.69,6.08-11.44,8-15.69,3.9L1437,1323.29C1434.88,1321.26,1436.66,1317.13,1439.89,1316.57Z"/><path class="cls-19" d="M1431.91,1330.34l47.89,65.49c3.56,4.88,1,12.81-5.18,16.25a208.5,208.5,0,0,1-30,13.73,214.21,214.21,0,0,1-34,9.15c-6.5,1.17-11.16-4.13-9.43-10.73l23.93-91.56C1426,1329.39,1430.17,1328,1431.91,1330.34Z"/><path class="cls-17" d="M1459.11,456.25c-.65-95.18,68.47-158.11,160.75-165.52,94.17-7.56,172.37,70.91,172.22,163.07-.14,92.58-80,168.79-175.48,162.55C1524.22,610.31,1459.73,548.83,1459.11,456.25Z"/><path class="cls-10" d="M1467.4,455.57c-.61-90.44,65.06-150.23,152.74-157.27,89.48-7.19,163.79,67.37,163.65,154.94-.14,88-76,160.38-166.75,154.45C1529.27,602,1468,543.53,1467.4,455.57Z"/><path class="cls-19" d="M1627.09,433.71l-25.66-101.57A12.15,12.15,0,0,1,1612.91,317a204.69,204.69,0,0,1,36.49,2.35,230,230,0,0,1,38.95,9.82,11.71,11.71,0,0,1,5.87,17.58L1635,435.09A4.4,4.4,0,0,1,1627.09,433.71Z"/><path class="cls-19" d="M1604.87,459l-96.22,41.43a12.14,12.14,0,0,1-16.75-8.93,204.94,204.94,0,0,1-3.47-36.4,230.08,230.08,0,0,1,3.53-40,11.71,11.71,0,0,1,16.43-8.58L1605,451A4.4,4.4,0,0,1,1604.87,459Z"/><path class="cls-19" d="M1610.8,442.32l-95.16-43.81a12.15,12.15,0,0,1-4.56-18.43,204.32,204.32,0,0,1,24.74-26.93,230.94,230.94,0,0,1,32.1-24.15,11.72,11.72,0,0,1,17.37,6.48L1616.84,437A4.4,4.4,0,0,1,1610.8,442.32Z"/><path class="cls-19" d="M1620,470.91l-29.43,100.55a12.14,12.14,0,0,1-17.57,7.2,205.12,205.12,0,0,1-30.25-20.54,229.48,229.48,0,0,1-28.58-28.23,11.72,11.72,0,0,1,3.87-18.13l95.84-46A4.39,4.39,0,0,1,1620,470.91Z"/><path class="cls-19" d="M1643.32,439.77l64.29-82.71a12.13,12.13,0,0,1,19-.25,204.43,204.43,0,0,1,20.6,30.2,231.13,231.13,0,0,1,16.22,36.76,11.72,11.72,0,0,1-10.26,15.44l-106,7.65A4.4,4.4,0,0,1,1643.32,439.77Z"/><path class="cls-19" d="M1647.13,455.57l104.74,2.15a12.13,12.13,0,0,1,11.54,15.07,203.36,203.36,0,0,1-11.92,34.56,230.05,230.05,0,0,1-19.78,35,11.72,11.72,0,0,1-18.51,1l-69.49-80.48A4.4,4.4,0,0,1,1647.13,455.57Z"/><path class="cls-19" d="M1637.73,470l56.48,88.24a12.14,12.14,0,0,1-6.11,18,204.09,204.09,0,0,1-35.35,9.32,230.18,230.18,0,0,1-40.06,3,11.72,11.72,0,0,1-11.13-14.83l28.23-102.5A4.4,4.4,0,0,1,1637.73,470Z"/><polygon class="cls-20" points="2079.01 1459.68 1662.34 1459.68 1625.59 472.46 2109.91 472.46 2079.01 1459.68"/><path class="cls-21" d="M2084.58,474.25l-4.8,153.37-21.37,682.88c-.83,26.62-19.31,47.71-41.81,47.71H1726.3c-23.75,0-43.3-22.15-44.35-50.26l-24.3-652.89-6.73-180.81Z"/><path class="cls-19" d="M1754.54,1277.27l-28.85-9,234.94-754c1-5.13,5.86-25.86,20.71-49.64,15.36-24.6,44.91-57.66,98.46-75.51,94.68-31.56,245.36-73.75,246.87-74.17l8.13,29.1c-1.5.42-151.47,42.41-245.44,73.73-35.68,11.89-63.16,32.67-81.69,61.74-14,22-17.44,40.8-17.47,41l-.17,1-.3.91Z"/><path class="cls-3" d="M1785.79,1241.46l30.09,2.73,71.39-786.54c1-5.13,4.47-26.13-.15-53.79-4.78-28.6-19.43-70.45-62.09-107.44-75.4-65.37-198.48-162-199.71-163l-18.65,23.78c1.23,1,123.73,97.12,198.57,162,28.41,24.64,45.86,54.35,51.85,88.3,4.53,25.66.51,44.37.47,44.55l-.23,1-.08,1Z"/><path class="cls-3" d="M1998.86,1104.33c59.87-47.09,78.59-121.69,34.82-186.62a153.62,153.62,0,0,0-14.28-18.16l-190.5,197.24C1875.16,1138.22,1947.13,1145,1998.86,1104.33Z"/><path class="cls-22" d="M1997.24,1102.1c58.44-46,76.71-118.77,34-182.14a150,150,0,0,0-14.17-18l-186,192.54C1876.24,1135.15,1946.65,1141.89,1997.24,1102.1Z"/><path class="cls-5" d="M1929,1010l65.56,59.5a10.27,10.27,0,0,1-1,16,173.82,173.82,0,0,1-26.79,15.41,195.68,195.68,0,0,1-32,11.3,9.91,9.91,0,0,1-12.36-9.64l.39-89.86A3.72,3.72,0,0,1,1929,1010Z"/><path class="cls-5" d="M1934.64,987.31l70.24-72.73a165.77,165.77,0,0,1,11.75,15.51,194.47,194.47,0,0,1,16.23,29.82,9.9,9.9,0,0,1-7.56,13.73l-88.79,13.85A3.63,3.63,0,0,1,1934.64,987.31Z"/><path class="cls-5" d="M1936.47,996.34,2024,982.68a10.27,10.27,0,0,1,11.83,10.85,173.39,173.39,0,0,1-4.82,30.52,194.6,194.6,0,0,1-11.31,32,9.9,9.9,0,0,1-15.26,3.57l-69.69-56.73A3.72,3.72,0,0,1,1936.47,996.34Z"/><path class="cls-5" d="M1841.57,1083.67l71.32-73.84a3.64,3.64,0,0,1,1.88,3.51l-6.58,88.29a10.26,10.26,0,0,1-13.25,9.06,173,173,0,0,1-28.63-11.64A194.51,194.51,0,0,1,1841.57,1083.67Z"/><path class="cls-3" d="M1713.61,898.44c63.11,42.64,139.87,37.7,188.34-23.81a154.44,154.44,0,0,0,12.94-19.14l-246-121.2C1643.58,791,1659.07,861.6,1713.61,898.44Z"/><path class="cls-22" d="M1715.23,896.22c61.61,41.62,136.52,36.79,183.83-23.23a151.3,151.3,0,0,0,12.8-19L1671.75,735.69C1646.83,791.08,1661.9,860.19,1715.23,896.22Z"/><path class="cls-5" d="M1782.1,803.15l-36.65,80.6a10.26,10.26,0,0,1-15.56,3.92,172.76,172.76,0,0,1-22.85-20.8,194,194,0,0,1-20.53-27,9.89,9.89,0,0,1,5.4-14.7l85.69-27.06A3.71,3.71,0,0,1,1782.1,803.15Z"/><path class="cls-5" d="M1805.44,801.57l90.7,44.68A165.09,165.09,0,0,1,1885,862.17a194.22,194.22,0,0,1-23.45,24.56,9.91,9.91,0,0,1-15.38-3l-40.29-80.33A3.6,3.6,0,0,1,1805.44,801.57Z"/><path class="cls-5" d="M1797.4,806.07l39.71,79.13a10.27,10.27,0,0,1-6.72,14.58,173.82,173.82,0,0,1-30.54,4.72,194.6,194.6,0,0,1-33.93-1,9.89,9.89,0,0,1-8.05-13.44l32.75-83.68A3.71,3.71,0,0,1,1797.4,806.07Z"/><path class="cls-5" d="M1685.27,742.35l92.09,45.38a3.66,3.66,0,0,1-2.77,2.86l-86.09,20.68a10.26,10.26,0,0,1-12.67-9.85,173.2,173.2,0,0,1,2.34-30.81A195.3,195.3,0,0,1,1685.27,742.35Z"/><path class="cls-11" d="M1886.88,1276.67s29.6-11.37,36.14-16.7,22.79-13.8,30.42-14.09,67.58-17.37,71.9-6.93l-40.35,28.6S1897.71,1282.62,1886.88,1276.67Z"/><path class="cls-12" d="M1982.49,1265.57s38.15-31.63,42.85-26.62,9.81,37.07,15.05,47.39,3.73,17.28-6.1,24.83-37.22,31.51-37.22,31.51Z"/><path class="cls-13" d="M1886.88,1276.67s32.87-1.37,56.57-4.68,37.45-10.79,41.54-4.44,11.89,52.29,16,62.87-4.39,16-29.32,17.78-64.31,12.07-65.52.87S1878.16,1277.1,1886.88,1276.67Z"/><path class="cls-1" d="M1932.68,1280.65s-32.27,1.31-39.15,1.89,4.79,24.29,6.66,30.89c0,0,2.91.88,2.71-2.84s-5.1-15.93-1.23-18.28,10-7.89,15.94-7.81S1935.73,1282.55,1932.68,1280.65Z"/><path class="cls-1" d="M1960,1344.6s13.44-2.68,21.93-3.15,14.2-4.65,12.92-8.89-10.15-40.09-11.53-45.44-8.31,3.37-7.8,8.91-7.15,17.15-8.48,26.7-13.37,18.71-12.81,21.3S1960,1344.6,1960,1344.6Z"/><path class="cls-14" d="M2007.66,1252s-5.31,6.8-11.2,9.88-7.67,3.24-6.4,7,6,18.16,6.47,20.54,3.24,2.46,3.69.33.36-9.52,1.83-14.39,3-14.51,6.82-17.79S2012.47,1249.19,2007.66,1252Z"/><path class="cls-11" d="M1702.41,1235.91s30.9,7.11,39.29,6.34,26.62,1.28,33.1,5.3,65.76,23.36,63.51,34.43l-49.45,1.18S1708.06,1246.89,1702.41,1235.91Z"/><path class="cls-12" d="M1787.9,1280.12s49.31-4.92,50.41,1.86-12.58,36.22-14,47.71-6.56,16.42-18.93,17.19-48.47,5.34-48.47,5.34Z"/><path class="cls-13" d="M1702.41,1235.91s28,17.22,49.52,27.72,37.1,12,36.93,19.53-19.35,50-21.87,61.06-12.58,10.84-34.25-1.63-60.08-25.92-54.83-35.88S1694.93,1231.4,1702.41,1235.91Z"/><path class="cls-1" d="M1738.16,1264.8s-27.49-17-33.53-20.31-9.59,22.82-11.73,29.34c0,0,1.92,2.36,3.83-.84s4.68-16.06,9.19-15.85,12.75-.93,17.59,2.43S1739.63,1268.08,1738.16,1264.8Z"/><path class="cls-1" d="M1725.13,1333.12s12.64,5.29,19.95,9.64,14.37,4.08,15.68-.16,14-38.91,15.82-44.12-8.78-1.85-11.45,3-15.51,10.22-22,17.4-21.54,8-22.52,10.51S1725.13,1333.12,1725.13,1333.12Z"/><path class="cls-14" d="M1816.34,1283s-8.21,2.66-14.81,1.93-8.17-1.6-9.24,2.26-5.2,18.38-6.11,20.64,1.32,3.86,2.88,2.34,5.62-7.7,9.56-10.91,10.6-10.35,15.59-11S1821.92,1283.28,1816.34,1283Z"/><path class="cls-11" d="M1784.08,1028.78s29.85,10.7,38.28,10.93,26.28,4.41,32.24,9.17,62.55,30.95,59,41.67l-49.23-4.65S1788.4,1040.36,1784.08,1028.78Z"/><path class="cls-12" d="M1863.77,1082.76s49.55.93,49.83,7.79-16.75,34.49-19.52,45.73-8.45,15.53-20.82,14.84-48.76-.41-48.76-.41Z"/><path class="cls-13" d="M1784.08,1028.78s25.79,20.41,45.91,33.37,35.43,16.27,34.38,23.75-25.12,47.38-28.92,58.06-13.77,9.27-33.82-5.66-56.61-32.83-50.22-42.1S1777.19,1023.42,1784.08,1028.78Z"/><path class="cls-1" d="M1816.19,1061.69s-25.31-20.07-30.91-24.12-12.22,21.53-15.1,27.75c0,0,1.62,2.57,3.9-.39s6.54-15.39,11-14.64,12.77.57,17.18,4.48S1817.25,1065.12,1816.19,1061.69Z"/><path class="cls-1" d="M1795.19,1128s11.93,6.74,18.67,11.92,13.79,5.75,15.59,1.69,18.47-37,20.91-41.95-8.5-2.87-11.72,1.67-16.61,8.32-23.85,14.69-22.34,5.45-23.61,7.78S1795.19,1128,1795.19,1128Z"/><path class="cls-14" d="M1891.67,1088.93s-8.46,1.69-14.93.18-7.92-2.55-9.44,1.15-7.33,17.64-8.5,19.78.85,4,2.58,2.66,6.49-7,10.78-9.7,11.75-9,16.78-9S1897.18,1089.92,1891.67,1088.93Z"/><path class="cls-5" d="M1853.67,1020.64c-28.37,29.32-75,2-92.47-1.13s-44.06-27.78-44.06-27.78,52.34-18.21,92.57-13.33c39.67,4.82,43.84,41.22,44,42.22Z"/><path class="cls-3" d="M1853.66,1020.62c-.44-.61-27.69-37.47-136.52-28.89,0,0,52.34-18.21,92.57-13.33C1849.38,983.22,1853.55,1019.62,1853.66,1020.62Z"/><path class="cls-5" d="M2043.44,797.39C2063,872.16,1972.8,920.73,1950.63,946s-88.31,44-88.31,44,22-102.67,69.5-163c46.83-59.48,109.85-30.42,111.58-29.6Z"/><path class="cls-3" d="M2043.4,797.39c-1.43.11-87.9,8-181.08,192.58,0,0,22-102.67,69.5-163C1978.65,767.51,2041.67,796.57,2043.4,797.39Z"/><path class="cls-5" d="M1910.3,1335.38c-26.7,23.42-65.22-3.64-80.15-7.55s-36.26-27.24-36.26-27.24,46.72-12.08,81.28-5c34.08,7,35.11,38.88,35.12,39.76Z"/><path class="cls-3" d="M1910.29,1335.37c-.33-.57-21.35-34.49-116.4-34.78,0,0,46.72-12.08,81.28-5C1909.25,1302.61,1910.28,1334.49,1910.29,1335.37Z"/><path class="cls-11" d="M1806.91,1231.49s29.6-11.36,36.13-16.69,22.79-13.81,30.42-14.09,67.59-17.37,71.9-6.93l-40.35,28.6S1817.73,1237.45,1806.91,1231.49Z"/><path class="cls-12" d="M1902.51,1220.4s38.15-31.64,42.85-26.62,9.81,37.07,15.05,47.39,3.73,17.28-6.1,24.83-37.21,31.51-37.21,31.51Z"/><path class="cls-13" d="M1806.91,1231.49s32.86-1.36,56.56-4.67,37.46-10.79,41.54-4.44,11.89,52.29,16,62.86-4.38,16-29.32,17.79-64.31,12.07-65.52.87S1798.19,1231.93,1806.91,1231.49Z"/><path class="cls-1" d="M1852.71,1235.48s-32.28,1.31-39.16,1.89,4.79,24.29,6.67,30.89c0,0,2.9.88,2.7-2.84s-5.1-15.94-1.23-18.28,10-7.89,16-7.81S1855.75,1237.38,1852.71,1235.48Z"/><path class="cls-1" d="M1880.07,1299.42s13.44-2.67,21.93-3.14,14.19-4.65,12.91-8.9-10.15-40.08-11.53-45.43-8.31,3.37-7.79,8.91-7.15,17.15-8.48,26.7-13.37,18.71-12.81,21.3S1880.07,1299.42,1880.07,1299.42Z"/><path class="cls-14" d="M1927.69,1206.86s-5.32,6.8-11.21,9.88-7.67,3.24-6.39,7,6,18.16,6.46,20.53,3.25,2.47,3.69.34.37-9.53,1.84-14.39,3-14.51,6.81-17.79S1932.5,1204,1927.69,1206.86Z"/><path class="cls-5" d="M1961.63,1201c-2.17,35.45-48.51,43.75-61.81,51.59s-44.86,6.57-44.86,6.57,24.31-41.68,53.68-61.22c29-19.27,52.33,2.45,53,3.06Z"/><path class="cls-3" d="M1961.61,1201c-.64-.16-39.52-9.12-106.65,58.16,0,0,24.31-41.68,53.68-61.22C1937.61,1178.7,1961,1200.42,1961.61,1201Z"/><path class="cls-3" d="M1720,1183.37c58.54,48.75,135.4,51.51,189.79-4.83a153.46,153.46,0,0,0,14.78-17.75L1692,1015.57C1661.11,1069.44,1669.45,1141.25,1720,1183.37Z"/><path class="cls-22" d="M1721.87,1181.32c57.13,47.58,132.14,50.28,185.23-4.71a149.87,149.87,0,0,0,14.63-17.61l-227.06-141.75C1664.33,1069.86,1672.41,1140.13,1721.87,1181.32Z"/><path class="cls-5" d="M1797.72,1095.42l-44.54,76.52a10.26,10.26,0,0,1-15.87,2.35,173.13,173.13,0,0,1-20.66-23,195.19,195.19,0,0,1-17.72-29,9.9,9.9,0,0,1,6.85-14.09l88-18.34A3.72,3.72,0,0,1,1797.72,1095.42Z"/><path class="cls-5" d="M1821.1,1096.18l85.76,53.54a162.52,162.52,0,0,1-12.72,14.72,193.54,193.54,0,0,1-25.78,22.09,9.9,9.9,0,0,1-15-4.53l-32-84A3.73,3.73,0,0,1,1821.1,1096.18Z"/><path class="cls-5" d="M1812.65,1099.85l31.58,82.72a10.25,10.25,0,0,1-8.14,13.82,173.15,173.15,0,0,1-30.86,1.64,194.17,194.17,0,0,1-33.66-4.39,9.9,9.9,0,0,1-6.67-14.18l41-80A3.72,3.72,0,0,1,1812.65,1099.85Z"/><path class="cls-5" d="M1707.46,1025.23l87.08,54.37a3.64,3.64,0,0,1-3,2.56l-87.73,12a10.25,10.25,0,0,1-11.61-11.06,173.19,173.19,0,0,1,5.41-30.43A196.21,196.21,0,0,1,1707.46,1025.23Z"/><path class="cls-23" d="M2079.78,627.62l-21.37,682.88c-.83,26.62-19.31,47.71-41.81,47.71H1726.3c-23.75,0-43.3-22.15-44.35-50.26l-24.3-652.89.23-.35s71-15.51,141.51-14.54S1962.12,619,1982,625.71s76.08-4.45,97.67-1.27C2079.67,624.44,2079.71,625.53,2079.78,627.62Z"/><path class="cls-7" d="M2079.67,624.44c-21.85-3-101.56,12.91-121.33,6.27s-100.73,22.34-170.63,13.18c-60-7.86-133.72,3.08-139.66,4.34h-.65l.23-.36s71-15.5,141.5-14.53,162.74-21.16,182.62-14.47,86.33,2.39,107.92,5.57Z"/><rect class="cls-24" x="1703.21" y="501.47" width="53.97" height="947.68"/><rect class="cls-25" x="1936.39" y="472.96" width="96.47" height="976.19"/><path class="cls-26" d="M2418.81,1126.6s48.52,16.84,64.5,14.72c0,0,1.07-8.19-13-15.81s-26.18-33.07-33.81-31.15-17.73,8.82-17.73,8.82Z"/><path class="cls-26" d="M2487.94,1051.29s50.68-8.32,63.72-17.8c0,0-3-7.71-19-7.71s-38.78-16.59-44.58-11.26-11.38,16.21-11.38,16.21Z"/><path class="cls-27" d="M2418.84,1126.63q-20.72-.64-39-1.75c-185-10.92-190.39-52.06-190.39-52.06-30.76-94.27,92.86-187.88,92.86-187.88s75-10.53,72,33.55-106.75,130.69-106.75,130.69c34.55,3.23,90.72,22.66,129.24,37.3,24.56,9.35,42,16.74,42,16.74a23,23,0,0,1,2.79,11.89A35.84,35.84,0,0,1,2418.84,1126.63Z"/><path class="cls-26" d="M2379.86,1124.88c-185-10.92-190.39-52.06-190.39-52.06-30.76-94.27,92.86-187.88,92.86-187.88s75-10.53,72,33.55-106.75,130.69-106.75,130.69c34.55,3.23,90.72,22.66,129.24,37.3C2381.49,1098.47,2384.53,1112.84,2379.86,1124.88Z"/><path class="cls-27" d="M2488.12,1051.25l-.18,0c-159.23,43-215.42,42.38-231.61,39.14-7.18-1.43-12.23-11.91-12.23-11.91C2213.35,984.25,2344.47,878,2344.47,878s56.49-2.56,72.26,23.21a28.62,28.62,0,0,1,4,17.29c-1.92,28.39-44.89,69.31-75.24,94.84-16,13.5-28.55,22.7-29.62,23.48l-.06,0c53-32.69,161-6.12,161-6.12s6.26,4.41,8.26,8.09A29.52,29.52,0,0,1,2488.12,1051.25Z"/><path class="cls-28" d="M2548.18,531.68c-2.54-9.6-1-7.28-2.66-14.14s-9.11-1-9.11-1c-10.41,9.52-10.49,20-9,26.72a20.33,20.33,0,0,1-2.21,14.9c-15.5,26.28-53.41,95-53.41,95-39.79,1.77-99.09,15.16-99.09,15.16s-17.71,53.52,11.47,55.29,111.5-38.61,118.57-44.8,40.93-122.52,40.93-122.52C2549,551.51,2550.72,541.28,2548.18,531.68Z"/><path class="cls-28" d="M2339.83,420.61c-6.49,2.77-3.71,2.61-12.92,6.33s-19.27,27.48-19.27,27.48c-70,89.46-62.21,127.09-62.21,127.09-1.77,34.49,25.73,123.65,25.73,123.65l41.77-29.9c3.54-25.64-30.6-103.74-30.6-103.74,17.43-36.07,31.43-84.54,37.41-106.8a23.09,23.09,0,0,1,11.54-14.82c6.1-3.06,13.49-9.46,14.8-22.58C2346.08,427.32,2346.32,417.84,2339.83,420.61Z"/><path class="cls-29" d="M2341.7,787.9s-56.45-58.57-104.74-94.19c-3.3-8.93-5.09-20.8-5.09-20.8-2.72,4.94-2.29,11.32-1.4,16.11-13.12-9.24-25.38-16.43-35.44-19.87-3.38-19.64,15.52-40.29,15.52-40.29-16.23,6.58-22.81,28.24-25,38.16a19.85,19.85,0,0,0-4.86.16s-1.64-66.34,99.69-66.34c39.43,0,33.78-68.49,89.89-63.58,0,0,61.29,12,49.85,65.42s7.36,65.42,13.89,77.4S2412.79,775.92,2341.7,787.9Z"/><path class="cls-28" d="M2391.57,679l-59.1,23.4-6.28-26.18a107,107,0,0,1,1.51-24.78,197.94,197.94,0,0,1,6.45-27l.12-.39,1.52,0,4.91-.13,33.21-.86a63.41,63.41,0,0,0-2.18,13.82A48.94,48.94,0,0,0,2391.57,679Z"/><path class="cls-30" d="M2518.11,640.24s-11.06,37.17-16.37,40.14-74.95,38.7-96,41.57c0,0-7.38.76-10,2h0a1.6,1.6,0,0,0-.84.65.64.64,0,0,0-.07.16c-1.49,3.93-20.18,67.61-20.62,84.51-.31,11.78,51.6,87.54,51,96.14a6,6,0,0,1-.53,2.1c-2.92,6.45-17.22,5.9-29-.25a185.59,185.59,0,0,0-29.88-12.19c-13.62-4.2-28.91-7-41.38-4.41-24,4.92-48.53-1.23-57.14-27.64s-7.37-80.48-9.82-91.54-4.61-45.74,10.11-68.78h0v0s1.84-3.69-1.22-11.36-25.5-88.47-22.12-112.73c0,0,.94-23.62,15.78-50.65a42.52,42.52,0,0,1,17,9c7.83,7,12.93,14.25,14.17,14.55,0,0-8.25,18.44-7.79,20s28.41,80.79,30,85.39c0,0,11-.95,13.38,1.44,0,0-.94,22.73,50.66,3.89,0,0,3.18-.52,3.33,2.15,0,0,66.55-10.63,89.7-12.29,0,0,1.23-.13,8.39-13.52,8.5-15.91,12-19.67,12-19.67S2511.81,618.93,2518.11,640.24Z"/><path class="cls-31" d="M2425.15,905.43a6,6,0,0,1-.53,2.1c-2.92,6.45-17.22,5.9-29-.25a185.59,185.59,0,0,0-29.88-12.19c-8.22-20.44-19.56-51.47-23.89-76.71-6.6-38.46,45.31-86.78,52.89-93.6-1.49,3.93-20.18,67.61-20.62,84.51C2373.85,821.07,2425.76,896.83,2425.15,905.43Z"/><path class="cls-32" d="M2371.73,636.82s-27.67,14.07-44,14.57a197.94,197.94,0,0,1,6.45-27c.55-.17,1.1-.32,1.64-.43a12.92,12.92,0,0,1,3.43-.27c.49,0,1,.08,1.48.14C2354.43,625.45,2371.73,636.82,2371.73,636.82Z"/><path class="cls-28" d="M2320.89,631.14s47.18,23.91,61.62-5.71,30.25-46.47.73-63-40.92-8.09-48.14.62S2309,624.15,2320.89,631.14Z"/><path class="cls-29" d="M2357.88,562.19s14.3,14.22,10.1,27.74,2.59,40.41,21,43.48,40.35-59.24,16.09-71.22-63.89-17.91-75.86-2.85-7.37,34.08-7.37,34.08S2338.47,561.27,2357.88,562.19Z"/><path class="cls-1" d="M2339.07,621.34s-1.94,3.19-10.36-.14c0,0-7.07-2.8-5.61-6.52C2323.1,614.68,2331,614.26,2339.07,621.34Z"/><path class="cls-26" d="M466.49,968.45s27.39,10.66,52-16.89c-.57.88-17.28,26.55-31.58,31.19q2.76,1.95,5.34,4c7.34,5.92,13.74,12.41,20.93,16.29h0c17.84,9.6,33.15,14,46,14.53,12.2-5.48,19.24-17.28,23.2-27.54l5.65-4.42A47.5,47.5,0,0,1,575.21,1016c17.7-4.55,29-18.15,34.46-35.14.33-1,.63-2.08.92-3.13.16-.56.31-1.13.44-1.7a82.05,82.05,0,0,0,2-12.06,97.19,97.19,0,0,0-5.75-43c-.24-.61-.48-1.22-.71-1.83a.11.11,0,0,1,0-.07,82.21,82.21,0,0,0-7.44-14.28c-5.29-8-6.22-18.6-5-29.3,2.65-23.4,15.52-47.49,15.52-47.49a36.33,36.33,0,0,0-6.22-7c-8.18-7.41-24.86-17.34-52.6-12.21-42.23,7.78-56.83,37.84-52,74.88s3.75,58.48-24.41,68.2l-.29.1A12.72,12.72,0,0,0,466.49,968.45Z"/><path class="cls-33" d="M558.24,1064.24s34.45,38.93,48.84,44.06c14.82,5.28,68-2.4,68-2.4s-6.15-46.83-4.85-61.3,33.42-67.38,36-89.23-22.17-44.12-22.17-44.12-16.76,0-17.85-2c-.48-.91-.92-1.83-1.31-2.76-4.32-10.37-2.66-21.54-2.66-21.54l-32.06-1.33c.28,3.88.51,7.2.69,10.08A21.61,21.61,0,0,1,616,915.66c-8.77,2.83-16.32,6.17-16.87,8.22-2.76,10.49,23.53,82.64,14.49,89.68C575.71,1043,558.24,1064.24,558.24,1064.24Z"/><path class="cls-34" d="M630.2,883.66s2.14,15.87,34.72,22.87c-4.32-10.37-2.66-21.54-2.66-21.54Z"/><path class="cls-33" d="M672.67,881.13s-31.52,22.81-45.42,3-27.33-30.27-7.79-45.67,28.79-10.6,35-5.1S680.52,874.69,672.67,881.13Z"/><path class="cls-1" d="M657,875.4s2.1,2.15,8.1-2c0,0,5-3.48,3.21-6.14C668.31,867.26,662.06,868.37,657,875.4Z"/><path class="cls-33" d="M660.5,1452.13c-8.11-1.62-23.94-12.24-23.94-12.24s-6.87-123.37,2.53-154.21c5.49-18,16.85-76.36,25.35-121.75,6-32.29,10.65-58,10.65-58H550.83s9.52,102.34,27.69,152.2c4.47,12.26,7.41,21.89,6.71,25-11.69,51.72,35.22,156.81,35.22,156.81a44.82,44.82,0,0,0-2.12,20.12h66.83C683.87,1454.91,668.62,1453.75,660.5,1452.13Z"/><path class="cls-26" d="M648.41,829.3s12.14-19-7.73-29C607.28,783.57,606,828.5,596,831.63s-21.74,23.23-9.65,37.21,27.69,10.67,30.93,17.75,14,3.68,13.2,1.13c-.29-1-2.9-2.42-4.37-6.12-.81-2,1.4-4.33.59-4.36-8-.31-12.81-12.52-4.2-11.64s12.17-7.33,11.8-10.73-8.58-11.25-.94-15.62S644.08,835.15,648.41,829.3Z"/><path class="cls-35" d="M565.8,1105.9s-7.56,102.88,13.72,155l84.92-96.93c6-32.29,10.65-58,10.65-58Z"/><path class="cls-33" d="M570.18,1058c-18.09-2.61-27.92,12.25-32.93,33.52-3.81,16.15-4.85,36-4.63,54.71a531.78,531.78,0,0,0,4.63,62s-17-19.48-42.83-23.79c-64.6-10.8-87.37-23.83-90.34-25.66-.77-2.16-1.86-5.4-3.2-10-2.86-9.79-4.63-14-17.47-15s-26-15.58-28.56-11,12.33,24.66,17.52,29.85,20.79,17.51,20.81,17.53h0c56.68,53.21,159.94,96.76,159.94,96.76,23.37-11.17,110.07-169.06,110.07-169.06S626,1066.08,570.18,1058Z"/><path class="cls-33" d="M766.73,772.42a20,20,0,0,0-.23-10.11c-.71-1.88,8.11-12.88,4.58-14.76s-18.06,6.82-20.17,9.88,3.26,22.94,3.26,22.94-11.09,72.79-15,93.39c-5.58,29.51-55.11,37.49-55.11,37.49l24.07,33.91S758.24,896.8,765,879.88c5.31-13.31,1.73-101.24,1.73-101.24S765.79,776.42,766.73,772.42Z"/><path class="cls-33" d="M599.08,923.88S560.37,972,549.41,977.55c-13.94,7-65.36,9.88-65.36,9.88s-11.5-9.36-14.33-9.16-14.21,6.33-14.35,9.38,10.51,1.55,11.47,2.75a15.38,15.38,0,0,0,6.54,4.1c3,.94,7.74,3,7.74,3s49.81,11.94,77.12,6.54c7.11-1.41,60.77-44.79,60.77-44.79L624,915.18Z"/><path class="cls-36" d="M528.19,1004.69h0s27.48,2.55,32,.75,13.44-8.51,22.25-15.38l5.65-4.42c8.82-6.91,16.49-12.85,18-12.55h0a.63.63,0,0,1,.32.17c.92.74,2,3.67,3.14,7.62,2.89,10.38,5.74,27.75,5.23,30.48a0,0,0,0,0,0,0,.76.76,0,0,1-.08.23,0,0,0,0,1,0,0l0,0c-1.16,1.62-18.52,15.82-26.08,22-2.12,1.74-3.47,2.83-3.47,2.83l.5.26,1.32.67c1.31.65,3.27,1.62,5.76,2.8h0c5.72,2.72,14.23,6.57,23.93,10.3,17.26,6.66,38.26,13,53.83,11.87,1.13-.08,2.22-.2,3.29-.35,0,0-2.55-14.75,1.13-21.24s28.39-66.14,29.48-70.51c1-3.88,1.31-9.3,1.67-14.14.09-1.28.18-2.52.29-3.68.33-3.59.77-6.41,1.71-7.32l.14-.14.09-.08a2.08,2.08,0,0,1,.21-.2,5.79,5.79,0,0,1,.43-.43.63.63,0,0,1,.12-.11c6.1-6.05,36.77-36.72,50-54.62l.25-.35c2.84-3.86,4.84-7.11,5.56-9.35h0c.29-.92.56-1.9.81-2.91,3.32-13.65,2.09-34.2,2.09-34.2h0c-.28-.1-2.39-.78-10.29-1.83a67.47,67.47,0,0,0-12.83-.11h0s-4.94,29.21-6.35,30.8c-3.76,4.19-46,37.22-53.6,39.5h0a2.26,2.26,0,0,1-.65.12H684l-2.83,0H681c-3.7,0-6.52,0-6.52,0s10.89,14.89,9.6,27S647.74,950,638.22,942.6c-5-3.88-11-11.17-15.41-17.18-2.42-3.24-4.4-6.1-5.6-7.88-.81-1.18-1.26-1.87-1.26-1.87h0a3.27,3.27,0,0,0-.4.13l-.27.09-.33.11c-1.63.55-5,1.73-8.31,3.16-1.8.77-3.59,1.61-5.14,2.46l0,0a18.64,18.64,0,0,0-2.84,1.86c-7.69,6.32-44.26,50.77-48.89,53.87l0,0a1.39,1.39,0,0,1-.26.14c-3,.92-21.22,5.2-21.22,5.2h0a50.13,50.13,0,0,0-1.54,10.59A32.3,32.3,0,0,0,528.19,1004.69Z"/><path class="cls-35" d="M532.62,1146.25c3.33-3.53,21.37-17.82,89.31-8.56,0,0-42.69-48.9-84.68-46.15C533.44,1107.69,532.4,1127.53,532.62,1146.25Z"/><path class="cls-37" d="M585.23,1036.49a338,338,0,0,0,31.52,14c9.79-12.18,14.79-32.72,13.45-45.21-2.14-19.9-20.91-30.57-23.67-32,3.49,2.78,9.47,36.55,8.27,38.39l0,0c-1.15,1.62-18.52,15.81-26.08,22C586.58,1035.4,585.23,1036.49,585.23,1036.49Z"/><path class="cls-37" d="M708.15,945.16c2.38-2.32,52.51-51.86,56.84-65.28C765,879.88,700.52,920.44,708.15,945.16Z"/><path class="cls-36" d="M673.87,1065.92s78.64,69.32,97.92,101.76c.51.86,0,3,0,3.88,0,0-20.72,3.13-36.94-6.09s-25.31-7.27-36.34-5.32-25.12.64-37.22-11.69-29.62-6.7-38.71-6.27-19.9-4.76-25.09-10.81-22.06-11.69-29-7.58-19.89,2.38-28.11-4.11-12.55-17.73-29-14.27-24.66,3.46-32-1.73-20.33-14-31.58-10.92-28.2-15.5-28.2-15.5-.82-3.48,0-3.87c11.23-5.43,96.95-41.61,169.11-35.86C588.71,1037.54,625.2,1063.62,673.87,1065.92Z"/><path class="cls-19" d="M419.6,1073.4s.82.9,2.23,2.29c4.74,4.64,16.08,14.66,24.73,13.46a10.08,10.08,0,0,0,1.24-.25h0c11.25-3.11,24.22,5.73,31.57,10.92s15.58,5.19,32,1.73a24.26,24.26,0,0,1,9.3-.34c8.31,1.46,12.41,8,17.81,13h0c.61.56,1.23,1.1,1.88,1.61A31.06,31.06,0,0,0,556,1122c4.74.5,9.26-.15,12.47-2,2.21-1.31,5.43-1.63,9-1.27,7.06.74,15.36,4.22,19.29,8.06a10.74,10.74,0,0,1,.74.78c5.19,6.06,16,11.25,25.09,10.81,6.48-.3,17.24-3.25,27.28-.45h0a25.14,25.14,0,0,1,11.42,6.72A40,40,0,0,0,681,1155.94h0a43.61,43.61,0,0,0,17.54.33c7.21-1.28,13.59-2.55,21.68-.7h0a54.29,54.29,0,0,1,14.66,6c16.23,9.22,36.94,6.09,36.94,6.09-16.55-31.14-97.92-105.63-97.92-105.63-48.67-2.31-85.17-28.39-85.17-28.39C511.25,1027.5,419.6,1073.4,419.6,1073.4Z"/><path class="cls-30" d="M681,1155.94h0a43.61,43.61,0,0,0,17.54.33c7.21-1.28,13.59-2.55,21.68-.7-.46-.59-30.67-39.18-34.51-36.73S672.67,1151,681,1155.94Z"/><path class="cls-30" d="M596.75,1126.72a10.74,10.74,0,0,1,.74.78c5.19,6.06,16,11.25,25.09,10.81,6.48-.3,17.24-3.25,27.28-.45-.24-.52-15.81-34-23.7-35.14C619.32,1101.7,598.59,1116.31,596.75,1126.72Z"/><path class="cls-30" d="M421.83,1075.69c4.74,4.64,16.08,14.66,24.73,13.46.41-.07.82-.16,1.24-.25h0c.84-.35,54.37-23.17,57.12-28.29C507.5,1055.84,435.78,1068.92,421.83,1075.69Z"/><path class="cls-30" d="M479.38,1099.81c7.36,5.19,15.58,5.19,32,1.73a24.26,24.26,0,0,1,9.3-.34s31.52-18.13,30.13-23.8S479.38,1095.94,479.38,1099.81Z"/><path class="cls-30" d="M538.51,1114.2h0c.61.56,1.23,1.1,1.88,1.61A31.06,31.06,0,0,0,556,1122c4.74.5,9.26-.15,12.47-2,2.21-1.31,5.43-1.63,9-1.27,2-1.78,18.69-16.77,15.51-20.51C589.59,1094.18,536.67,1108.71,538.51,1114.2Z"/><rect class="cls-38" x="223.24" y="1458.41" width="2722.32" height="7.22" rx="3.08"/><path class="cls-39" d="M1400,1346.61a5.56,5.56,0,0,1-3.16,5.1h0c-3.68,2-10.14,2.23-17.16,1.92-.9,0-1.71-.06-2.43-.06h-1c-7,.17-6.21,2.25-19.42,3.39-15.06,1.28-20.6-3.33-21.49-5.42-.75-1.78,5.71-3.8,12.93-6.11l1-.34,2.89-.93c8.6-2.86,17.06-6.25,19.17-15,2.24-9.22-4.49-35-4.49-35l23.86-2.58s2.3,26.92,3.8,35.31c.8,4.47,2.84,8,4,11.87q.14.41.24.81A26.26,26.26,0,0,1,1400,1346.61Z"/><path class="cls-40" d="M1400,1346.61a5.56,5.56,0,0,1-3.16,5.1h0c-3.92,1.81-10.27,2.07-17.15,1.88-.9,0-1.7,0-2.44,0h-1c-7,.17-6.21,2.25-19.42,3.39-15.06,1.28-20.6-3.33-21.49-5.42-.75-1.78,5.71-3.8,12.93-6.11a44.61,44.61,0,0,0,23.1,2c10.05-1.89,20-6.89,27.2-8.56q.14.41.24.81A26.26,26.26,0,0,1,1400,1346.61Z"/><path class="cls-39" d="M1245.2,1316.15c-1.33,6.63-10.78,5.52-21.33,2.94s-8,.49-23.06-1.17-19.57-7.27-20-9.5c-.41-2,7-2.68,15-3.59l3-.37c9-1.12,15.56-6.92,23.73-11.68,7.73-4.52,19.27-22.9,19.27-22.9l20.6,1.64s-10.81,16.41-15,23.55c-2.46,4.2-2.33,9.75-2,14A26.36,26.36,0,0,1,1245.2,1316.15Z"/><path class="cls-40" d="M1223.87,1319.09c-10.55-2.58-8,.49-23.06-1.17s-19.57-7.27-20-9.5c-.41-2,7-2.68,15-3.59l.08.15a42.34,42.34,0,0,0,21.51,6.68c10.19.25,21-2.67,28-2.55a26.36,26.36,0,0,1-.15,7C1243.87,1322.78,1234.42,1321.67,1223.87,1319.09Z"/><path class="cls-39" d="M1291,1013.63s-7.7-13.77-13.09-14.26-23.3-5.35-24.53-2.89,3.51,15.19,7.19,18.38,26.5,8.34,26.5,8.34Z"/><path class="cls-40" d="M1324.13,1184.45l44.39,119.46a40.72,40.72,0,0,0,13.36-1.22c6-1.73,12.91-6.29,12.91-6.29s-11-114.7-31.2-138.56S1324.13,1184.45,1324.13,1184.45Z"/><path class="cls-41" d="M1499.7,1136.12s-127.55-43.13-156-33.95-113.85,179.11-113.85,179.11,1.92,2.56,7.19,4.53c4.89,1.84,16.74,1.72,16.74,1.72s77.08-66.07,86.25-85.34,12.85-37.62,22-35.79,118.37,45,143.15,19.27,18.29-59.07,18.29-59.07Z"/><path class="cls-26" d="M1421.75,935.48c-2-4.2-4.31-11.67-5.42-25,.17,1.32,2.46,18.12,8.92,27.62,26.53,17.42,77.37,75.57,76.37,86.59,0,0,17.91-30.37,18.21-30.56,0,0,33-42-6.11-66.07-19.9-12.23-19.8-27.93-19-41.56s-5.43-72.33-45.29-57c0,0-6.4-2.84-9.26-2.42a7.83,7.83,0,0,1,3.53,1.68c-4.63-.28-11.23.07-16.75,3.2C1412.37,840.3,1399.29,914.81,1421.75,935.48Z"/><path class="cls-39" d="M1426.82,939c-.13.06,12.81,6.78,22.54,4.12,9.16-2.5,15.14-14.37,15-14.4-3.88-.77-5-6.1-4.92-29l-1.75.34-29.47,5.84s.67,9.27.69,18C1429,931.24,1428.5,938.2,1426.82,939Z"/><path class="cls-42" d="M1428.24,905.89s.67,9.27.69,18c16.49-.46,25.21-15.51,28.78-23.85Z"/><path class="cls-26" d="M1460.75,896.84s8.65-13.65,10.72-25.33c1.48-8.34-2.76-39.24-33.82-34.79a42.26,42.26,0,0,0-17.5,6.61c-6.74,4.56-16.47,14.39-5.59,41.36l2.83,9.1Z"/><path class="cls-39" d="M1422.73,914.16s39,.64,39-23.66,5.08-40.6-19.84-42-29.76,7.83-31.74,15.95S1412.58,913.37,1422.73,914.16Z"/><path class="cls-26" d="M1424.17,847.87s10.69,28.52,27.08,32.73,23.51-.17,23.51-.17A46.43,46.43,0,0,1,1459.58,853S1432.23,834.3,1424.17,847.87Z"/><path class="cls-26" d="M1426.82,850.18s-8,6.37-9.92,12.56-2.82,18.93-6.54,18.5c0,0-8-19.38,1-30.35C1421,839.26,1426.82,850.18,1426.82,850.18Z"/><path class="cls-43" d="M1513.72,1044c3.84-16.14-9.25-47.46-22.92-73.38-12.4-23.5-25.27-42.56-26.42-41.88-32.71,19.41-35.67,3.27-35.67,3.27s-29.7,3.95-38.12,18.43c-11.63,20-24.3,80.11-36.75,79.23-5.72-.41-63.22-22-63.22-22s-9.59,9-7.75,20c0,0,28.39,19,52.41,31.15,12.7,6.41,24.17,10.9,29.57,9.63,10.94-2.57,28-27.93,37.26-42.86l.06-.1c11.78,66.7-4.24,81.89,3.87,88.92,8.57,7.43,20.8-3.53,47.72,8.14,17.66,7.66,42.16,18.73,58.65,20.66,8.65,1,15.11-.49,17.21-6.34C1535.74,1119.82,1506.37,1074.73,1513.72,1044Z"/><path class="cls-1" d="M1431.4,899.43s-.73,3.08-8.41,2.61c0,0-6.45-.4-6.25-3.79C1416.74,898.25,1423,895.83,1431.4,899.43Z"/><path class="cls-44" d="M1529.62,1136.79c-2.1,5.85-8.56,7.35-17.21,6.34-11.41-5-60.73-24.08-60.18-37,.82-19.17,9.48-19.78,3.37-43.44-4.92-19,40.65-54.31,47.92-62,13.67,25.93,14,27.15,10.2,43.29C1506.37,1074.73,1535.74,1119.82,1529.62,1136.79Z"/><path class="cls-44" d="M1402.11,1025.51c-9.23,14.93-26.32,40.29-37.26,42.86-5.4,1.27-16.87-3.22-29.57-9.63,9.26,2.39,18.27,2.32,27,1.48,9.48-.92,12.23-12.55,27.22-30C1399.24,1018.93,1401.63,1021.78,1402.11,1025.51Z"/><path class="cls-17" d="M1408.55,1038.05c0-4.68,3.37-7.78,7.9-8.14a8,8,0,0,1,8.47,8,8.09,8.09,0,0,1-8.63,8C1411.75,1045.62,1408.58,1042.6,1408.55,1038.05Z"/><path class="cls-10" d="M1409,1038c0-4.44,3.2-7.38,7.51-7.73a7.58,7.58,0,0,1,8,7.62,7.68,7.68,0,0,1-8.19,7.59C1412,1045.21,1409,1042.34,1409,1038Z"/><path class="cls-19" d="M1416.81,1036.94l-1.26-5a.59.59,0,0,1,.56-.74,10.25,10.25,0,0,1,1.8.12,10.72,10.72,0,0,1,1.91.48.57.57,0,0,1,.29.86l-2.91,4.35A.22.22,0,0,1,1416.81,1036.94Z"/><path class="cls-19" d="M1415.72,1038.18l-4.73,2a.6.6,0,0,1-.83-.44,10.56,10.56,0,0,1-.17-1.79,12,12,0,0,1,.17-2,.58.58,0,0,1,.81-.42l4.75,2.19A.21.21,0,0,1,1415.72,1038.18Z"/><path class="cls-19" d="M1416,1037.36l-4.68-2.15a.6.6,0,0,1-.22-.91,9.77,9.77,0,0,1,1.21-1.32,11.77,11.77,0,0,1,1.58-1.19.57.57,0,0,1,.85.32l1.56,5A.22.22,0,0,1,1416,1037.36Z"/><path class="cls-19" d="M1416.46,1038.77l-1.45,4.94a.6.6,0,0,1-.86.36,10.08,10.08,0,0,1-1.49-1,11.43,11.43,0,0,1-1.4-1.39.57.57,0,0,1,.19-.89l4.71-2.27A.22.22,0,0,1,1416.46,1038.77Z"/><path class="cls-19" d="M1417.61,1037.24l3.16-4.07a.59.59,0,0,1,.93,0,10.36,10.36,0,0,1,1,1.48,11.19,11.19,0,0,1,.79,1.81.58.58,0,0,1-.5.76l-5.22.37A.21.21,0,0,1,1417.61,1037.24Z"/><path class="cls-19" d="M1417.79,1038l5.16.11a.59.59,0,0,1,.56.74,10.39,10.39,0,0,1-.58,1.7,11.6,11.6,0,0,1-1,1.72.58.58,0,0,1-.91,0l-3.41-4A.22.22,0,0,1,1417.79,1038Z"/><path class="cls-19" d="M1417.33,1038.72l2.78,4.34a.59.59,0,0,1-.3.88,9.78,9.78,0,0,1-1.74.46,11,11,0,0,1-2,.15.58.58,0,0,1-.55-.73l1.39-5A.22.22,0,0,1,1417.33,1038.72Z"/><polygon class="cls-6" points="1439.03 1087.39 1418.54 1087.39 1416.74 1038.84 1440.55 1038.84 1439.03 1087.39"/><path class="cls-19" d="M1423.08,1078.42l-1.42-.45,11.55-37.07a7.77,7.77,0,0,1,1-2.44,8.83,8.83,0,0,1,4.84-3.71c4.66-1.56,12.06-3.63,12.14-3.65l.4,1.43c-.07,0-7.45,2.08-12.07,3.62a7.41,7.41,0,0,0-4,3,6.42,6.42,0,0,0-.86,2v0l0,0Z"/><path class="cls-3" d="M1424.61,1076.66l1.48.13,3.51-38.67a7.89,7.89,0,0,0,0-2.65,8.9,8.9,0,0,0-3.06-5.28c-3.7-3.22-9.76-8-9.82-8l-.91,1.17c.06,0,6.08,4.78,9.76,8a7.37,7.37,0,0,1,2.55,4.34,6.31,6.31,0,0,1,0,2.19v.1Z"/><path class="cls-3" d="M1435.09,1069.91c2.94-2.31,3.87-6,1.71-9.17a7.17,7.17,0,0,0-.7-.9l-9.37,9.7A6.53,6.53,0,0,0,1435.09,1069.91Z"/><path class="cls-22" d="M1435,1069.8c2.87-2.26,3.77-5.84,1.67-9a7.85,7.85,0,0,0-.7-.89l-9.14,9.47A6.36,6.36,0,0,0,1435,1069.8Z"/><path class="cls-5" d="M1431.66,1065.28l3.22,2.92a.5.5,0,0,1-.05.79,8.3,8.3,0,0,1-1.32.76,9.08,9.08,0,0,1-1.57.55.49.49,0,0,1-.61-.47l0-4.42A.18.18,0,0,1,1431.66,1065.28Z"/><path class="cls-5" d="M1431.93,1064.16l3.46-3.58a6.16,6.16,0,0,1,.57.77,9,9,0,0,1,.8,1.46.49.49,0,0,1-.37.68l-4.37.68Z"/><path class="cls-5" d="M1432,1064.6l4.3-.67a.51.51,0,0,1,.59.54,9.52,9.52,0,0,1-.24,1.5,9.73,9.73,0,0,1-.56,1.57.49.49,0,0,1-.75.18l-3.42-2.79A.19.19,0,0,1,1432,1064.6Z"/><path class="cls-5" d="M1427.36,1068.9l3.5-3.63a.18.18,0,0,1,.1.17l-.33,4.34a.51.51,0,0,1-.65.45,9,9,0,0,1-1.41-.58A8.63,8.63,0,0,1,1427.36,1068.9Z"/><path class="cls-3" d="M1421.06,1059.79c3.11,2.1,6.88,1.85,9.27-1.17a7.71,7.71,0,0,0,.63-.94l-12.09-6A6.51,6.51,0,0,0,1421.06,1059.79Z"/><path class="cls-22" d="M1421.14,1059.68c3,2,6.72,1.81,9-1.14a7.71,7.71,0,0,0,.63-.94l-11.8-5.81A6.36,6.36,0,0,0,1421.14,1059.68Z"/><path class="cls-5" d="M1424.43,1055.1l-1.8,4a.51.51,0,0,1-.77.19,8.77,8.77,0,0,1-1.12-1,9.94,9.94,0,0,1-1-1.33.49.49,0,0,1,.27-.73l4.21-1.33A.18.18,0,0,1,1424.43,1055.1Z"/><path class="cls-5" d="M1425.58,1055l4.46,2.19a8.16,8.16,0,0,1-.55.79,9.05,9.05,0,0,1-1.15,1.2.49.49,0,0,1-.76-.14l-2-4A.15.15,0,0,1,1425.58,1055Z"/><path class="cls-5" d="M1425.18,1055.25l2,3.89a.51.51,0,0,1-.33.72,9.71,9.71,0,0,1-1.51.23,9.26,9.26,0,0,1-1.66,0,.49.49,0,0,1-.4-.66l1.61-4.12A.18.18,0,0,1,1425.18,1055.25Z"/><path class="cls-5" d="M1419.67,1052.12l4.53,2.23a.18.18,0,0,1-.14.14l-4.23,1a.5.5,0,0,1-.62-.48,8,8,0,0,1,.11-1.52A10.54,10.54,0,0,1,1419.67,1052.12Z"/><path class="cls-11" d="M1429.58,1078.39a12.25,12.25,0,0,0,1.78-.82,3.67,3.67,0,0,1,1.5-.7c.37,0,3.32-.85,3.53-.34l-2,1.41S1430.12,1078.68,1429.58,1078.39Z"/><path class="cls-12" d="M1434.29,1077.84s1.87-1.55,2.1-1.31.48,1.83.74,2.33a.83.83,0,0,1-.3,1.22c-.48.38-1.83,1.55-1.83,1.55Z"/><path class="cls-13" d="M1429.58,1078.39s1.62-.07,2.79-.23,1.84-.53,2-.22.58,2.57.78,3.09-.21.79-1.44.87-3.16.6-3.22,0S1429.16,1078.41,1429.58,1078.39Z"/><path class="cls-1" d="M1431.84,1078.58s-1.59.07-1.93.1.24,1.19.33,1.52c0,0,.14,0,.13-.14s-.25-.79-.06-.9a1.68,1.68,0,0,1,.79-.39C1431.38,1078.78,1432,1078.68,1431.84,1078.58Z"/><path class="cls-1" d="M1433.18,1081.73s.66-.13,1.08-.16.7-.23.63-.43-.49-2-.56-2.24-.41.17-.39.44-.35.84-.41,1.31-.66.92-.63,1S1433.18,1081.73,1433.18,1081.73Z"/><path class="cls-14" d="M1435.52,1077.18a2.06,2.06,0,0,1-.55.48c-.29.15-.37.16-.31.35s.29.89.31,1,.16.12.19,0a3.9,3.9,0,0,1,.09-.7,2.27,2.27,0,0,1,.33-.88C1435.77,1077.29,1435.76,1077,1435.52,1077.18Z"/><path class="cls-11" d="M1420.51,1076.38a12.85,12.85,0,0,0,1.94.32,3.62,3.62,0,0,1,1.62.26c.32.19,3.24,1.14,3.13,1.69l-2.44.06S1420.79,1076.92,1420.51,1076.38Z"/><path class="cls-12" d="M1424.72,1078.56s2.42-.24,2.48.09-.62,1.78-.69,2.35-.33.8-.93.84-2.39.26-2.39.26Z"/><path class="cls-13" d="M1420.51,1076.38s1.38.85,2.44,1.37,1.82.58,1.81,1-1,2.46-1.07,3-.62.53-1.69-.08-3-1.28-2.69-1.76S1420.15,1076.16,1420.51,1076.38Z"/><path class="cls-1" d="M1422.27,1077.8s-1.35-.83-1.65-1-.47,1.12-.58,1.44c0,0,.1.11.19,0s.23-.79.46-.78a1.64,1.64,0,0,1,.86.12C1421.79,1077.71,1422.34,1078,1422.27,1077.8Z"/><path class="cls-1" d="M1421.63,1081.16a9.29,9.29,0,0,1,1,.48c.36.21.71.2.77,0s.69-1.91.78-2.17-.43-.09-.56.15-.77.5-1.08.85-1.06.4-1.11.52S1421.63,1081.16,1421.63,1081.16Z"/><path class="cls-14" d="M1426.12,1078.7a2.07,2.07,0,0,1-.73.09c-.33,0-.4-.08-.46.11s-.25.91-.3,1,.07.19.14.11a5.62,5.62,0,0,1,.47-.53c.2-.16.52-.51.77-.54S1426.39,1078.71,1426.12,1078.7Z"/><path class="cls-11" d="M1424.53,1066.2a13.27,13.27,0,0,0,1.88.54,3.63,3.63,0,0,1,1.59.45c.29.23,3.07,1.52,2.9,2l-2.42-.23S1424.74,1066.77,1424.53,1066.2Z"/><path class="cls-12" d="M1428.45,1068.85s2.43.05,2.45.39-.83,1.69-1,2.24a.84.84,0,0,1-1,.73c-.6,0-2.39,0-2.39,0Z"/><path class="cls-13" d="M1424.53,1066.2s1.27,1,2.26,1.64,1.74.8,1.69,1.17-1.24,2.33-1.43,2.85-.67.46-1.66-.28-2.78-1.61-2.47-2.07S1424.19,1065.94,1424.53,1066.2Z"/><path class="cls-1" d="M1426.11,1067.82s-1.25-1-1.52-1.19-.6,1.06-.74,1.37c0,0,.07.12.19,0s.32-.76.54-.72.63,0,.84.22S1426.16,1068,1426.11,1067.82Z"/><path class="cls-1" d="M1425.08,1071.08a10.66,10.66,0,0,1,.91.58c.34.26.68.29.77.09s.91-1.82,1-2.07-.42-.14-.58.09-.81.4-1.17.72-1.1.27-1.16.38S1425.08,1071.08,1425.08,1071.08Z"/><path class="cls-14" d="M1429.82,1069.16a2.17,2.17,0,0,1-.73,0c-.32-.08-.39-.13-.47,0s-.36.87-.42,1,0,.2.13.14a3.91,3.91,0,0,1,.53-.48c.21-.14.58-.45.83-.45S1430.09,1069.21,1429.82,1069.16Z"/><path class="cls-5" d="M1428,1065.8c-1.39,1.44-3.69.09-4.55-.06a6.26,6.26,0,0,1-2.16-1.36,12.29,12.29,0,0,1,4.55-.66,2.4,2.4,0,0,1,2.16,2.08Z"/><path class="cls-3" d="M1428,1065.8s-1.36-1.84-6.71-1.42a12.29,12.29,0,0,1,4.55-.66A2.4,2.4,0,0,1,1428,1065.8Z"/><path class="cls-5" d="M1437.28,1054.82c1,3.68-3.47,6.07-4.56,7.31s-4.34,2.16-4.34,2.16,1.08-5,3.41-8a4.55,4.55,0,0,1,5.49-1.46Z"/><path class="cls-3" d="M1437.28,1054.82c-.07,0-4.32.39-8.9,9.47,0,0,1.08-5,3.41-8A4.55,4.55,0,0,1,1437.28,1054.82Z"/><path class="cls-5" d="M1430.74,1081.28c-1.32,1.15-3.21-.18-4-.38a5.5,5.5,0,0,1-1.78-1.34,10.8,10.8,0,0,1,4-.24,2.11,2.11,0,0,1,1.73,2Z"/><path class="cls-3" d="M1430.74,1081.27s-1-1.69-5.73-1.71a10.8,10.8,0,0,1,4-.24A2.11,2.11,0,0,1,1430.74,1081.27Z"/><path class="cls-11" d="M1425.65,1076.17a12.25,12.25,0,0,0,1.78-.82,3.69,3.69,0,0,1,1.49-.7c.38,0,3.33-.85,3.54-.34l-2,1.41S1426.18,1076.46,1425.65,1076.17Z"/><path class="cls-12" d="M1430.35,1075.62s1.88-1.55,2.11-1.31.48,1.82.74,2.33a.84.84,0,0,1-.3,1.22c-.48.37-1.83,1.55-1.83,1.55Z"/><path class="cls-13" d="M1425.65,1076.17s1.62-.07,2.78-.23,1.85-.53,2-.22.59,2.57.79,3.09-.22.79-1.44.87-3.16.6-3.22,0S1425.22,1076.19,1425.65,1076.17Z"/><path class="cls-1" d="M1427.9,1076.36s-1.58.07-1.92.1.23,1.19.33,1.51c0,0,.14,0,.13-.14s-.25-.78-.06-.89.49-.39.78-.39S1428.05,1076.46,1427.9,1076.36Z"/><path class="cls-1" d="M1429.25,1079.51s.66-.13,1.08-.16.7-.23.63-.43-.5-2-.56-2.24-.41.17-.39.44-.35.84-.41,1.31-.66.92-.64,1S1429.25,1079.51,1429.25,1079.51Z"/><path class="cls-14" d="M1431.59,1075a2.06,2.06,0,0,1-.55.48c-.29.15-.38.16-.32.35s.3.89.32,1,.16.12.18,0a7,7,0,0,1,.09-.7c.08-.24.15-.72.34-.88S1431.83,1074.81,1431.59,1075Z"/><path class="cls-5" d="M1433.26,1074.67c-.11,1.74-2.39,2.15-3,2.54a5.61,5.61,0,0,1-2.21.32,10.82,10.82,0,0,1,2.64-3,2.09,2.09,0,0,1,2.61.15Z"/><path class="cls-3" d="M1433.26,1074.67s-2-.45-5.25,2.86a10.82,10.82,0,0,1,2.64-3A2.09,2.09,0,0,1,1433.26,1074.67Z"/><path class="cls-3" d="M1421.38,1073.8c2.88,2.4,6.66,2.53,9.33-.24a7.32,7.32,0,0,0,.73-.87l-11.44-7.14A6.52,6.52,0,0,0,1421.38,1073.8Z"/><path class="cls-22" d="M1421.47,1073.7c2.81,2.34,6.5,2.47,9.11-.23a7.22,7.22,0,0,0,.72-.87l-11.17-7A6.38,6.38,0,0,0,1421.47,1073.7Z"/><path class="cls-5" d="M1425.2,1069.47l-2.19,3.77a.5.5,0,0,1-.78.11,8.58,8.58,0,0,1-1-1.13,10.13,10.13,0,0,1-.87-1.42.49.49,0,0,1,.34-.69l4.32-.9A.18.18,0,0,1,1425.2,1069.47Z"/><path class="cls-5" d="M1426.35,1069.51l4.22,2.64a7.91,7.91,0,0,1-.63.72,9.47,9.47,0,0,1-1.27,1.09.48.48,0,0,1-.73-.23l-1.58-4.13A.28.28,0,0,1,1426.35,1069.51Z"/><path class="cls-5" d="M1425.93,1069.69l1.56,4.07a.51.51,0,0,1-.4.68,8.54,8.54,0,0,1-1.52.08,9.73,9.73,0,0,1-1.66-.22.47.47,0,0,1-.32-.69l2-3.94A.18.18,0,0,1,1425.93,1069.69Z"/><path class="cls-5" d="M1420.76,1066l4.28,2.68a.17.17,0,0,1-.15.12l-4.31.59a.5.5,0,0,1-.57-.54,7.86,7.86,0,0,1,.27-1.5A9,9,0,0,1,1420.76,1066Z"/><path class="cls-39" d="M1447.79,1062.21s-8.25-6.43-16-4.9-11.63,6.88-11.32,9.33,4.43,9.33,10.4,9.94,22.94-3.67,22.94-3.67Z"/><path class="cls-43" d="M1464.38,928.7s31.8,2,42.81,17.32c15.5,21.61,42.42,109.86,35.08,130,0,0-26.48,5.5-50,4.07-12.12-.73-46.76-4.48-46.76-4.48s-2.34-11,.92-16.26,56.28-13.87,58.73-16.31-30.59-47.72-30.59-55.06S1464.38,928.7,1464.38,928.7Z"/><path class="cls-11" d="M2141.14,1364.25s35.94-6,45.16-9.29c9.39-3.39,41.71-4.78,50.53-3.82s69.14.36,72.33,13.1l-53.63,6.21S2152.58,1372.94,2141.14,1364.25Z"/><path class="cls-12" d="M2314.4,1451.51c-.83,3-2,5.4-3.52,6.86h-54.25l-1.63-40.66-.34-8.41-.08-1.94-1.48-36.85-.11-2.76h0c.51-.11,18-3.49,33.34-5,11-1.09,20.94-1.23,22.82,1.49,4.48,6.47,7.05,23.24,6.9,36.59v.64c-.08,4,.08,9,.22,14.52.07,3,.14,6.09.18,9.21C2316.55,1434.91,2316.25,1444.78,2314.4,1451.51Z"/><path class="cls-45" d="M2257.83,1458.37h-96.14c-6.71-1.33-10.88-3.61-10.73-7.56.51-13.08-19.93-87.54-9.82-86.56,0,0,38,4,65.85,4.25,23.64.19,39.54-4.31,46-.75h0a5.67,5.67,0,0,1,2.53,2.7c1.81,4,3,19.67,4.13,35.89.07,1,.13,2.07.2,3.1.32,4.63.63,9.24.94,13.59.72,9.83,1.47,18.28,2.42,22.44C2264.58,1451.51,2263.57,1458.37,2257.83,1458.37Z"/><path class="cls-1" d="M2193.14,1376.62s-37.34-4-45.36-4.48,1.38,28.75,2.42,36.66c0,0,3.19,1.51,3.59-2.81s-3.15-19.19,1.69-21.23,12.9-7.37,19.67-6.27S2196.32,1379.33,2193.14,1376.62Z"/><path class="cls-1" d="M2213.74,1454.82s15.91-.79,25.76.11,17.12-2.93,16.36-8-4.85-47.83-5.53-54.23-10.14,2.48-10.49,8.94-11.14,18.5-14.29,29.26-18.56,19.25-18.35,22.32S2213.74,1454.82,2213.74,1454.82Z"/><path class="cls-14" d="M2284.25,1371.36s-7.27,6.91-14.57,9.45-9.37,2.42-8.55,7,3.76,21.9,3.94,24.72,3.32,3.39,4.19,1,2-10.89,4.56-16.24,5.92-16.17,10.86-19.3S2290.26,1368.9,2284.25,1371.36Z"/><path class="cls-5" d="M2366.74,1458.37a42.77,42.77,0,0,0,7-3,44.81,44.81,0,0,0,8.14-5.7v0c0-.08,0-.36,0-.81,0-.18,0-.4,0-.63v-.1c0-.21-.05-.43-.08-.68s0-.42-.07-.65-.06-.49-.09-.75c-.07-.48-.15-1-.24-1.54,0-.19-.07-.38-.1-.57l-.15-.78c0-.23-.09-.46-.15-.71s-.1-.49-.16-.74c-.12-.56-.25-1.13-.4-1.71s-.25-.93-.4-1.42a52.54,52.54,0,0,0-3-8.12,46.21,46.21,0,0,0-2.6-4.8c-.14-.24-.28-.46-.43-.69-.34-.55-.7-1.1-1.09-1.64-.54-.78-1.12-1.57-1.74-2.34-.25-.33-.51-.64-.78-1s-.38-.46-.58-.68-.39-.46-.6-.69-.27-.3-.42-.44-.35-.38-.52-.56-.56-.58-.85-.86-.69-.67-1-1-.75-.68-1.14-1-.78-.67-1.19-1-.74-.59-1.13-.88a2.1,2.1,0,0,0-.3-.22c-.32-.25-.65-.48-1-.71l-.31-.22c-.36-.25-.73-.5-1.1-.73a.55.55,0,0,0-.14-.09c-.34-.23-.69-.46-1-.67a50.67,50.67,0,0,0-4.92-2.63,58.86,58.86,0,0,0-13-4.2c-.56-.12-1.14-.23-1.72-.33s-1.15-.22-1.73-.32l-1.6-.26-2.18-.32-1.5-.2-1.18-.14c-.26,0-.53-.07-.8-.09-1.16-.13-2.33-.25-3.49-.35l-1.73-.13c-1.27-.1-2.55-.18-3.83-.24-.55,0-1.09-.06-1.64-.07l-3.6-.12c-1.24,0-2.49,0-3.74,0-1,0-2,0-2.94,0h-.18l-2.51.05-.59,0-2.46.09c-1.24,0-2.48.11-3.7.17l-2.56.16-.48,0-2.12.16-2.63.21-1.23.11-2.22.21-2.32.24-1.8.2c-1.73.2-3.44.41-5.1.63l-1.88.25-3.32.47-2.81.43-2.88.47-.93.15-.7.12-1.12.19-1.75.32c-1.56.28-3,.56-4.43.83l-1.07.2-.92.19-1.73.35-.64.13-.72.15-2.73.6q-1.91.42-3.15.72l-.68.16-1.1.27-.23.06-.12,0s2.31,2.53,6,6.17l2.42,2.34c1.74,1.66,3.7,3.47,5.8,5.32,8.42,7.43,19.13,15.52,27.93,17.84,5.91,1.55,15,6.23,25.67,10.64a140.24,140.24,0,0,0,20.24,6.86Z"/><path class="cls-3" d="M2381.91,1449.63c-.39-.65-24.83-40.09-135.34-40.43,0,0,54.32-14,94.5-5.8C2380.69,1411.54,2381.89,1448.61,2381.91,1449.63Z"/><path class="cls-11" d="M2322.83,1306.71s33,16.4,42.72,17.81,29.75,8.65,36,15,68,44.2,62.5,56.11l-56.23-12S2326.25,1320.67,2322.83,1306.71Z"/><path class="cls-12" d="M2464,1395.58c-.6,8-24,37.56-28.74,50.17-2.29,6.13-5.16,10.27-9.13,12.62H2398c-7.4-1-16.29-2.09-24.2-3-6.22-.74-11.84-1.37-15.66-1.81h0L2353,1453h0l13.14-17.63,7.77-10.42,32-42.89,1.65-2.21h0C2408.34,1380,2464.62,1387.67,2464,1395.58Z"/><path class="cls-13" d="M2322.83,1306.71s27,27.06,48.49,44.75,38.72,23.58,36.49,32.07-35.42,51.32-41.25,63.14-17.16,8.85-38.29-11.12-60.93-45.56-52.3-55.4S2315.59,1299.59,2322.83,1306.71Z"/><path class="cls-1" d="M2355.45,1349.05s-26.51-26.59-32.43-32-17,23.21-21.2,30c0,0,1.53,3.18,4.56.08s9.63-16.9,14.68-15.43,14.67,2.39,19.23,7.51S2356.21,1353.16,2355.45,1349.05Z"/><path class="cls-1" d="M2322.23,1422.79s12.86,9.4,19.94,16.29,15.15,8.5,17.78,4.07,26.33-40.22,29.83-45.62-9.43-4.46-13.77.34-20.3,7.36-29.53,13.74-26.53,3.28-28.31,5.79S2322.23,1422.79,2322.23,1422.79Z"/><path class="cls-14" d="M2438.93,1390.74s-10,.8-17.27-1.83-8.8-4-11,.06-10.86,19.38-12.49,21.69.44,4.72,2.61,3.42,8.45-7.18,13.77-9.75,14.78-8.84,20.59-8.16S2445.16,1392.62,2438.93,1390.74Z"/></svg>