<svg xmlns="http://www.w3.org/2000/svg" viewBox="0 0 750 500"><defs><style>.cls-1{fill:#fff;}.cls-2{fill:#ffbf73;}.cls-3{fill:#41a392;}.cls-4{fill:#f47471;}.cls-5{fill:#173449;}.cls-6{fill:#fcc0b4;}.cls-7{fill:#576087;}.cls-8{fill:#71789e;}.cls-9{fill:#dd7f31;}.cls-10{fill:#006a7c;}.cls-11{fill:#dd998e;}.cls-12{fill:#ba74ad;}.cls-13{fill:#46b2cc;}.cls-14{fill:#f9a885;}.cls-15{fill:#d37f92;}.cls-16{fill:#fce1be;}.cls-17{fill:#ff9385;}</style></defs><g id="BACKGROUND"><rect class="cls-1" width="750" height="500"/></g><g id="OBJECTS"><path class="cls-2" d="M133.57,137.59a39,39,0,0,1,13.51,9.59c3.78,4.18,8.12,10.35,6.8,16.31a7.38,7.38,0,0,1-4.75,5.31,4.77,4.77,0,0,1-5.9-1.82c-2.84-4.74,1.73-10.29,5.86-12.26a15.6,15.6,0,0,1,14.54.76,20.36,20.36,0,0,1,8.9,12.53c1.37,5.41.71,11.56-2.56,16.2-.85,1.21-2.33,3.25-4,2a6.6,6.6,0,0,1-2-3.89,9.94,9.94,0,0,1,2-8.31,10.07,10.07,0,0,1,8.08-3.49,11.28,11.28,0,0,1,7.49,3.81c4.2,4.48,6.23,10.83,8.58,16.37.35.83,1.56.12,1.21-.7-2.53-5.95-4.73-12.94-9.61-17.46-4.42-4.08-11.09-4.65-15.73-.54a11.08,11.08,0,0,0-3.6,8c-.07,2.57.82,6.63,3.48,7.79s5-2.15,6.15-4.17a20.58,20.58,0,0,0,2.59-9.6c.35-12.11-9.67-24.56-22.61-21.75-5.42,1.17-10.61,5.39-10.9,11.27a6.67,6.67,0,0,0,3.17,6.31,7.08,7.08,0,0,0,7-.51c6.88-4.15,4.09-13,.51-18.46a39.71,39.71,0,0,0-17.45-14.51c-.82-.35-1.53.86-.7,1.21Z"/><path class="cls-2" d="M340.37,101.86A36.25,36.25,0,0,0,355,70a.71.71,0,0,0-1-.61C350,71.42,346,74.43,345,79c-.87,3.87.61,8,4.45,9.6s8.12.28,11.5-1.48a36.81,36.81,0,0,0,10.74-8.81c2.84-3.34,5.61-7.43,6.87-11.67.71-2.4.39-7.41-3.33-6.66-1.87.37-3.14,2.29-4.08,3.8a19.13,19.13,0,0,0-2.45,6.06c-.81,3.85-.29,8,2.42,11,3.16,3.51,8.36,4.2,12.76,3.17,5.47-1.28,9.88-5.19,14-8.81.67-.6-.32-1.59-1-1-5.62,5-12.92,11-21,8.15-7.82-2.82-7.1-12.44-3.32-18.25.77-1.17,2.95-4.2,4.41-2.2.81,1.1.61,2.94.27,4.16-1,3.54-3.28,7.06-5.51,9.93a38.08,38.08,0,0,1-8.29,7.89c-2.94,2-6.28,3.78-9.92,3.92-4.32.18-7.72-2.75-7.37-7.25.38-4.82,4.52-7.93,8.48-10l-1.06-.6a34.86,34.86,0,0,1-13.9,30.68c-.72.52,0,1.74.71,1.2Z"/><path class="cls-2" d="M552.17,194.58a48,48,0,0,1-14.54-32.2c-.11-2.57-.26-5.67,1.22-7.92,2.13-3.22,5.68-1,7.69,1.07s4.68,5.07,4.45,8.19c-.21,2.82-2.81,4.3-5.28,4.87-5.26,1.23-11.49-.49-16.18-2.89A22.41,22.41,0,0,1,518.16,153a20,20,0,0,1-.91-8.23,16.84,16.84,0,0,1,1-4.21c.55-1.48,1.15-3.48,3.08-3.07,2.8.59,4.56,3.66,5.11,6.24a11.7,11.7,0,0,1-.95,7.52c-2.87,5.88-10.29,7.64-16.17,5.75-6.36-2-10.55-8.1-12.14-14.34a.7.7,0,0,0-1.35.37c1.62,6.36,5.75,12.36,12,14.9,5.75,2.34,13.26,1.34,17.36-3.62,3.63-4.39,4.05-11.47.18-15.85-1.41-1.6-5.31-3.94-6.93-1.4a18,18,0,0,0-2.64,9.36c-.21,14.12,13.55,24.13,26.89,23.95a12.09,12.09,0,0,0,7.49-2.29,6.36,6.36,0,0,0,1.6-7.66c-1.83-4.28-9.39-13.17-13.89-6.93-2,2.74-1.76,6.63-1.56,9.81a48.82,48.82,0,0,0,2.28,12,49.44,49.44,0,0,0,12.62,20.26c.65.62,1.64-.37,1-1Z"/><path class="cls-3" d="M246.86,42.82c-1.24,2.93-2.6,5.81-4.12,8.63C236,64,225.57,75.4,212.18,81c-15.27,6.34-31.47,2.46-47.13.11-7.76-1.17-15.66-2-23.48-.89a40.43,40.43,0,0,0-18.2,7.3,44.5,44.5,0,0,0-12.27,13.56,52,52,0,0,0-20.91,3.77c-24.08,9.5-41.23,34.28-42,60.11a59.05,59.05,0,0,0,.48,9.4c.11.89,1.51.9,1.39,0-3.24-25.14,10.31-51,31.91-63.91,8.18-4.88,18.54-8.48,28.46-8.1a37,37,0,0,0-4.54,16.89c-.09,6.23,1.44,13.77,6.28,18.1,4,3.61,9.88,3.8,14.71,1.78a16,16,0,0,0,9.91-12.19c1-6.34-1.65-12.73-5.9-17.37-4.86-5.31-11.35-7.79-18.21-8.38A42.61,42.61,0,0,1,125,88a39.45,39.45,0,0,1,18.16-6.64c7.82-.85,15.7.12,23.43,1.33,14.54,2.3,29.66,5.55,44,.35,12.45-4.52,22.58-14,29.78-24.94A90.86,90.86,0,0,0,248.1,43.5C247.67,43.29,247.26,43.06,246.86,42.82Zm-124,62.46a22.76,22.76,0,0,1,12.28,15c1.38,6-.52,12.11-5.6,15.71-4.34,3.07-10.57,4.26-15.23,1.2-5.54-3.65-7.12-11.83-7-18a35.81,35.81,0,0,1,4.66-16.8A30.69,30.69,0,0,1,122.85,105.28Z"/><path class="cls-3" d="M449.11,42.33a191.8,191.8,0,0,0-42.8,55.75,143.61,143.61,0,0,0-7.25,16.23c-1.92,5.32-3.16,11.42-.9,16.85,1.72,4.12,5.31,7.79,9.94,8.26,4.41.46,8.82-2,11.4-5.5,4.62-6.21,4.14-15.56,0-21.86-5-7.62-15-9.43-23.35-7-9.73,2.84-16.64,10.65-19.46,20.23-3.11,10.56-1.57,22,2.43,32.14,8.51,21.53,27.25,36.79,47.23,47.29a313.26,313.26,0,0,0,34.4,15c12.09,4.59,24.95,8.65,38,7.75A40.1,40.1,0,0,0,526,214.61a30.35,30.35,0,0,0,6.86-12.18c1.17-4.32,1.59-10.1-.7-14.14-2.15-3.78-6.92-4.44-10.69-2.87-4.53,1.88-6.59,6.54-6.77,11.22-.38,9.81,5.59,19.38,12.63,25.73,16.07,14.49,39.37,17.11,59.93,13.5,24-4.22,45.89-16.53,66.13-29.6,5-3.23,9.92-6.54,14.83-9.88.74-.5,0-1.71-.71-1.2-18.71,12.72-37.93,25.39-59.23,33.37-19.66,7.37-42.24,10.68-62.4,3.21-8.83-3.28-17.21-8.63-22.94-16.21a35.44,35.44,0,0,1-6-12.13c-1.27-4.77-1.57-11,2.19-14.81,3-3.06,9.18-4,11.71.18s1.71,10.14.34,14.4c-2.87,8.92-10.5,15.87-18.89,19.62-10.66,4.77-22.91,3.86-34,1.13-11.69-2.89-23-7.63-34-12.34C424,203,403.76,191.88,390.11,174a66.69,66.69,0,0,1-12.83-27.67c-1.92-10.15-.86-21.42,5.24-30,5.26-7.43,15-12.05,24.07-10.61a17.24,17.24,0,0,1,10.7,5.8,18.56,18.56,0,0,1,4,10.66,17,17,0,0,1-2.66,10.59c-2.52,3.7-7.43,6.34-11.92,5-4.73-1.36-7.79-6.34-8.29-11-.67-6.26,1.92-12.36,4.37-18a190.31,190.31,0,0,1,35.89-54.31q5.46-5.79,11.39-11.11c.67-.6-.32-1.59-1-1Z"/><path class="cls-3" d="M512.5,38.92c8.35-4.64,18.2-.69,25.55,4.08,7.66,5,16.22,12.16,17.18,21.86.45,4.58-1,9.33-4.81,12.11-3.23,2.34-7.7,3.09-11.14.74S534.52,71,535,67.16c.53-4.35,3.45-8.11,6.85-10.69,6.47-4.91,15.09-6.37,22.95-4.77a30.78,30.78,0,0,1,11,4.53,31.63,31.63,0,0,1,8.68,9.17c2.45,3.72,4.62,7.68,7.7,10.95A22.35,22.35,0,0,0,601,82.09a26.62,26.62,0,0,0,20.61-1.43c13.76-7,16.59-25.59,8.36-37.88a25.91,25.91,0,0,0-3.53-4.22c-.65-.62-1.64.37-1,1a26.59,26.59,0,0,1,7.5,22.71,22.6,22.6,0,0,1-14.22,18.15c-7.22,2.78-15.91,2.26-22.34-2.23C588.71,72.85,586.18,62.94,579.1,57A32.15,32.15,0,0,0,557,49.72c-8,.41-16.55,4-21,11a14.35,14.35,0,0,0-2.08,11.21,11.26,11.26,0,0,0,6.63,8,11.49,11.49,0,0,0,10.74-1.87,13.81,13.81,0,0,0,5.41-10.47c.58-9.81-6.65-17.37-13.86-22.91-7-5.34-16-10.37-25.05-9a17.5,17.5,0,0,0-6,2.07c-.78.43-.08,1.64.71,1.2Z"/><path class="cls-4" d="M189.37,38.76c6.59,20.43,23.9,36.95,43.52,45.07,9.93,4.11,22.58,5.07,30.46-3.64,3.09-3.41,4.91-8.25,3.65-12.82a7.93,7.93,0,0,0-9.89-5.76c-11.37,3-9.05,17.81-5.81,26,3.66,9.2,10.85,17.64,20.62,20.47,8.55,2.48,18.78.41,25-6.17,2.9-3.06,4.74-6.9,4.28-11.18-.35-3.35-2.26-6.88-6-7-4.82-.17-7.42,5.08-8,9.14a24.13,24.13,0,0,0,2.77,14.58c5.39,10.52,15.37,18.07,24.09,25.69l7.78,6.81c.68.59,1.67-.39,1-1l-13.88-12.14a123.17,123.17,0,0,1-11-10.53c-6-6.75-12.13-16.6-8.66-26,.78-2.11,2.28-4.35,4.55-5a4.26,4.26,0,0,1,4.66,1.62c2.1,2.84,1.81,7.35.2,10.34-4.06,7.53-13.16,11-21.37,10.39-9.19-.66-16.92-6.76-21.61-14.42a40.1,40.1,0,0,1-5-12.7c-1-4.87-1.32-11.08,2.45-14.92,3.09-3.17,8.8-4.24,11.58-.09s1.13,9.5-1.65,13c-6.7,8.4-18.37,8.22-27.61,4.85a78.6,78.6,0,0,1-25.28-15.73A70.42,70.42,0,0,1,193.26,45a59.58,59.58,0,0,1-2.54-6.58c-.27-.85-1.63-.49-1.35.37Z"/><path class="cls-4" d="M432.68,38.57a118.6,118.6,0,0,0,10.09,37.26C447.61,86.42,454,97.69,464,104.19c8.38,5.44,20.43,6.77,28.58.1,4-3.27,6.76-8.77,5.44-14-1.15-4.59-5.83-8.38-10.67-7.34-4.52,1-7.25,5.68-7.54,10-.38,5.59,3.28,10.62,7,14.39,8.08,8.14,19.28,15,31.15,14.38,9.73-.52,19.91-7.44,21.84-17.39.78-4,.24-10.66-5.28-10.39s-7.26,6.19-6.49,10.84c1.81,10.86,9.79,20.37,18.43,26.68,10.23,7.49,22.68,11.22,35,13.31,3.14.53,6.3,1,9.47,1.33.89.1.89-1.3,0-1.4-21.22-2.49-44.69-8.73-56.69-28.1-2.57-4.15-5.05-9.33-5.1-14.31,0-2.64.95-5.3,3.48-6.46a3.92,3.92,0,0,1,5.76,2.64c1.21,4.46-.76,9.57-3.51,13.06a23.63,23.63,0,0,1-11.5,7.8c-10.19,3.16-21-1.28-29.13-7.35-4.27-3.18-8.65-7-11.25-11.73-2.37-4.29-2.71-9.66.66-13.54s9.3-2.85,11.94,1.52c2.86,4.74.54,10.74-3.2,14.25-7.11,6.67-18.51,5.9-26.45,1.26-9.19-5.37-15.16-14.93-19.88-24.18a116.19,116.19,0,0,1-10.86-32.33c-.51-2.89-.92-5.79-1.21-8.71-.09-.88-1.49-.89-1.4,0Z"/><path class="cls-4" d="M203.75,137v-1.31a2,2,0,0,0-.24-1.08,2.09,2.09,0,0,0-.58-.9,2.15,2.15,0,0,0-.9-.58,2.2,2.2,0,0,0-1.08-.24l-.74.1a3,3,0,0,0-1.23.72l-.44.57a2.79,2.79,0,0,0-.38,1.41V137a2,2,0,0,0,.24,1.08,2,2,0,0,0,.58.9,2.06,2.06,0,0,0,.9.58,2,2,0,0,0,1.07.24l.75-.1a2.75,2.75,0,0,0,1.23-.72l.44-.56a2.82,2.82,0,0,0,.38-1.42Z"/><path class="cls-4" d="M204.9,234.33c3.59,0,3.6-5.59,0-5.59s-3.61,5.59,0,5.59Z"/><path class="cls-4" d="M338.7,193.44v1.32a2.25,2.25,0,0,0,.24,1.08,2.29,2.29,0,0,0,.58.9,2.16,2.16,0,0,0,.9.57,2.12,2.12,0,0,0,1.08.25l.74-.1a2.92,2.92,0,0,0,1.24-.72l.44-.57a2.81,2.81,0,0,0,.38-1.41v-1.32a2.18,2.18,0,0,0-.24-1.07,2.15,2.15,0,0,0-.58-.9,2.09,2.09,0,0,0-.9-.58,2,2,0,0,0-1.08-.24l-.74.1a2.73,2.73,0,0,0-1.24.72l-.44.56a2.81,2.81,0,0,0-.38,1.41Z"/><path class="cls-4" d="M110.32,57c3.6,0,3.61-5.59,0-5.59s-3.6,5.59,0,5.59Z"/><path class="cls-4" d="M311.29,78c3.6,0,3.61-5.6,0-5.6s-3.61,5.6,0,5.6Z"/><path class="cls-4" d="M524.08,360.43c3.6,0,3.6-5.59,0-5.59s-3.61,5.59,0,5.59Z"/><path class="cls-4" d="M346.75,390.64c3.6,0,3.61-5.59,0-5.59s-3.6,5.59,0,5.59Z"/><path class="cls-4" d="M358.58,332.85c3.6,0,3.6-5.6,0-5.6s-3.61,5.6,0,5.6Z"/><path class="cls-4" d="M592.38,177.85c3.6,0,3.61-5.59,0-5.59s-3.61,5.59,0,5.59Z"/><path class="cls-4" d="M609.46,104.3c3.6,0,3.6-5.6,0-5.6s-3.61,5.6,0,5.6Z"/><path class="cls-4" d="M218,332.85c3.6,0,3.61-5.6,0-5.6s-3.61,5.6,0,5.6Z"/><path class="cls-4" d="M67,353.86c3.6,0,3.6-5.59,0-5.59s-3.61,5.59,0,5.59Z"/><path class="cls-2" d="M174.51,97.56v1.31a2.2,2.2,0,0,0,.24,1.08,2.15,2.15,0,0,0,.58.9,2.18,2.18,0,0,0,.9.58,2.25,2.25,0,0,0,1.08.24l.74-.1a2.73,2.73,0,0,0,1.24-.72l.44-.57a2.76,2.76,0,0,0,.38-1.41V97.56a2.2,2.2,0,0,0-.24-1.08,2.15,2.15,0,0,0-.58-.9,2.06,2.06,0,0,0-.9-.58,2.2,2.2,0,0,0-1.08-.24l-.74.1a2.73,2.73,0,0,0-1.24.72l-.43.57a2.77,2.77,0,0,0-.39,1.41Z"/><path class="cls-2" d="M348.07,154.21c3.6,0,3.6-5.59,0-5.59s-3.61,5.59,0,5.59Z"/><path class="cls-2" d="M294.21,167.34c3.6,0,3.61-5.59,0-5.59s-3.6,5.59,0,5.59Z"/><path class="cls-2" d="M458.4,112.18c3.6,0,3.61-5.6,0-5.6s-3.6,5.6,0,5.6Z"/><path class="cls-2" d="M479.42,42.56c3.6,0,3.6-5.59,0-5.59s-3.61,5.59,0,5.59Z"/><path class="cls-2" d="M571.36,150.27c3.6,0,3.61-5.6,0-5.6s-3.6,5.6,0,5.6Z"/><path class="cls-2" d="M489.93,328.91c3.6,0,3.6-5.6,0-5.6s-3.61,5.6,0,5.6Z"/><path class="cls-2" d="M514.88,423.48c3.6,0,3.61-5.6,0-5.6s-3.6,5.6,0,5.6Z"/><path class="cls-2" d="M659.37,315.77c3.6,0,3.61-5.59,0-5.59s-3.61,5.59,0,5.59Z"/><path class="cls-2" d="M660.68,246.16c3.6,0,3.61-5.6,0-5.6s-3.6,5.6,0,5.6Z"/><path class="cls-2" d="M656.74,149c3.6,0,3.61-5.6,0-5.6s-3.6,5.6,0,5.6Z"/><path class="cls-2" d="M320.48,346c3.6,0,3.61-5.59,0-5.59s-3.6,5.59,0,5.59Z"/><path class="cls-2" d="M386.16,374.88c3.6,0,3.61-5.6,0-5.6s-3.61,5.6,0,5.6Z"/><path class="cls-2" d="M136.59,192.3c3.6,0,3.61-5.59,0-5.59s-3.6,5.59,0,5.59Z"/><path class="cls-2" d="M97.19,384.07c3.6,0,3.6-5.59,0-5.59s-3.61,5.59,0,5.59Z"/><path class="cls-5" d="M155.38,218.87c-6.52,2.61-12.89,6.19-19.91,6.5-3.7.16-7.36-.61-11-1.14a88.64,88.64,0,0,0-63.3,15.21c-7.23,5.12-13.93,11.75-16.5,20.24-2.95,9.74,0,20.38,4.85,29.36,2.74,5.12,6.33,10.14,11.59,12.59a17,17,0,0,0,20-4.74c1.62-2.05,2.73-4.46,4.32-6.54s3.85-3.89,6.47-3.94c4.44-.09,7.24,4.51,10.09,7.92,5.2,6.23,14.24,9.75,21.74,6.66,10.36-4.28,13.26-18.16,22.66-24.27,3.41-2.22,7.44-3.24,11.35-4.4s7.89-2.55,10.87-5.33,4.72-7.26,3.17-11a16.22,16.22,0,0,1-1.42-3.4,6.24,6.24,0,0,1,.45-3.21c2.21-6.09,8.17-10.41,9.74-16.7,1.18-4.73-.76-9.72-3.69-13.44-2.57-3.27-8.2-3.35-11.92-2.92A37.06,37.06,0,0,0,155.38,218.87Z"/><polygon class="cls-4" points="124.19 467.09 124.19 449.45 139.78 452.27 137.9 464.35 124.19 467.09"/><path class="cls-1" d="M122.33,465.67l-.77,8.09H157s2.44-13.29-19.33-11.15Z"/><path class="cls-5" d="M157.2,474H121.31l.81-8.5.17,0,15.34-3.05c8.35-.82,14.16.48,17.28,3.88a9.31,9.31,0,0,1,2.32,7.52Zm-35.4-.45h35a9,9,0,0,0-2.24-6.95c-3-3.29-8.71-4.55-16.88-3.74l-15.16,3Z"/><rect class="cls-5" x="121.87" y="470.23" width="34.97" height="0.45"/><path class="cls-5" d="M142.41,461.57a9.63,9.63,0,0,0-3,5c-.11.47.6.67.71.2a9,9,0,0,1,2.79-4.69C143.3,461.78,142.77,461.25,142.41,461.57Z"/><path class="cls-5" d="M144.85,461.87a13.21,13.21,0,0,0-2.69,4.7c-.15.45.57.65.71.19a12.4,12.4,0,0,1,2.5-4.36C145.69,462,145.17,461.51,144.85,461.87Z"/><path class="cls-5" d="M148.17,462.87a4.37,4.37,0,0,0-1.94,4,.38.38,0,0,0,.37.37.37.37,0,0,0,.37-.37,3.64,3.64,0,0,1,1.57-3.38C148.94,463.24,148.57,462.6,148.17,462.87Z"/><path class="cls-5" d="M127.21,464.4c-.21-.43-.85,0-.64.37a15.3,15.3,0,0,1,1.52,5.93c0,.48.77.48.75,0A16.24,16.24,0,0,0,127.21,464.4Z"/><polygon class="cls-6" points="125.39 449.67 125.63 437.68 140.16 439.29 137.93 451.94 125.39 449.67"/><path class="cls-7" d="M111.43,330.34l12.45,43.12c.72,2.49,1.44,5.07,1.1,7.64-.25,1.93-1.1,3.88-.55,5.74.24.85.76,1.59,1,2.43a7.66,7.66,0,0,1-.06,3.3L117.14,442c12.57,5.11,26,8.3,39.56,7.33.37-17.48.86-36.06-.54-53.48a101.48,101.48,0,0,0-2.81-18.71c-2.36-8.57-3.93-25.12-5.28-33.91-.82-5.28-3.41-2.42-6.16-7-2.64-4.39-7.66-6.93-12.72-7.78S116.52,329.7,111.43,330.34Z"/><path class="cls-5" d="M125.92,349.42q1.55,7.24,3,14.51.7,3.63,1.37,7.28c.44,2.39,1.49,5.38.86,7.8-.46,1.78-2,2.93-2.69,4.62s.24,2.47,1,3.78c1.94,3.53-.72,7.79-.14,11.56,0,.23.38.13.34-.09-.56-3.7,1.93-7.67.31-11.24-.44-1-1.36-1.78-1.35-2.93a4.89,4.89,0,0,1,1.23-2.65,7.47,7.47,0,0,0,1.85-4.43,36,36,0,0,0-1-6.25c-.46-2.51-.93-5-1.42-7.54q-1.4-7.27-3-14.51c0-.22-.38-.13-.34.09Z"/><path class="cls-5" d="M129.61,423.73a152.25,152.25,0,0,0-1,22.08c0,.23.36.23.35,0a152.25,152.25,0,0,1,1-22.08c0-.23-.32-.23-.35,0Z"/><polygon class="cls-4" points="116.78 415.1 129.76 403.16 138.23 416.54 122.65 426.08 116.78 415.1"/><path class="cls-1" d="M124.52,408.39l-7.69-2.61-8.17,34.5S121,445.71,124,424Z"/><path class="cls-5" d="M112,441.12a8.92,8.92,0,0,1-3.41-.64l-.17-.07,8.27-34.92,8.08,2.75-.57,15.8c-1.12,8.31-3.73,13.66-7.76,15.92A9,9,0,0,1,112,441.12Zm-3-1a9,9,0,0,0,7.28-.57c3.9-2.19,6.43-7.43,7.53-15.57l.55-15.45-7.3-2.48Z"/><rect class="cls-5" x="98.45" y="423.64" width="34.98" height="0.45" transform="translate(-323.23 439.03) rotate(-76.68)"/><path class="cls-5" d="M123.88,428.88a9.66,9.66,0,0,0-4.2-4.05.37.37,0,0,0-.35.65,9,9,0,0,1,3.92,3.79C123.48,429.69,124.11,429.3,123.88,428.88Z"/><path class="cls-5" d="M123,431.18a13.29,13.29,0,0,0-4-3.7c-.41-.25-.76.41-.35.65a12.42,12.42,0,0,1,3.67,3.44C122.67,432,123.31,431.57,123,431.18Z"/><path class="cls-5" d="M121.3,434.18a4.39,4.39,0,0,0-3.47-2.81.38.38,0,0,0-.45.28.37.37,0,0,0,.28.44,3.65,3.65,0,0,1,2.93,2.31C120.75,434.84,121.47,434.63,121.3,434.18Z"/><path class="cls-5" d="M124.63,413.43c.47-.1.25-.81-.21-.71a15,15,0,0,1-6.12.12c-.47-.08-.65.64-.18.73A16.22,16.22,0,0,0,124.63,413.43Z"/><polygon class="cls-6" points="130.42 404.19 139.4 396.25 148.06 408.04 137.23 414.96 130.42 404.19"/><path class="cls-8" d="M156,306.72c-.32,10.29,7.6,19,16.08,24.85s18.19,10.27,24.89,18.09c3.17,3.7,5.61,8.27,5.69,13.15.11,7.43-5.11,13.75-10.05,19.32-12.87,14.5-26.27,29.72-39.25,44.12-8.76-11.19-15.17-24.75-19.09-38.41l25.55-14.63c1.76-1,3.53-2,5.24-3.14,2-1.3,2.9-3.22,4.66-4.79-1.11,1.49-3.83,1-4.49-.76s.86-4.55,2.69-4.79c-15.19-6.25-33-6.25-46.44-15.73a38.46,38.46,0,0,1-10.4-51.79c5.45.92,10.08,1,15.54,1.94a71,71,0,0,1,10.79,2.41,71.69,71.69,0,0,1,9.35,4.18C149.74,302.24,153.06,305.22,156,306.72Z"/><path class="cls-5" d="M116.27,300.48c-1.79,5.45-1,11.2.58,16.6s3.52,10.78,7,15.24c6.59,8.45,16.73,13,26.85,15.66,5.23,1.38,10.64,2,15.83,3.52a18.68,18.68,0,0,1,6.64,3.16c2.12,1.71,4.23,4.74,3.31,7.59a3.32,3.32,0,0,1-3.62,2.33,2.46,2.46,0,0,1-1.61-3.25c1-3.61,5.32-2.36,6.77.2,1.65,2.92,0,6.59-1.65,9.11a24.86,24.86,0,0,1-6,6.11c-5.14,3.78-11.18,6-16.76,9a46.32,46.32,0,0,0-14.25,11.79c-.14.17.11.42.25.24a47.23,47.23,0,0,1,15.3-12.31c5.66-2.93,11.72-5.22,16.75-9.24,3.77-3,9-8.8,7-14.13a5.18,5.18,0,0,0-4.39-3.42,3.4,3.4,0,0,0-3.43,2.86,2.75,2.75,0,0,0,1.92,3.4,3.68,3.68,0,0,0,4.06-2.57c1.5-4.73-3.67-8.7-7.4-10.23-5.49-2.26-11.66-2.73-17.39-4.16a62,62,0,0,1-18.62-7.54A34.94,34.94,0,0,1,119.58,324c-2.91-7.22-5.5-15.79-3-23.47.07-.21-.27-.3-.34-.09Z"/><path class="cls-5" d="M185.86,375.05a68.24,68.24,0,0,0-1.66,13.58.18.18,0,0,0,.35,0,68.16,68.16,0,0,1,1.65-13.49c.05-.22-.29-.31-.34-.09Z"/><path class="cls-5" d="M183.35,380l-.88,5.6c0,.22.31.32.34.09l.88-5.6c0-.22-.31-.31-.34-.09Z"/><path class="cls-5" d="M145.68,315q5.69,2.58,11.6,4.59c.22.07.31-.27.1-.34q-5.88-2-11.52-4.55c-.21-.1-.39.21-.18.3Z"/><path class="cls-5" d="M151.4,319.79l6.17,1.86c.22.07.31-.27.09-.34l-6.16-1.86a.18.18,0,0,0-.1.34Z"/><path class="cls-6" d="M156.63,250.52c2-3.59,2.49-4.78,4.52-8.18,2.08,1.82,4.78,3.74,7.71,3.74,2,0,3.1-2.69,4.21-4.39a37.59,37.59,0,0,0,5.2-12.57,5.8,5.8,0,0,0,.09-2.92,4.54,4.54,0,0,0-2.35-2.56,8.6,8.6,0,0,0-6.8-.4,11.23,11.23,0,0,0-5.42,4.27,2.69,2.69,0,0,0-2.2-3.14,4.67,4.67,0,0,0-2.93.85,5.71,5.71,0,0,0-1.42,1.12,3.84,3.84,0,0,0,3.12,6.38l-11.66,12-14.11-.7s6.45,20.24,16.65,24.51c0,0,14.44,2.07,11.49-9.75Z"/><path class="cls-5" d="M162,227.13a2.63,2.63,0,0,0-3.23,3.1c0,.22.38.13.34-.09a2.32,2.32,0,0,1,.66-2.11,2.36,2.36,0,0,1,2.14-.56c.22.05.31-.29.09-.34Z"/><path class="cls-5" d="M159.66,228.32a1.14,1.14,0,0,1,.34,1.31.18.18,0,0,0,.06.24.17.17,0,0,0,.24-.06,1.49,1.49,0,0,0-.46-1.79.18.18,0,0,0-.24.06.17.17,0,0,0,.06.24Z"/><path class="cls-5" d="M152.79,249.59a3,3,0,0,0-.81-1.76c-.15-.17-.4.08-.25.25a2.63,2.63,0,0,1,.71,1.51.17.17,0,0,0,.17.18.18.18,0,0,0,.18-.18Z"/><path class="cls-5" d="M154.1,250.68a3,3,0,0,1,1.42-.75.18.18,0,0,0,.13-.21.19.19,0,0,0-.22-.13,3.33,3.33,0,0,0-1.58.84c-.17.15.08.4.25.25Z"/><path class="cls-5" d="M168.75,230.64a3.08,3.08,0,0,0,0,2.79,1.4,1.4,0,0,0,.93.75,1.53,1.53,0,0,0,1.22-.4,10.81,10.81,0,0,0,1.23-1.3c.15-.17-.1-.42-.25-.25a11.47,11.47,0,0,1-1.17,1.25,1,1,0,0,1-1.3.21,1.86,1.86,0,0,1-.61-1.29,2.91,2.91,0,0,1,.28-1.59c.1-.2-.2-.38-.3-.17Z"/><path class="cls-5" d="M174,233.51a2.68,2.68,0,0,0,.41,2.49,1.3,1.3,0,0,0,1,.38,1.35,1.35,0,0,0,.93-.64c.3-.44.54-1,.8-1.42.11-.2-.2-.38-.31-.18-.25.46-.48,1-.77,1.39a.89.89,0,0,1-1,.47,1.2,1.2,0,0,1-.78-.84,3.38,3.38,0,0,1,0-1.55c0-.22-.3-.32-.34-.1Z"/><path class="cls-5" d="M168.83,228.92a6.6,6.6,0,0,1,3.27-.2c.36.07.52-.48.16-.55a7.12,7.12,0,0,0-3.58.2c-.35.11-.2.67.15.55Z"/><path class="cls-5" d="M175.53,230.45a7.55,7.55,0,0,1,1.81,1.24.29.29,0,1,0,.41-.41,8.47,8.47,0,0,0-1.93-1.32.3.3,0,0,0-.4.1.29.29,0,0,0,.11.39Z"/><path class="cls-5" d="M159.83,235.71a9.48,9.48,0,0,0-.62,2.09,3.92,3.92,0,0,0,.08,2.15,7.81,7.81,0,0,0,1,1.51,4.52,4.52,0,0,0,.69.76c.17.16.42-.09.25-.25a3.76,3.76,0,0,1-.61-.65,11.29,11.29,0,0,1-.9-1.31,3.39,3.39,0,0,1-.15-2.11,8.5,8.5,0,0,1,.59-2c.09-.2-.22-.38-.31-.17Z"/><ellipse class="cls-4" cx="167.57" cy="234.26" rx="1.04" ry="1.6" transform="translate(-119.78 253.94) rotate(-58.34)"/><ellipse class="cls-4" cx="174.13" cy="237.74" rx="1.04" ry="0.95" transform="translate(-119.63 261.18) rotate(-58.34)"/><path class="cls-5" d="M172.13,236.41c.45,0,1,.27,1.05.77a.6.6,0,0,1-.15.51.55.55,0,0,1-.59.09,1.56,1.56,0,0,1-.67-.55.18.18,0,0,0-.25.25c.36.47,1.09,1,1.67.54a.91.91,0,0,0,.35-.76,1.08,1.08,0,0,0-.38-.82,1.76,1.76,0,0,0-1-.38.19.19,0,0,0-.18.18.18.18,0,0,0,.18.17Z"/><path class="cls-9" d="M160,307.48c-1.06-2.44-2.15-6.89-3.21-9.33a8,8,0,0,1-.74-2.37c-.25-2.61,2-4.69,4-6.43,3.07-2.71,6-5.86,7.07-9.81.86-3.24.36-6.68-.38-9.94-1-4.37-3.08-8.6-4.92-12.69.15,2.66-.24,5.56-2.08,7.48-2.08,2.17-5.6,2.5-8.39,1.38a14.93,14.93,0,0,1-6.59-6c-3.67-5.58-5.27-12.32-5.63-19-9.19-.63-18,4.66-23.62,12s-8.21,16.53-9.26,25.68c-.6,5.2-.69,10.69,1.56,15.42C123.11,304,141.84,310.06,160,307.48Z"/><path class="cls-6" d="M203.55,305.86l12.22-6.71c2.93-1.61,5.95-3.26,9.28-3.67,1.84-.24,3.89-.14,5.34-1.3s1.73-2.84,2.07-4.48a2.32,2.32,0,0,0-.29-2.16,2.38,2.38,0,0,0-.36-4,2.26,2.26,0,0,0-.87-3.46,8,8,0,0,1-1.26-.39c-.65-.35-.94-1.14-1.54-1.57a3,3,0,0,0-2.38-.25,10.14,10.14,0,0,0-5.61,3.44,34.2,34.2,0,0,1-2.75,3.57,13.23,13.23,0,0,1-2.5,1.69l-9.75,5.5a27,27,0,0,0-2.24,14.57C202.93,306.46,203.53,306.06,203.55,305.86Z"/><path class="cls-9" d="M163.4,260.68c6.56,8.5,7.07,14.34,13.21,25.09.55,1,.13,2.3.82,3.16a2.05,2.05,0,0,0,2,.66,1.48,1.48,0,0,1,1.82.79,3.18,3.18,0,0,1,.13,1.83c5.49-.14,22.39-3.34,26.06-7.43,2.78,6.28,2.75,17.33,2.08,24.16-5.39.23-22.38,5.08-27.78,5.3-3.66.16-7.56.25-10.68-1.67a18.68,18.68,0,0,1-4.63-4.67c-4.64-5.95-11-16.18-13.05-23.44C160.37,278.45,164.3,269.85,163.4,260.68Z"/><path class="cls-5" d="M170.36,297.43a18.88,18.88,0,0,0,4.53-1.34,17.74,17.74,0,0,0,2-1c.47-.29,1-.64,1.17-1.21.22-.9-.81-1.47-1.59-1.27-1.15.29-1.89,1.92-2.13,2.95a3.08,3.08,0,0,0,4,3.56,3.25,3.25,0,0,0,1.93-2.42c.06-.44.08-1-.36-1.27a1,1,0,0,0-1.21.32,4.77,4.77,0,0,0-.76,2,9.4,9.4,0,0,0-.25,2.31,9.6,9.6,0,0,0,1.28,4.61.17.17,0,0,0,.3-.18,9.2,9.2,0,0,1-1.12-6,8.27,8.27,0,0,1,.33-1.39,5.4,5.4,0,0,1,.25-.67,2.49,2.49,0,0,1,.15-.28.59.59,0,0,1,.34-.32c.17-.17.32-.11.44.17.29.26.3.19.28.5,0,.12,0,.23,0,.35a3,3,0,0,1-.27.7,3.07,3.07,0,0,1-1,1.09,2.71,2.71,0,0,1-4-2.42,4.56,4.56,0,0,1,1.47-3,1.13,1.13,0,0,1,1.36-.09c.69.5,0,1.2-.47,1.52a17.09,17.09,0,0,1-6.68,2.5c-.22,0-.12.37.1.34Z"/><path class="cls-5" d="M220.27,286.37a2.58,2.58,0,0,0,1.77,1.34,1.84,1.84,0,0,0,1.73-1.16,11.21,11.21,0,0,0,.45-2.35c.12-.46.43-1,1-.8s.75,1,.6,1.61c-.22.83-1,1.69-.81,2.59a1.28,1.28,0,0,0,1.21,1c1.66.14,2.5-2.09,2.91-3.34a10.89,10.89,0,0,0,.13-6.27.18.18,0,0,0-.34.09,10.54,10.54,0,0,1,.09,5.32,9.82,9.82,0,0,1-1,2.46c-.39.72-1.07,1.6-2,1.35-1.21-.32-.48-1.65-.15-2.38a2.58,2.58,0,0,0,.24-2,1.24,1.24,0,0,0-1.28-.81,1.32,1.32,0,0,0-1,1.13c-.2.87-.05,1.81-.61,2.57a1.33,1.33,0,0,1-1.48.56,2.51,2.51,0,0,1-1.2-1.1c-.12-.19-.43,0-.31.18Z"/><path class="cls-5" d="M228.44,286.07a2.17,2.17,0,0,0-2.22,2.27c0,.22.37.22.35,0a1.81,1.81,0,0,1,1.87-1.91c.23,0,.23-.34,0-.36Z"/><path class="cls-5" d="M228.29,284.34a.82.82,0,0,0,.35.34l.23.08h.28a.23.23,0,0,0,.11-.08.23.23,0,0,0,0-.14.28.28,0,0,0-.08-.11.23.23,0,0,0-.14,0s0,0,0,0H229l-.09,0h-.05l-.08-.05h0s0,0,0,0l0,0,0,0s0-.05,0,0a.22.22,0,0,1-.05-.08.18.18,0,0,0-.31.18Z"/><path class="cls-5" d="M228.62,284l.33.11a.12.12,0,0,0,.13,0,.18.18,0,0,0,.09-.1.22.22,0,0,0,0-.14.23.23,0,0,0-.11-.08l-.33-.11a.19.19,0,0,0-.13,0,.18.18,0,0,0-.09.1.22.22,0,0,0,0,.14.18.18,0,0,0,.11.08Z"/><path class="cls-5" d="M229.44,280a3.48,3.48,0,0,1,2.13.4,1.3,1.3,0,0,1,.54.78,3.23,3.23,0,0,1,0,1,1.65,1.65,0,0,1-.25.84,1,1,0,0,1-.78.35,4.35,4.35,0,0,0-1.76.15c-.2.1,0,.4.18.3a4.45,4.45,0,0,1,1.63-.1,1.28,1.28,0,0,0,1.17-.78,3.33,3.33,0,0,0,.15-1.66,1.75,1.75,0,0,0-.89-1.31,4.21,4.21,0,0,0-2.16-.36.18.18,0,0,0,0,.36Z"/><path class="cls-5" d="M231.73,283.87a1.59,1.59,0,0,1,1.24,1.21,1.86,1.86,0,0,1-.52,1.77c-1.15,1.2-2.94.92-4.33.35-.21-.08-.3.26-.1.34a4.52,4.52,0,0,0,4.17,0,2.31,2.31,0,0,0,.95-3,1.84,1.84,0,0,0-1.41-1c-.22,0-.22.32,0,.35Z"/><path class="cls-5" d="M232,287.64a3.46,3.46,0,0,1,.49,2.4,2,2,0,0,1-2,1.35,5.4,5.4,0,0,1-1.54-.21,9.77,9.77,0,0,1-1.27-.39c-.73-.32-1.56-1.15-1.05-2a.17.17,0,0,0-.3-.18,1.6,1.6,0,0,0,.29,1.88,4.39,4.39,0,0,0,2.24,1,4.34,4.34,0,0,0,2.62,0,2.07,2.07,0,0,0,1.35-1.58,4,4,0,0,0-.56-2.51c-.11-.2-.42,0-.31.18Z"/><path class="cls-5" d="M227.59,291a3.16,3.16,0,0,0,.4-3.25c-.09-.2-.39,0-.3.18a2.81,2.81,0,0,1-.34,2.82c-.14.18.1.43.24.25Z"/><path class="cls-5" d="M229.75,294.63a2.48,2.48,0,0,1-1.64-.4,3.15,3.15,0,0,1-1.21-1,1.6,1.6,0,0,1,.31-2.29.17.17,0,0,0-.17-.3,2,2,0,0,0-.48,2.72,3.43,3.43,0,0,0,1.37,1.16,2.79,2.79,0,0,0,1.91.44c.22-.07.13-.41-.09-.34Z"/><path class="cls-5" d="M226.45,292.62a1,1,0,0,0,1.21-.25,2.37,2.37,0,0,0,.53-1.33.17.17,0,0,0-.12-.21.17.17,0,0,0-.22.12,2.39,2.39,0,0,1-.39,1.13.87.87,0,0,1-.4.26.56.56,0,0,1-.44,0,.17.17,0,0,0-.17.3Z"/><path class="cls-5" d="M219.76,293.8a4.58,4.58,0,0,1,4.7-2.69c.22,0,.22-.32,0-.35a4.9,4.9,0,0,0-5,2.95c-.09.21.25.3.34.09Z"/><path class="cls-5" d="M162.33,267.4l1.26,10.19c.21,1.68.68,3.54.14,5.2a14.66,14.66,0,0,1-2.53,4c-1.61,2.16-4,4.32-4.94,6.89s.32,5.09,1.58,7.32a.17.17,0,0,0,.3-.18,13.67,13.67,0,0,1-1.8-4.26,6.28,6.28,0,0,1,1.44-4.84c1.74-2.39,3.77-4.57,5.39-7.06s1.07-4.64.74-7.33l-1.23-9.92c0-.22-.38-.22-.35,0Z"/><path class="cls-6" d="M97.51,180.25l1.07,1.26c-1.5-4.75-3-9.67-2.41-14.61.29-2.39,1.09-4.74.94-7.15-.13-2.08-1-4.09-.9-6.18a25.6,25.6,0,0,1,1.2-5.2,16.49,16.49,0,0,0-.29-8.84,1.88,1.88,0,0,0-.61-1c-1-.72-2.12.83-2.43,2.05l-3.26,12.8-1.74-1.73a2.52,2.52,0,0,0-1.59,1.28c-1.29-1.36-4.07-.15-4,1.72,0-.93-1.41-1.27-2.16-.73a3.38,3.38,0,0,0-1.08,2.48c-.63,6.08,2.57,11.85,3.62,17.88.76,4.41.43,9.2,2.7,13.05C91.28,186.37,94,183.46,97.51,180.25Z"/><path class="cls-9" d="M139.43,240.42c-23.18-12.07-37.76-38.91-35.26-64.93A31.68,31.68,0,0,0,79.86,190c4.59,4.48,6.82,10.67,8.68,16.8,1.25,4.09,1.8,8.35,3.09,12.42a72.31,72.31,0,0,0,5.55,12.15c6.31,11.82,12.65,23.69,20.57,34.5C126.34,259.46,135.26,250.32,139.43,240.42Z"/><path class="cls-5" d="M96.72,156.42a7.65,7.65,0,0,0-6.59-2.85A6,6,0,0,0,85,157.31c-.69,2,.11,5.35,2.57,5.74a2.06,2.06,0,0,0,2.25-1.17c.18-.45.34-2.36,1.27-2,1.43.6.21,2.06-.46,2.66a3.63,3.63,0,0,0-1.57,3.3A4.49,4.49,0,0,0,91.2,169c.19.12.37-.19.18-.31a3.91,3.91,0,0,1-2-3.53c.13-1.48,1.32-2,2.15-3a1.72,1.72,0,0,0,.22-2.2,1,1,0,0,0-1.6-.05c-.82.89-.3,2.38-1.77,2.75s-2.79-1.22-3.15-2.55c-.74-2.76,1.2-5.2,3.78-6a7.2,7.2,0,0,1,7.49,2.52c.15.18.39-.07.25-.25Z"/><path class="cls-5" d="M86.39,162.11a2,2,0,0,0,1-1.05,3.18,3.18,0,0,0,0-1.73,3.73,3.73,0,0,0-1.65-2.83c-.2-.11-.38.19-.18.3A3.33,3.33,0,0,1,87,159.23a3.54,3.54,0,0,1,.08,1.55,1.63,1.63,0,0,1-.88,1c-.2.1,0,.41.18.31Z"/><path class="cls-5" d="M87.7,155.35l.43.75a.18.18,0,0,0,.24.06.18.18,0,0,0,.06-.24l-.43-.75a.18.18,0,0,0-.24-.06.18.18,0,0,0-.06.24Z"/><path class="cls-5" d="M88.71,155.09l.14.44a.15.15,0,0,0,.08.11.2.2,0,0,0,.13,0,.18.18,0,0,0,.13-.22l-.14-.44a.19.19,0,0,0-.08-.11.23.23,0,0,0-.14,0,.18.18,0,0,0-.12.22Z"/><path class="cls-5" d="M87.7,154.5a4.48,4.48,0,0,1,.18-1.59,1.44,1.44,0,0,1,.88-.89,1.61,1.61,0,0,1,1.36.42,1.67,1.67,0,0,1,.78,1.13.18.18,0,0,0,.35,0,1.89,1.89,0,0,0-.87-1.37,2.06,2.06,0,0,0-1.61-.55,1.71,1.71,0,0,0-1.15,1,4.24,4.24,0,0,0-.27,1.87.18.18,0,0,0,.35,0Z"/><path class="cls-5" d="M84.86,158.55a7,7,0,0,1-.89-4.5,1.94,1.94,0,0,1,1.33-1.5c.72-.22,1.8-.32,2.2.48.11.2.41,0,.31-.18a1.92,1.92,0,0,0-2.2-.73,2.3,2.3,0,0,0-1.83,1.37,4.46,4.46,0,0,0-.17,2.32,9.3,9.3,0,0,0,1,2.91c.1.21.41,0,.3-.17Z"/><path class="cls-5" d="M80.13,156.72a8.1,8.1,0,0,0,2,4.62c1,1,2.95,2.06,4.09.7.14-.17-.11-.42-.25-.25-1.08,1.29-3,0-3.85-1a8.17,8.17,0,0,1-1.67-4.2c0-.22-.38-.12-.34.1Z"/><path class="cls-5" d="M87.78,166.11a3.39,3.39,0,0,1,0,2.74c0,.08,0,.19.12.21a.18.18,0,0,0,.22-.12,3.75,3.75,0,0,0-.08-3c-.1-.2-.4,0-.3.18Z"/><path class="cls-5" d="M93.74,148.06H94l.23,0,.22.07.11,0h0l.06,0a.18.18,0,0,0,.24-.06.18.18,0,0,0-.06-.24,2.54,2.54,0,0,0-1.05-.26.18.18,0,0,0-.17.18.16.16,0,0,0,.17.17Z"/><path class="cls-5" d="M94.39,147l.51.29a.18.18,0,0,0,.24-.07.17.17,0,0,0-.06-.24l-.52-.29a.19.19,0,0,0-.24.06.19.19,0,0,0,.07.25Z"/><path class="cls-5" d="M104.13,221.51a16.41,16.41,0,0,0,3.9-2.93c.64-.67,2.25-2.09,1.75-3.16a.8.8,0,0,0-.8-.49c-.62.11-.84.93-1,1.4-.73,1.69-1.43,3.4-2.11,5.11-.4,1-1,2.52.15,3.33s2.41.19,3.43-.33c.84-.42,1.92-1.22,1.4-2.29s-1.75-.31-2.24.39c-2.1,3-.45,6.73,1.42,9.32.13.18.44,0,.31-.18-1.54-2.13-2.86-4.73-2.14-7.41a5,5,0,0,1,.71-1.55c.36-.51,1.32-1.24,1.65-.25.2.6-.27,1.06-.72,1.36-1,.66-3.49,1.79-4.06,0-.38-1.16.61-2.78,1-3.82.28-.7.57-1.4.86-2.09a9.41,9.41,0,0,1,.87-2q.19-.67,1,.15a2.08,2.08,0,0,1-.31.59,8.7,8.7,0,0,1-.75,1,16.33,16.33,0,0,1-1.15,1.21,16.07,16.07,0,0,1-3.33,2.39c-.2.11,0,.41.18.3Z"/><path class="cls-5" d="M112.61,258.08a8.27,8.27,0,0,0,8.18,2.75c3.41-.81,5.21-3.54,6.73-6.46.1-.21-.2-.38-.31-.18-1.43,2.76-3.09,5.38-6.29,6.24a7.91,7.91,0,0,1-8.06-2.6c-.15-.17-.4.08-.25.25Z"/><path class="cls-5" d="M128.66,250.8a12.78,12.78,0,0,0,.73-2.86.18.18,0,0,0-.12-.22.19.19,0,0,0-.22.13,12.84,12.84,0,0,1-.73,2.85c-.08.22.26.31.34.1Z"/><path class="cls-5" d="M123.12,269.25a49.36,49.36,0,0,0,21.58,19.32c.94.43,1.9.83,2.87,1.2.65.25,1.32.46,2,.73a4.39,4.39,0,0,1,.82.39,2.44,2.44,0,0,1,.82.75l-.81,1.66c-.92.71-3.44,0-4.4-.25a24,24,0,0,1-4.64-1.72c-1.29-.62-2.55-1.3-3.8-2a7.28,7.28,0,0,0-1.52-.78,1.76,1.76,0,0,0-2.14,2c.22,1,1.28,1.73,2,2.34a32,32,0,0,0,3.32,2.5,33.57,33.57,0,0,0,8.34,3.9c.22.07.31-.27.1-.34a32.65,32.65,0,0,1-7.85-3.6,30.94,30.94,0,0,1-3.47-2.55,9,9,0,0,1-1.45-1.37c-.41-.57-1.11-1.59-.23-2.2a2,2,0,0,1,1.76-.16,18.44,18.44,0,0,1,2.09,1.15c1.26.68,2.54,1.34,3.85,1.91a16.54,16.54,0,0,0,7.14,1.66c1-.05,2.46-.58,2.22-1.87-.3-1.61-2.75-2-4-2.52a48.28,48.28,0,0,1-13.12-7.58,49,49,0,0,1-11.11-12.77.18.18,0,0,0-.31.17Z"/><path class="cls-5" d="M169.43,237.5c-.23-.31-.43-.68-.8-.82a1.26,1.26,0,0,0-1.27.4,3.1,3.1,0,0,0-.69,3.2,3.15,3.15,0,0,0,2.41,2.05,2.77,2.77,0,0,0,2.81-1.35,1.62,1.62,0,0,0,.14-1.37,2.15,2.15,0,0,0-1-.9,6.64,6.64,0,0,1-.92-.56A3.64,3.64,0,0,1,169.43,237.5Z"/><path class="cls-4" d="M169.74,242.08a1.62,1.62,0,0,0-.1-1.45,2.09,2.09,0,0,0-1.16-.9,2.46,2.46,0,0,0-1.71.05,3.51,3.51,0,0,0,1.13,1.65A2.56,2.56,0,0,0,169.74,242.08Z"/><path class="cls-1" d="M171.65,239.44a1.17,1.17,0,0,1-.7.58,1,1,0,0,1-.73-.23,7.51,7.51,0,0,1-1.41-1.16,1,1,0,0,1-.25-.4c-.07-.32.19-.61.43-.83a3.66,3.66,0,0,0,1.25,1.16A5.08,5.08,0,0,1,171.65,239.44Z"/><path class="cls-5" d="M165.93,241.64a2,2,0,0,0,1.72,1.47.18.18,0,1,0,0-.36,1.62,1.62,0,0,1-1.38-1.21c-.05-.22-.39-.12-.34.1Z"/><path class="cls-2" d="M241.09,448.35l-6,25.3-45.61.11S188.8,453.3,214,460.27l8.54-12.81Z"/><path class="cls-5" d="M189.26,474v-.22c0-.07-.19-7.79,5.37-12.16,4.29-3.38,10.76-3.91,19.25-1.59l8.52-12.78h.12l18.86.9-6.11,25.73h-.18ZM204.52,459a15.15,15.15,0,0,0-9.63,2.91c-4.86,3.83-5.18,10.32-5.2,11.58l45.21-.1,5.91-24.87-18.19-.87-8.56,12.83-.16,0A35.57,35.57,0,0,0,204.52,459Z"/><rect class="cls-5" x="189.98" y="469.14" width="44.02" height="0.9" transform="translate(-1.14 0.52) rotate(-0.14)"/><path class="cls-5" d="M218.16,464.6a15.35,15.35,0,0,0-3.82-4.4.77.77,0,0,0-1.06,0,.76.76,0,0,0,0,1.06,13.66,13.66,0,0,1,2,1.92c.15.17.3.34.44.52,0,0,.11.14,0,0l.11.15.19.26c.27.39.53.79.77,1.2a.75.75,0,0,0,1.3-.75Z"/><path class="cls-5" d="M212.76,465.51a24.45,24.45,0,0,0-5.23-6.93c-.71-.65-1.77.41-1.06,1.06a23.45,23.45,0,0,1,5,6.62.74.74,0,0,0,1,.27.76.76,0,0,0,.27-1Z"/><path class="cls-5" d="M206.82,464.39a25,25,0,0,0-4.47-5.81c-.7-.66-1.76.39-1.06,1.06a23.68,23.68,0,0,1,4.24,5.51c.46.84,1.76.08,1.29-.76Z"/><path class="cls-10" d="M261.87,280.57q-7,20.55-12.89,41.48c-11.76,42.05-20,85.55-39.37,124.7a74.2,74.2,0,0,0,35.09,13.86c8.53-25.09,10.15-51.29,15.4-77.27,6.37-31.51,19-61.38,31.83-90.85a34.05,34.05,0,0,0-21-12.45C268.17,279.58,264.56,281.24,261.87,280.57Z"/><path class="cls-5" d="M258.08,295.07a11.47,11.47,0,0,0,8.13-8.43c.05-.22-.29-.31-.34-.09a11.08,11.08,0,0,1-7.89,8.18.18.18,0,0,0,.1.34Z"/><path class="cls-5" d="M260.11,374.69a18.32,18.32,0,0,0-2.6-6.22,16,16,0,0,0-2.09-2.61,1.77,1.77,0,0,0-2.14-.59c-1.59.91-1.15,3.24-.21,4.43a4,4,0,0,0,4.75,1.29c2.2-.93,3.61-3.28,5-5.1.13-.18-.17-.35-.31-.18-1.84,2.41-4.93,7.2-8.46,4.47-1.23-.95-2.25-3.25-.78-4.47.91-.76,1.83.29,2.41,1a16.54,16.54,0,0,1,1.71,2.28,17.94,17.94,0,0,1,2.38,5.84c0,.23.38.13.34-.09Z"/><path class="cls-5" d="M238.76,373.38a15.85,15.85,0,0,1,1.65,5.86q.51,3.28.91,6.57c.51,4.17.88,8.36,1.14,12.56,0,.22.37.23.35,0q-.41-6.8-1.26-13.54-.39-3.09-.87-6.17a14.87,14.87,0,0,0-1.62-5.46.17.17,0,0,0-.3.18Z"/><path class="cls-5" d="M238.8,381.55l.8,10.32c0,.23.37.23.35,0l-.8-10.32c0-.22-.37-.23-.35,0Z"/><path class="cls-2" d="M327.51,448.36l6.62,25.29-45.61.11s-.67-20.46,24.49-13.49l-4.09-12.8Z"/><path class="cls-5" d="M288.31,474v-.22c0-.07-.19-7.79,5.37-12.16,4.25-3.35,10.64-3.9,19-1.66l-4.07-12.71,19.07.92.05.15,6.69,25.57h-.29ZM303.58,459A15.12,15.12,0,0,0,294,462c-4.87,3.82-5.19,10.32-5.2,11.58l45.09-.1-6.5-24.86-18.11-.86,4.12,12.88-.4-.11A35.56,35.56,0,0,0,303.58,459Z"/><rect class="cls-5" x="289.03" y="469.14" width="44.02" height="0.9" transform="translate(-1.14 0.76) rotate(-0.14)"/><path class="cls-5" d="M317.21,464.6a15.35,15.35,0,0,0-3.82-4.4.75.75,0,0,0-1.06,1.06,13.66,13.66,0,0,1,2,1.92c.15.17.3.34.44.52,0,0,.11.14,0,0l.11.15.19.26c.28.39.53.79.77,1.2a.75.75,0,0,0,1.3-.75Z"/><path class="cls-5" d="M311.81,465.51a24.45,24.45,0,0,0-5.23-6.93c-.71-.65-1.77.41-1.06,1.06a23.45,23.45,0,0,1,5,6.62.74.74,0,0,0,1,.27.76.76,0,0,0,.27-1Z"/><path class="cls-5" d="M304.31,464.75a24.54,24.54,0,0,0-4.47-5.81c-.69-.67-1.75.39-1.06,1.06a23.36,23.36,0,0,1,4.24,5.5.75.75,0,0,0,1.29-.75Z"/><polygon class="cls-5" points="311.46 455.41 329.27 455.07 327.67 449.06 310.45 452.26 311.46 455.41"/><path class="cls-10" d="M310.83,291.72l-14.42,72.42a21.93,21.93,0,0,1,6.6-4.95,10.12,10.12,0,0,1-3.3,10.33,6.6,6.6,0,0,1,5.47-1.45c1.48.5.9,2.8-.23,3.89s-2.67,2.3-2.28,3.81a3.55,3.55,0,0,0,.85,1.38,295.59,295.59,0,0,1,45,71.57c-10.38,7.66-26.38,8.71-39.29,8.63-6.78-23.32-15.57-42.11-25.47-64.28-2.9-6.51-5.84-13.09-7.16-20.1-1.48-7.84-1.58-19.52-.92-27.48,1.68-20.34-.1-38.73,2.31-59C288.08,284.67,300.59,292.12,310.83,291.72Z"/><path class="cls-5" d="M297.59,294.9a25.6,25.6,0,0,0,8,18.49c.16.15.41-.1.25-.25a25.23,25.23,0,0,1-7.89-18.24.18.18,0,0,0-.35,0Z"/><path class="cls-5" d="M302.25,308.45a138.28,138.28,0,0,0-11.6,38.27c-.94,6.32-1.93,13.09-1,19.46.34,2.44.91,5.53,2.91,7.21,1.27,1.07,3.47,1.39,4.71.09a2.4,2.4,0,0,0-.46-3.56c-1.57-1-2.89.73-3.12,2.16-.87,5.32,4.92,9.48,8.17,12.73a147.78,147.78,0,0,1,22.58,29.55,237,237,0,0,1,17.91,38.46c.08.21.42.12.34-.09-7.35-19.81-16.63-39.15-29.71-55.87a135.45,135.45,0,0,0-10.7-12.13c-1.82-1.82-3.79-3.52-5.46-5.47s-3.63-5.08-2.6-7.84c.44-1.18,1.68-1.88,2.7-.95a2.13,2.13,0,0,1,.53,2c-.56,1.83-3.07,1.7-4.35.85-2.5-1.66-3-5.81-3.25-8.52-.55-5.94.32-12.16,1.19-18a137.94,137.94,0,0,1,11.56-38.18c.1-.2-.21-.38-.3-.18Z"/><path class="cls-5" d="M284.5,387.56A66.21,66.21,0,0,1,301.72,403c.14.18.39-.07.25-.25a66.52,66.52,0,0,0-17.29-15.48.17.17,0,1,0-.18.3Z"/><path class="cls-5" d="M289.26,394a51.79,51.79,0,0,1,8.12,7.18c.15.17.4-.08.25-.25a52.61,52.61,0,0,0-8.19-7.23c-.18-.13-.36.17-.18.3Z"/><path class="cls-5" d="M276.49,335.87c0-8.07,1-15.91,2-23.9.77-6.2.53-13.43-4.77-17.69-.17-.14-.42.11-.24.25,5.88,4.73,5.33,12.86,4.36,19.56a149.83,149.83,0,0,0-1.68,21.78.18.18,0,0,0,.36,0Z"/><path class="cls-5" d="M275.26,303a27.24,27.24,0,0,0-3.29-3c-.18-.14-.36.17-.18.31a25.34,25.34,0,0,1,3.22,2.91c.15.16.4-.09.25-.25Z"/><path class="cls-5" d="M296.53,183.07c0,.26-.39.24-.6.09a3.71,3.71,0,0,1,1.55-6.64c0,.33-.54.11-.69-.18a4.3,4.3,0,0,1,5.27-6,6.36,6.36,0,0,1,1-3.87,3.2,3.2,0,0,1,1.62-1.42,2.78,2.78,0,0,1,3.27,2.18,5.53,5.53,0,0,1-1.05,4.18,4.2,4.2,0,0,1,5.41.76,4,4,0,0,1-.31,5.33,5.33,5.33,0,0,1,4.34,8.87,4.08,4.08,0,0,1-.09,7.7,4.37,4.37,0,0,1-5.11,6.26,1.84,1.84,0,0,0-.89-.15c-.7.14-.82,1.06-1.09,1.72-.73,1.79-3.35,2.11-4.93,1s-2.27-3.1-2.56-5a31.73,31.73,0,0,0-.94-5.69,33.39,33.39,0,0,0-2.51-4.67C297.34,186,296.06,184.78,296.53,183.07Z"/><path class="cls-11" d="M292.94,211.69c1.53-3.78,2.14-4.88,3.51-8.57-2.7-.47-5.86-1.38-7.68-3.64-1.27-1.56.15-4.07.79-6a37.41,37.41,0,0,1,6.49-11.84,6,6,0,0,1,2.2-1.88,4.53,4.53,0,0,1,3.44.23,8.54,8.54,0,0,1,4.53,5,11.1,11.1,0,0,1,.06,6.84,2.68,2.68,0,0,1,3.8-.25,4.59,4.59,0,0,1,1.16,2.79,6,6,0,0,1,0,1.8,3.8,3.8,0,0,1-6.87,1.54c-.63,5.15-1.41,11.33-2,16.48l9.31,10.47S289,239.25,279.32,234c0,0-3.25-13.79,4.05-20.24Z"/><path class="cls-5" d="M307.5,193.32a2.35,2.35,0,0,1,.91,2.07,2.32,2.32,0,0,1-1.24,1.78c-.2.11,0,.41.18.3a2.62,2.62,0,0,0,.4-4.4c-.18-.13-.43.11-.25.25Z"/><path class="cls-5" d="M308.33,195.24a1.46,1.46,0,0,0-1.64.73.17.17,0,0,0,.3.18,1.12,1.12,0,0,1,1.25-.58.17.17,0,0,0,.09-.33Z"/><path class="cls-5" d="M296.24,214.38a2.59,2.59,0,0,1,1.65-.41c.09,0,.17-.09.17-.18a.18.18,0,0,0-.17-.17,3,3,0,0,0-1.83.46c-.19.12,0,.43.18.3Z"/><path class="cls-5" d="M294.74,213.78a3.4,3.4,0,0,0-.35-1.75.17.17,0,0,0-.3.18,3,3,0,0,1,.3,1.57.17.17,0,0,0,.17.17.18.18,0,0,0,.18-.17Z"/><path class="cls-5" d="M300.48,189.83a2.88,2.88,0,0,1-1,1.17,1.86,1.86,0,0,1-1.45.38,1,1,0,0,1-.65-1.11,10.6,10.6,0,0,1,.23-1.68c0-.22-.3-.31-.34-.09-.08.51-.19,1-.23,1.55a1.79,1.79,0,0,0,.27,1.24c.6.81,1.78.44,2.45-.06a3.27,3.27,0,0,0,1-1.23c.09-.2-.21-.38-.3-.17Z"/><path class="cls-5" d="M295,187.45c-.52.6-1.27,1.4-2.15,1a.81.81,0,0,1-.45-1,4.81,4.81,0,0,1,.28-.75l.35-.86c.09-.21-.25-.3-.33-.09-.2.47-.43.95-.59,1.43a1.33,1.33,0,0,0,.12,1.24,1.54,1.54,0,0,0,1.95.23,4.7,4.7,0,0,0,1.07-1c.15-.17-.1-.42-.25-.25Z"/><path class="cls-5" d="M302.6,188.66a7,7,0,0,0-2.05-2.9.28.28,0,0,0-.4.4,6.43,6.43,0,0,1,1.9,2.65.3.3,0,0,0,.35.2.29.29,0,0,0,.2-.35Z"/><path class="cls-5" d="M297,184.11a8.67,8.67,0,0,0-2.22-.69.29.29,0,0,0-.35.2.28.28,0,0,0,.19.35,8,8,0,0,1,2.09.63.3.3,0,0,0,.39-.1.29.29,0,0,0-.1-.39Z"/><path class="cls-5" d="M302.09,199.87a8.38,8.38,0,0,1-1.16,1.68,3.74,3.74,0,0,1-1.5,1.17,5.65,5.65,0,0,1-2,.16,18.47,18.47,0,0,1-2.22-.19c-.22,0-.31.31-.09.34a20,20,0,0,0,2.31.2,5.72,5.72,0,0,0,2.22-.21,4.21,4.21,0,0,0,1.5-1.18,9.14,9.14,0,0,0,1.25-1.79c.11-.2-.19-.38-.3-.18Z"/><ellipse class="cls-4" cx="298.71" cy="193.14" rx="1.03" ry="1.58" transform="translate(16.66 409.88) rotate(-70.43)"/><ellipse class="cls-4" cx="291.95" cy="190.23" rx="1.03" ry="0.94" transform="translate(14.9 401.57) rotate(-70.43)"/><path class="cls-5" d="M294.48,190.71a1.34,1.34,0,0,0-1.84-.29.89.89,0,0,0-.3.85.93.93,0,0,0,.5.61,2,2,0,0,0,1,.2.18.18,0,0,0,0-.35c-.37,0-.91-.07-1.08-.45a.5.5,0,0,1,.11-.54.71.71,0,0,1,.63-.23,1.32,1.32,0,0,1,.78.45c.15.17.4-.08.25-.25Z"/><path class="cls-1" d="M293.46,193.42l-.18-.26a1.56,1.56,0,0,0-.56-.58c-.63-.32-1.28.45-1.32,1a2.25,2.25,0,0,0,.23,1.07,3.56,3.56,0,0,0,1.53,1.84,2.49,2.49,0,0,0,2.1.11,2.31,2.31,0,0,0,1.35-1.58,1.54,1.54,0,0,0-.2-1.24,1,1,0,0,0-1.14-.37c-.21.09-.36.27-.56.37a1,1,0,0,1-.89,0A1.65,1.65,0,0,1,293.46,193.42Z"/><path class="cls-5" d="M292.86,197.72a2.72,2.72,0,0,0,1.33.62,1.13,1.13,0,0,0,1.09-.54c.11-.2-.19-.38-.3-.18a.81.81,0,0,1-.85.36,2.64,2.64,0,0,1-1.1-.57.19.19,0,0,0-.24.06.19.19,0,0,0,.07.25Z"/><path class="cls-12" d="M323.77,260.29c.3-8.23.45-16.46-1.61-24.39a26.24,26.24,0,0,0-4.33-9.52c-3.26-4.24-8.16-6.85-12.91-9.32a25.77,25.77,0,0,1-8.33,13.2c-2.5,2.09-5.77,3.75-8.92,2.94-3.92-1-6-5.6-5.61-9.63s2.77-7.58,5.13-10.87c-.37.53-4.28.81-5.08,1a37.09,37.09,0,0,0-5.32,1.92,38.63,38.63,0,0,0-9.07,5.82c-5.54,4.69-9.18,11.27-11.22,18.17-2.31,7.8-2.73,16-2.87,24.14-.1,5.57-.08,11.15,0,16.72,0,.49,46.31,17.44,70,16.51.58-8.91-.16-17.85-.07-26.77C323.5,266.93,323.65,263.61,323.77,260.29Z"/><path class="cls-11" d="M264.54,208.88a97,97,0,0,1-24.22-10,4.67,4.67,0,0,1-1.53-1.21,4.87,4.87,0,0,1-.69-2.13c-2.13-13.61-2.26-31.77-2.33-45.8,0-2,2.7-2.82,3.79-4.46a8.85,8.85,0,0,0,1.07-2.75,7.9,7.9,0,0,0,.38-3,2.81,2.81,0,0,0-1.7-2.34,6.38,6.38,0,0,0-.5-4c-.65-.93-2.21-1.25-2.9-.35a3.32,3.32,0,0,0-2.46-2.54,2.15,2.15,0,0,0-2.22,1.68,2.82,2.82,0,0,0-3-.24,2.13,2.13,0,0,0-.69,2.54c-.25-.6-1.41-.41-2-.08a2.89,2.89,0,0,0-1.11,1.57,11.88,11.88,0,0,0-.73,4.65c.9,18.75-3,41.9-3.34,60.68-.05,2.85,0,5.83,1.24,8.39a16.41,16.41,0,0,0,5.47,5.74c8.25,5.95,17.8,9.79,27.25,13.56C259.23,223,262.09,216.1,264.54,208.88Z"/><path class="cls-12" d="M287.19,212.7c-9.16-1.46-18.72-3.56-27-7.72-5.66,8.09-11.5,15.64-14.87,24.93,2.33,1.27,4.9,3,7.18,4.3,2.85,1.68,2.88,8.57,2.31,11.83s2.52,7.27,4.91,9.54c.88.84-1-4.31.14-4.71a5,5,0,0,0,2.23-2.12C270.5,236.3,275.42,222,287.19,212.7Z"/><path class="cls-5" d="M239.6,137.25a9.7,9.7,0,0,0-6.62-.69c-1.94.5-4.17,1.71-4.82,3.74a2.81,2.81,0,0,0,2.37,3.86,2.9,2.9,0,0,0,2.23-1c.37-.35,1.37-.75,1.11.28a1.8,1.8,0,0,1-.47.71,13.22,13.22,0,0,1-1.38,1.09,3.25,3.25,0,0,0-.32,5c.17.15.42-.1.25-.25a2.88,2.88,0,0,1-.89-2.74A3.85,3.85,0,0,1,232.9,145a3,3,0,0,0,1.38-1.73.78.78,0,0,0-1-.9,1.74,1.74,0,0,0-.86.58,2.54,2.54,0,0,1-1.32.83,2.27,2.27,0,0,1-2.65-1.48c-.79-2.39,1.58-4.27,3.53-5a9.28,9.28,0,0,1,7.41.3c.2.1.38-.2.18-.3Z"/><path class="cls-5" d="M229,143.05a4.29,4.29,0,0,0,1.72-1.81,2.29,2.29,0,0,0,0-1.37c-.13-.56-.29-1.12-.44-1.68-.05-.22-.4-.12-.34.1.13.47.25.94.38,1.41a2.32,2.32,0,0,1,.05,1.38,3.8,3.8,0,0,1-1.58,1.67c-.18.13,0,.43.18.3Z"/><path class="cls-5" d="M239.49,137.3c.1-1.47.45-3.41-.74-4.56a2,2,0,0,0-1.7-.59,2.05,2.05,0,0,0-1.39,1.3,5.26,5.26,0,0,0-.32,1.37c-.07.5-.13,1-.2,1.51,0,.22.33.22.36,0,.06-.51.12-1,.19-1.53a4.73,4.73,0,0,1,.34-1.33,1.47,1.47,0,0,1,1.84-.9c1.82.7,1.37,3.23,1.27,4.73,0,.23.34.23.35,0Z"/><path class="cls-5" d="M236.23,132.88a3,3,0,0,0-3.64-2.65c-2,.57-1.88,3.06-1.77,4.71a8.66,8.66,0,0,0,.31,1.82c0,.15.08.42.26.48a.22.22,0,0,0,.28-.16.2.2,0,0,0,0-.18h0c-.17-.16-.42.09-.25.24l0,0,0-.17,0,0h.18c-.07-.05-.11-.36-.13-.44l-.09-.35c-.06-.3-.1-.6-.13-.9,0-.51-.06-1-.06-1.54a3.62,3.62,0,0,1,.72-2.66,2.21,2.21,0,0,1,2.54-.29,3.07,3.07,0,0,1,1.49,2.22c0,.22.38.13.34-.09Z"/><path class="cls-5" d="M231.27,131.75c-.45-.88-1.53-.61-2.29-.38a2.3,2.3,0,0,0-1.74,1.62,5.33,5.33,0,0,0,.4,3,11.55,11.55,0,0,0,1.41,2.78c.12.19.43,0,.3-.18a11.78,11.78,0,0,1-1.17-2.15,8.19,8.19,0,0,1-.67-2.51,2,2,0,0,1,1.05-2c.64-.29,2-.79,2.41,0,.1.2.41,0,.3-.18Z"/><path class="cls-5" d="M227.42,133.81a2.55,2.55,0,0,0-2.35.57,2.91,2.91,0,0,0-.88,2.42,4.56,4.56,0,0,0,1.26,2.53,3.36,3.36,0,0,0,2.3,1.37c.23,0,.23-.34,0-.35a3,3,0,0,1-2-1.19,4.53,4.53,0,0,1-1.21-2.23,2.61,2.61,0,0,1,.67-2.2,2.17,2.17,0,0,1,2.11-.58.18.18,0,0,0,.09-.34Z"/><path class="cls-5" d="M225.76,136.19l0-.07,0,0A1,1,0,0,1,226,136l0,0a1.35,1.35,0,0,1,.26-.15l0,0h0a.23.23,0,0,0,.11-.08.23.23,0,0,0,0-.14.2.2,0,0,0-.08-.1.14.14,0,0,0-.14,0,1.11,1.11,0,0,0-.19.09,1.18,1.18,0,0,0-.18.13,1.2,1.2,0,0,0-.26.29.18.18,0,0,0,.06.24.19.19,0,0,0,.25-.06Z"/><path class="cls-5" d="M225.59,135.49l.44-.36a.21.21,0,0,0,.05-.13.18.18,0,0,0-.05-.12.15.15,0,0,0-.12,0,.21.21,0,0,0-.13,0l-.44.36a.21.21,0,0,0-.05.13.18.18,0,0,0,.05.12.16.16,0,0,0,.12.06.22.22,0,0,0,.13-.06Z"/><path class="cls-5" d="M228.87,133.61l.44-.22a.18.18,0,0,0,.08-.11.19.19,0,0,0,0-.13.19.19,0,0,0-.25-.07l-.44.23a.16.16,0,0,0-.08.1.23.23,0,0,0,0,.14.19.19,0,0,0,.24.06Z"/><path class="cls-5" d="M229,133l.22-.07a.2.2,0,0,0,.11-.09.14.14,0,0,0,0-.06s0-.05,0-.07a.23.23,0,0,0-.08-.11.17.17,0,0,0-.14,0l-.22.07a.21.21,0,0,0-.11.08.14.14,0,0,0,0,.07.2.2,0,0,0,0,.07.16.16,0,0,0,.08.1.2.2,0,0,0,.13,0Z"/><path class="cls-5" d="M232.29,132.58l.66-.13a.18.18,0,0,0,.13-.21.18.18,0,0,0-.22-.13l-.67.13a.18.18,0,1,0,.1.34Z"/><path class="cls-5" d="M232.64,131.85l.37.08a.2.2,0,0,0,.13,0,.15.15,0,0,0,.08-.11.15.15,0,0,0,0-.13.16.16,0,0,0-.1-.08l-.37-.08a.19.19,0,0,0-.13,0,.19.19,0,0,0-.09.11.2.2,0,0,0,0,.13s.06.08.11.08Z"/><path class="cls-5" d="M236.5,133.45l.3.22a.07.07,0,0,0,.06,0h.07a.15.15,0,0,0,.11-.08.22.22,0,0,0,0-.14l0,0s0-.05-.06-.06l-.3-.22-.06,0h-.07a.18.18,0,0,0-.11.08.22.22,0,0,0,0,.14l0,0a.17.17,0,0,0,.06.06Z"/><path class="cls-5" d="M237.25,133.48a.18.18,0,0,0,0-.35.18.18,0,0,0,0,.35Z"/><path class="cls-5" d="M227.3,149.58a4.21,4.21,0,0,0,1.36-3.87c0-.22-.38-.13-.34.09a3.85,3.85,0,0,1-1.27,3.53c-.18.15.07.4.25.25Z"/><path class="cls-5" d="M231.17,201.65a13.33,13.33,0,0,1,4.36-2.22.18.18,0,0,0-.09-.34,13.4,13.4,0,0,0-4.44,2.25c-.18.14,0,.45.17.31Z"/><path class="cls-5" d="M234.84,201.18l1.62-1.18a.17.17,0,0,0,.06-.24.17.17,0,0,0-.24-.06l-1.62,1.18a.19.19,0,0,0-.06.24.18.18,0,0,0,.24.06Z"/><path class="cls-11" d="M330.94,239.26a308,308,0,0,0,19.4,29.2c4.46-8.15,10.16-15.86,11.79-25a13.37,13.37,0,0,0,.22-5.41c-.2-.82-.55-1.59-.78-2.4a6,6,0,0,1,.24-4.25,3.82,3.82,0,0,1,3.47-2.2c.37,0,.92-.34.59-.51a4.3,4.3,0,0,1,2.06-3.3,3.73,3.73,0,0,1,2.87,1.25c.78-1.56,3.71-.82,3.66.93,1.67-1,4.11,1.09,3.38,2.9.6-.47,1.55,0,1.81.75a3.69,3.69,0,0,1-.18,2.24,557.37,557.37,0,0,1-18.81,52.78,7.33,7.33,0,0,1-4.53,4.2,16.78,16.78,0,0,1-6.44.4c-8.16-.63-32.63-30.38-36.19-39C312.69,241.72,329.49,249.3,330.94,239.26Z"/><path class="cls-12" d="M311.39,263.17a56.31,56.31,0,0,0,24.1-19.65c-7.94-9.53-16.21-19.34-27.35-24.81C304.58,232.83,306,249.63,311.39,263.17Z"/><path class="cls-5" d="M365.4,229.43a8.69,8.69,0,0,1,5.55,1.4c1.74,1.18,3.49,3.66,2.51,5.83a2.26,2.26,0,0,1-2.74,1.38,1.85,1.85,0,0,1-1.12-1.15,3.26,3.26,0,0,1,.11-1.39c.07-.55-.12-1.18-.8-1.13a1.86,1.86,0,0,0-1.42,1.48c-.25,1,.32,1.75.73,2.62a2.08,2.08,0,0,1-1.31,2.95c-.22.05-.13.39.09.34a2.45,2.45,0,0,0,1.68-1.57,3,3,0,0,0-.51-2.56,2.17,2.17,0,0,1-.26-1.91,1.75,1.75,0,0,1,.54-.77c.3-.23.74-.47.93.24a1.43,1.43,0,0,1-.06.5,2.14,2.14,0,0,0,.56,2.25c1.46,1.3,3.5.19,4-1.48.64-2-.65-4.23-2.18-5.49a8.91,8.91,0,0,0-6.33-1.89c-.22,0-.22.37,0,.35Z"/><path class="cls-5" d="M373.81,234.05a2,2,0,0,0-1.73,1.33,2.8,2.8,0,0,0,.41,2.5c.13.18.43,0,.31-.18a2.47,2.47,0,0,1-.41-2.13,1.68,1.68,0,0,1,1.42-1.17c.22,0,.22-.37,0-.35Z"/><path class="cls-5" d="M365.94,229a5,5,0,0,1,.93-2.43,2.07,2.07,0,0,1,2.1-1.08,4,4,0,0,1,1.2.6.92.92,0,0,1,.43.5,2.08,2.08,0,0,1,0,.66,9.32,9.32,0,0,1-.67,2.74c-.09.21.25.3.34.09a9.59,9.59,0,0,0,.64-2.46,2.74,2.74,0,0,0,0-1.21,1.62,1.62,0,0,0-.7-.72,2.65,2.65,0,0,0-2.14-.53,3.2,3.2,0,0,0-1.6,1.37,5.5,5.5,0,0,0-.89,2.47c0,.22.33.22.36,0Z"/><path class="cls-5" d="M371,226.48c.18-.58,1.29-.5,1.76-.47a1.49,1.49,0,0,1,1.5,1.39,5.26,5.26,0,0,1-.54,2.32,11.27,11.27,0,0,1-1.13,2.11c-.12.19.18.37.31.18a12,12,0,0,0,1.31-2.6,3.68,3.68,0,0,0,.22-2.72,2,2,0,0,0-2-1c-.62,0-1.54,0-1.76.74a.18.18,0,0,0,.34.09Z"/><path class="cls-5" d="M374.62,227.55a2.41,2.41,0,0,1,2.6.53,2.49,2.49,0,0,1,.51,2.58,12.61,12.61,0,0,1-1.26,2.65c-.51.83-1.34,1.71-2.41,1.38-.22-.07-.31.27-.1.34a2.43,2.43,0,0,0,2.62-1.24,13.54,13.54,0,0,0,.88-1.58,9.71,9.71,0,0,0,.69-1.71,2.81,2.81,0,0,0-.76-2.75,2.77,2.77,0,0,0-2.87-.54c-.21.08-.11.42.1.34Z"/><path class="cls-5" d="M373.7,233.31a1,1,0,0,1,1.15-.42,2.28,2.28,0,0,1,1.22,1c.13.18.43,0,.3-.18a2.56,2.56,0,0,0-1.5-1.16,1.36,1.36,0,0,0-1.47.59c-.11.2.19.38.3.18Z"/><path class="cls-5" d="M378.16,230.51a.81.81,0,0,1,1,.38,2.36,2.36,0,0,1,.3,1.16,5.88,5.88,0,0,1-.6,2.36,2.39,2.39,0,0,1-1.48,1.61,1.27,1.27,0,0,1-1.53-1.39c0-.23-.33-.23-.35,0a1.61,1.61,0,0,0,1,1.67,1.79,1.79,0,0,0,1.92-.52,5.51,5.51,0,0,0,1.07-2.15,3.77,3.77,0,0,0,.13-2.5c-.24-.71-.95-1.33-1.7-.92a.17.17,0,0,0,.17.3Z"/><path class="cls-5" d="M376.58,233.89a1.74,1.74,0,0,1,.86,1.86c-.05.22.29.32.34.1a2.1,2.1,0,0,0-1-2.27c-.2-.1-.38.2-.18.31Z"/><path class="cls-5" d="M376,229.12l.37.08a.32.32,0,0,0,.14,0,.23.23,0,0,0,.08-.11.15.15,0,0,0,0-.13.13.13,0,0,0-.1-.08l-.37-.08a.17.17,0,0,0-.14,0,.16.16,0,0,0-.08.1.17.17,0,0,0,0,.14.16.16,0,0,0,.1.08Z"/><path class="cls-5" d="M376.23,228.54a.18.18,0,0,0,0-.35.18.18,0,0,0,0,.35Z"/><path class="cls-5" d="M378.49,231.8l.07.22a.2.2,0,0,0,.08.1s.05,0,.07,0h.07a.16.16,0,0,0,.1-.08.13.13,0,0,0,0-.13l-.07-.23a.2.2,0,0,0-.08-.1l-.07,0a.08.08,0,0,0-.07,0,.2.2,0,0,0-.1.08.17.17,0,0,0,0,.14Z"/><path class="cls-5" d="M378.88,231.85a.18.18,0,0,0,0-.35.18.18,0,0,0,0,.35Z"/><path class="cls-5" d="M372.5,227.53a.71.71,0,0,0,.56.2.22.22,0,0,0,.12,0,.16.16,0,0,0,0-.25.15.15,0,0,0-.12-.05H373l-.14,0,0,0-.13-.07,0,0-.05,0a.15.15,0,0,0-.24,0,.17.17,0,0,0,0,.25Z"/><path class="cls-5" d="M372.62,227a.18.18,0,0,0,0-.35.18.18,0,0,0,0,.35Z"/><path class="cls-5" d="M369.08,227.29h.07a.16.16,0,0,0,.13-.06.05.05,0,0,0,0,0,.1.1,0,0,0,0-.07.17.17,0,0,0-.18-.18h-.07a.21.21,0,0,0-.13,0l0,.06a.14.14,0,0,0,0,.07.26.26,0,0,0,.05.12.18.18,0,0,0,.13.06Z"/><path class="cls-5" d="M368.62,226.24l.21.15.07,0H369l.06,0,.05,0a.17.17,0,0,0,0-.14v0a.13.13,0,0,0-.07-.06l-.22-.15-.06,0h-.07a.06.06,0,0,0-.06,0,.12.12,0,0,0-.05.05.2.2,0,0,0,0,.13l0,.05.07.06Z"/><path class="cls-5" d="M372.47,239.94a4,4,0,0,0,.54,3.74c.14.18.45,0,.31-.18a3.64,3.64,0,0,1-.51-3.47c.08-.21-.26-.3-.34-.09Z"/><path class="cls-5" d="M352.11,265.31c-2.7,3.88-5.23,8.08-5.68,12.89,0,.22.34.22.36,0,.44-4.74,3-8.89,5.62-12.71.13-.19-.17-.37-.3-.18Z"/><path class="cls-5" d="M347.86,270.44a10.07,10.07,0,0,0-1.73,2.93c-.08.21.26.31.34.1a9.62,9.62,0,0,1,1.64-2.78c.15-.17-.1-.42-.25-.25Z"/><path class="cls-5" d="M310.59,222.11c-4.75,5.54-6.6,12.91-6.33,20.1a52.76,52.76,0,0,0,2.2,12.64c.58,2,1.2,4,2,6a8.88,8.88,0,0,0,2.21,3.57c2.92,2.53,6.35-.15,8.51-2.31.17-.16-.08-.41-.25-.25-1.52,1.52-3.5,3.42-5.83,3.24-2.49-.19-3.68-2.67-4.44-4.72a66.22,66.22,0,0,1-3.54-13.26c-1.3-8.61-.07-17.94,5.76-24.74.15-.17-.1-.42-.25-.25Z"/><path class="cls-5" d="M310.62,264a68.13,68.13,0,0,0,24.6-19.72c.13-.18-.11-.43-.25-.25a68,68,0,0,1-24.53,19.67c-.21.1,0,.4.18.3Z"/><path class="cls-5" d="M279.51,213.78a55.61,55.61,0,0,0-20.2,20.88c-.11.2.2.38.31.18a55.17,55.17,0,0,1,20.07-20.76c.19-.12,0-.42-.18-.3Z"/><path class="cls-5" d="M257.6,236.46a23.57,23.57,0,0,0-2.74,8.33c0,.22.32.22.35,0a23.24,23.24,0,0,1,2.69-8.15c.11-.2-.19-.38-.3-.18Z"/><path class="cls-5" d="M317.09,267.79q-.55,13.95-2.19,27.81c0,.23.33.23.35,0q1.63-13.86,2.19-27.81c0-.23-.34-.23-.35,0Z"/><path class="cls-1" d="M590.2,445.52s-1.26,31.4,27.26,28l-12.93-35.37L590.18,430Z"/><path class="cls-5" d="M613.28,474c-6.11,0-11.14-1.79-15-5.33-8.76-8.1-8.33-22.79-8.32-23.13l0-15.92L604.71,438l0,.08,13,35.63-.28,0A36.12,36.12,0,0,1,613.28,474ZM590.4,430.37l0,15.16c0,.15-.48,14.78,8.19,22.79,4.53,4.19,10.76,5.87,18.54,5l-12.8-35Z"/><path class="cls-5" d="M613,474.2a.44.44,0,0,1-.43-.31L600.82,436.4a.44.44,0,0,1,.29-.56.43.43,0,0,1,.56.29l11.74,37.49a.43.43,0,0,1-.29.56A.3.3,0,0,1,613,474.2Z"/><path class="cls-5" d="M596.77,467.17a.43.43,0,0,1-.19,0,.45.45,0,0,1-.21-.6c0-.07,3.38-6.76,13.1-4.73a.45.45,0,0,1,.35.54.43.43,0,0,1-.53.34c-9-1.88-12,4-12.11,4.24A.45.45,0,0,1,596.77,467.17Z"/><path class="cls-13" d="M576.59,315.5l-19,44.12c-2.15,5-4.33,10.1-4.58,15.51-.32,6.63,2.27,13,4.8,19.13l23.85,57.61A94.74,94.74,0,0,0,618,433.38c-12.93-14-23.25-30.83-26.61-49.62a14.38,14.38,0,0,0-1.52-5.09c-.82-1.37-2.14-2.47-2.6-4a7.1,7.1,0,0,1-.18-2.52,35.61,35.61,0,0,1,1.73-9,62.06,62.06,0,0,1,5.08-10.75c8.22-14.59,18.2-29.47,18-46.22a2.61,2.61,0,0,0-3.26-3.21C597.5,303.77,581,305.27,576.59,315.5Z"/><path class="cls-5" d="M596.62,339.56c-4.88,7-9.78,14.15-12.84,22.17a40.8,40.8,0,0,0-2.71,12c-.19,3,.89,10.32-3.94,10.22a3.25,3.25,0,0,1-2.55-5.3c2-2.58,5.28-.83,6.56,1.53,1,1.94,1.37,4.25,2,6.35s1.25,4,2,5.91a96,96,0,0,0,12.11,21.34,279.26,279.26,0,0,0,18.14,21.62c.15.16.38-.08.24-.23-12.85-14.26-26.33-29.3-32-48.06-1-3.37-1.44-9-5.63-10-2.92-.71-5.72,2.71-4.06,5.37a3.78,3.78,0,0,0,6.61-.42,11.43,11.43,0,0,0,.79-5,41.83,41.83,0,0,1,.57-7.5c2-11.1,8.66-20.73,15-29.81.12-.17-.17-.34-.29-.16Z"/><path class="cls-1" d="M651.35,445.52s-1.26,31.4,27.25,28l-12.93-35.37L651.33,430Z"/><path class="cls-5" d="M674.42,474c-6.11,0-11.13-1.79-15-5.33-8.76-8.1-8.34-22.79-8.33-23.13l0-15.92L665.86,438l0,.08,13,35.63-.28,0A36.29,36.29,0,0,1,674.42,474Zm-22.87-43.61,0,15.16c0,.15-.49,14.78,8.18,22.79,4.53,4.19,10.77,5.87,18.55,5l-12.81-35Z"/><path class="cls-5" d="M674.13,474.2a.45.45,0,0,1-.43-.31L662,436.4a.45.45,0,0,1,.3-.56.44.44,0,0,1,.56.29l11.74,37.49a.45.45,0,0,1-.29.56A.34.34,0,0,1,674.13,474.2Z"/><path class="cls-5" d="M657.92,467.17a.43.43,0,0,1-.19,0,.44.44,0,0,1-.21-.6c0-.07,3.37-6.76,13.1-4.73a.46.46,0,0,1,.35.54.44.44,0,0,1-.53.34c-9-1.88-12,4-12.11,4.24A.45.45,0,0,1,657.92,467.17Z"/><path class="cls-13" d="M599.59,313.27c-2.81,14.13,6.44,43.92,6.9,61.31.15,5.59.19,11.75,1.5,17.18,1.23,5.13,3.94,9.73,6.6,14.23Q629.8,431.73,645,457.47c12.25-4.72,23.17-13.55,29.61-25.38a194.4,194.4,0,0,0-35-43.88c2.11-.64,2.46-3.89,1.14-5.71s-3.58-2.57-5.69-3.21c4.19-9.5,1.35-40.47.11-50.84-1.63-13.56-8.17-26.94-14.88-34.73C618.91,292.06,600.49,312.78,599.59,313.27Z"/><path class="cls-5" d="M602.59,345l-1.19-5.29a27.79,27.79,0,0,0-1.28-4.94c-1.06-2.48-3.62-3.6-6-4.55-.2-.08-.28.23-.09.31,2.67,1.08,5.2,2.33,6.09,5.28.43,1.44.69,2.94,1,4.41l1.1,4.86c.05.21.36.12.32-.08Z"/><path class="cls-5" d="M598.28,335.65l-3.85-.8c-.21-.05-.29.27-.09.31l3.85.81c.21,0,.3-.27.09-.32Z"/><path class="cls-5" d="M618.14,316.4a12.5,12.5,0,0,0,16.13,8.47c.2-.07.11-.39-.09-.32a12.18,12.18,0,0,1-15.73-8.23.16.16,0,1,0-.31.08Z"/><path class="cls-5" d="M629.6,325.56a239.38,239.38,0,0,1,2,29.55q0,7.54-.41,15.09c-.14,2.46-.33,4.93-.55,7.39s0,5.52-1.57,7.42c-1,1.2-3,1.91-4,.4a2.91,2.91,0,0,1-.06-2.9c1.42-2.56,5-1,6.06,1s1,4.11,1.75,6.06a16,16,0,0,0,2.5,4.25c2.5,3.13,5.77,5.53,8.78,8.13q5.07,4.38,9.75,9.19a154,154,0,0,1,18.76,23.59c.11.17.4,0,.28-.17a154.2,154.2,0,0,0-18.81-23.65q-5.26-5.42-11-10.3c-3.52-3-7.46-5.93-9.49-10.19-1.51-3.17-1-8.72-5.46-9.47-2.66-.45-5,2.59-3.12,4.89a2.62,2.62,0,0,0,3.44.28c1.63-1,2-3,2.23-4.78.66-5.6,1-11.25,1.18-16.88a240.56,240.56,0,0,0-1.85-38.88c0-.21-.35-.21-.33,0Z"/><path class="cls-14" d="M570,292c-6,7.47-12.9,14.1-19.8,20.7-3,2.81-6.82,5.85-10.66,4.5a10.67,10.67,0,0,1-4-3c-9.6-10.11-16.45-22.47-24-34.19-3.13-4.85-4.71-10.65-8.35-15.13a12.16,12.16,0,0,1-2.45-3.57c-.47-1.37-.11-3.18,1.22-3.77a3.8,3.8,0,0,1,1.87-5.58,3.92,3.92,0,0,1,3.12-4.44l-2.87-6.74c-.92-2.15-1.85-4.45-1.46-6.75a3.41,3.41,0,0,1,1.32-2.31,3.15,3.15,0,0,1,3.87.86,9.21,9.21,0,0,1,1.68,3.94l2.35,9.4c1.07-1.35,3.43-.83,4.41.59s.93,3.29.68,5a64.48,64.48,0,0,0,.74,10.47,102.57,102.57,0,0,0,7.41,12.53c4.62,7.12,10.54,12.62,16,19.09a254.4,254.4,0,0,1,22-27.35C565.78,275.2,568.42,282.68,570,292Z"/><path class="cls-15" d="M568.61,258.2a108.6,108.6,0,0,0-19.85,19.06c.17.08,11.15,16.27,19.36,22.21A250.6,250.6,0,0,1,568.61,258.2Z"/><path class="cls-5" d="M512.32,245.23a13.11,13.11,0,0,0-5.75,8.62c-.3,1.66-.47,3.77.48,5.26a2.38,2.38,0,0,0,3.39.92c.67-.5.68-1.21.75-2,0-.56.22-1,.87-1.14a1.62,1.62,0,0,1,1,.42c.57.39,1.12.83,1.67,1.25.17.13.34-.16.17-.28-.74-.56-1.68-1.56-2.65-1.7a1.19,1.19,0,0,0-1.39,1.11,8.23,8.23,0,0,1-.16,1.4,1.62,1.62,0,0,1-1.64,1c-1.56-.1-2.23-1.82-2.36-3.14a12.67,12.67,0,0,1,5.76-11.46c.18-.11,0-.4-.17-.28Z"/><path class="cls-5" d="M508.13,259.84a2.63,2.63,0,0,0,.73-2.65,2.66,2.66,0,0,0-1.95-1.79c-.2,0-.29.28-.09.32a2.25,2.25,0,0,1,1.08,3.89c-.16.14.07.37.23.23Z"/><path class="cls-5" d="M509.55,265.57a7.91,7.91,0,0,0,.92-2.79.18.18,0,0,0-.17-.17c-.1,0-.15.08-.16.17a7.19,7.19,0,0,1-.88,2.62c-.1.19.19.35.29.17Z"/><path class="cls-5" d="M508.53,251.65l.39.12a.17.17,0,0,0,.2-.12.16.16,0,0,0-.11-.2l-.39-.12a.17.17,0,0,0-.2.12.17.17,0,0,0,.11.2Z"/><path class="cls-5" d="M509.15,251l.17.28a.18.18,0,0,0,.1.07.16.16,0,0,0,.12,0,.19.19,0,0,0,.08-.1.15.15,0,0,0,0-.13l-.16-.28a.23.23,0,0,0-.1-.07.15.15,0,0,0-.13,0s-.07.05-.07.09a.19.19,0,0,0,0,.13Z"/><path class="cls-5" d="M502.19,263.68a4,4,0,0,0,2.25,1.81,2,2,0,0,0,2.2-.83,3,3,0,0,0,.19-2.6,8.67,8.67,0,0,0-1.52-2.74,8.41,8.41,0,0,0-3.25-2c-.19-.09-.35.19-.16.28A9,9,0,0,1,505,259.4a8.34,8.34,0,0,1,1,1.45,6.73,6.73,0,0,1,.71,1.68,2.12,2.12,0,0,1-1.15,2.63c-1.27.37-2.34-.7-3-1.64-.12-.18-.41,0-.29.16Z"/><path class="cls-5" d="M506.7,254.54a9.1,9.1,0,0,0-1.51-1.88c-.48-.44-1.18-1.19-1.86-.74a4.63,4.63,0,0,0-1.87,3.4,4.5,4.5,0,0,0,.37,2.23c.08.2.36,0,.28-.16a4.45,4.45,0,0,1,.5-4.29,3.89,3.89,0,0,1,.79-.83.57.57,0,0,1,.74,0,4.34,4.34,0,0,1,.54.42,8.58,8.58,0,0,1,1.74,2.06.16.16,0,0,0,.28-.17Z"/><path class="cls-5" d="M506.55,262c.5.31,1.12,0,1.57-.28a1.56,1.56,0,0,0,.91-1.15c0-.21-.31-.21-.33,0,0,.41-.42.68-.75.87s-.85.51-1.23.27c-.18-.11-.35.17-.17.29Z"/><path class="cls-5" d="M504.17,251.8a4,4,0,0,1,1.2-3.51,1.66,1.66,0,0,1,1.74-.45,3.18,3.18,0,0,1,1.51,1.18c.13.17.36-.07.23-.23a3.32,3.32,0,0,0-1.73-1.29,2,2,0,0,0-1.88.45,5,5,0,0,0-1.17,1.77,3.52,3.52,0,0,0-.21,2.17c.05.21.36.12.31-.09Z"/><path class="cls-5" d="M505.63,250.66l.33-.89a.18.18,0,0,0-.12-.2.17.17,0,0,0-.2.11l-.33.89a.17.17,0,0,0,.12.2.17.17,0,0,0,.2-.11Z"/><path class="cls-5" d="M505.85,249.44,506,249a.2.2,0,0,0,0-.13.18.18,0,0,0-.1-.07.16.16,0,0,0-.12,0,.25.25,0,0,0-.08.1l-.17.44a.19.19,0,0,0,0,.13.14.14,0,0,0,.1.07.16.16,0,0,0,.12,0,.25.25,0,0,0,.08-.1Z"/><path class="cls-5" d="M503.32,255.26a1.34,1.34,0,0,1,0-.2h0V255a.29.29,0,0,0,0-.09l0-.09s0-.06,0,0l0,0a1,1,0,0,1,.1-.17.17.17,0,0,0-.06-.23.17.17,0,0,0-.22.06,1.47,1.47,0,0,0-.25.86.17.17,0,0,0,.17.16.16.16,0,0,0,.16-.16Z"/><path class="cls-5" d="M502.93,254.36a.73.73,0,0,1,.07-.24l0,0a.51.51,0,0,1,.09-.16l0,0s0,0,0,0v0l.06-.07a.15.15,0,0,0,0-.23.16.16,0,0,0-.23,0,1.16,1.16,0,0,0-.32.63.25.25,0,0,0,0,.12.16.16,0,0,0,.1.08.15.15,0,0,0,.13,0,.14.14,0,0,0,.07-.1Z"/><path class="cls-5" d="M506.2,261.11a1.78,1.78,0,0,0-.87.76,1.38,1.38,0,0,0-.25,1.19,7.79,7.79,0,0,0,.57,1.29c.07.14.16.38.37.3a.19.19,0,0,0,0-.35c-.18-.12-.34.17-.17.28h0l-.08-.14v0l.1-.07c.09,0,.11,0,.06,0l-.05-.11-.11-.23-.2-.4a2,2,0,0,1-.27-.88,1.28,1.28,0,0,1,.35-.75c.16-.19.33-.43.58-.49s.12-.37-.09-.32Z"/><path class="cls-5" d="M502.82,260.52l0-.08v0s0,0,0,0,0,0,0,0v-.16s0,0,0,0,0,0,0,0,0-.05,0-.07v0s0,0,0,0v0a.3.3,0,0,1,0-.08.15.15,0,0,0-.06-.22.16.16,0,0,0-.22.06.89.89,0,0,0-.08.79.25.25,0,0,0,.08.1.13.13,0,0,0,.12,0,.16.16,0,0,0,.12-.2Z"/><path class="cls-5" d="M502.49,259.34l.39-1a.17.17,0,0,0-.12-.2.17.17,0,0,0-.2.12l-.39,1a.16.16,0,0,0,.11.2.18.18,0,0,0,.21-.11Z"/><path class="cls-5" d="M507.05,241.79a1.66,1.66,0,0,0,.91-.53.17.17,0,0,0,0-.23.17.17,0,0,0-.24,0l-.16.16,0,0s0,0,0,0l0,0-.1.06-.1.06-.06,0s0,0,0,0l0,0a2.1,2.1,0,0,1-.24.06.17.17,0,0,0-.11.21.16.16,0,0,0,.2.11Z"/><path class="cls-5" d="M507,241l.44-.21a.16.16,0,0,0,.08-.1.16.16,0,0,0-.12-.2.17.17,0,0,0-.12,0l-.45.22a.18.18,0,0,0-.07.1.16.16,0,0,0,0,.12.16.16,0,0,0,.23.06Z"/><path class="cls-5" d="M536.85,289.11q5.63,6.34,11.58,12.39c.15.16.38-.08.23-.23q-5.94-6-11.58-12.39c-.14-.16-.37.07-.23.23Z"/><path class="cls-5" d="M544,295.79l2.56,1.52a.16.16,0,0,0,.17-.28l-2.56-1.52a.16.16,0,0,0-.17.28Z"/><path class="cls-5" d="M570.45,224c-3.56.39-7.11-1.64-9.2-4.55a18.35,18.35,0,0,1-3-10.17,14.15,14.15,0,0,1,1.16-6.7,7,7,0,0,1,5.24-4c3.49-.36,6.59,2.93,7,6.42a10.34,10.34,0,0,1,13.1,9.93,3.91,3.91,0,0,1,5.2,1.45,9.18,9.18,0,0,1,1,6.07,48.58,48.58,0,0,0-.75,6.23c0,1.78.41,3.76-.63,5.22-1.23,1.7-3.88,1.7-5.72.68s-3.11-2.78-4.56-4.3a22.69,22.69,0,0,0-6-4.49,3.76,3.76,0,0,1-1.42-1C571.48,224.34,570,224.36,570.45,224Z"/><path class="cls-14" d="M581.45,248.76c-.77-4-.86-5.27-1.72-9.1-2.52,1.07-5.66,2-8.43,1.13-1.91-.63-2.08-3.5-2.59-5.44a37.52,37.52,0,0,1-1-13.47,5.94,5.94,0,0,1,.83-2.78,4.46,4.46,0,0,1,3-1.68,8.54,8.54,0,0,1,6.54,1.74,11.16,11.16,0,0,1,3.78,5.7,2.69,2.69,0,0,1,3-2.28,4.66,4.66,0,0,1,2.49,1.71,6.23,6.23,0,0,1,1,1.5,3.81,3.81,0,0,1-4.93,5c2.28,4.66,5,10.27,7.26,14.93l13.52,3.71s-11.12,24.57-22,25.43c0,0-10.23-9.8-7.63-19.18Z"/><path class="cls-5" d="M583.69,225.42a2.27,2.27,0,0,1,1.8,3.39c-.11.2.19.38.3.18a2.61,2.61,0,0,0-2.1-3.92c-.22,0-.22.33,0,.35Z"/><path class="cls-5" d="M585.41,226.57a1.46,1.46,0,0,0-1,1.5.18.18,0,0,0,.17.18.18.18,0,0,0,.18-.18,1.27,1.27,0,0,1,0-.2,1.22,1.22,0,0,1,0-.17l0-.1,0,0s0,0,0,0a1.14,1.14,0,0,1,.1-.19,1.5,1.5,0,0,1,.24-.27l.15-.1a.61.61,0,0,1,.17-.07.18.18,0,0,0,.12-.22.17.17,0,0,0-.21-.12Z"/><path class="cls-5" d="M585.68,249.22a2.65,2.65,0,0,1,1.16-1.25.18.18,0,0,0,.06-.23.18.18,0,0,0-.24-.07,2.91,2.91,0,0,0-1.28,1.38.17.17,0,1,0,.3.17Z"/><path class="cls-5" d="M584.1,249.53a3.29,3.29,0,0,0-1.24-1.27c-.19-.12-.37.18-.17.3a2.92,2.92,0,0,1,1.11,1.15.18.18,0,0,0,.24.06.19.19,0,0,0,.06-.24Z"/><path class="cls-5" d="M575.87,226.35a2.78,2.78,0,0,1-.26,1.63,1.65,1.65,0,0,1-1.06,1,1.06,1.06,0,0,1-1-.64,11.87,11.87,0,0,1-.72-1.53c-.09-.21-.39,0-.3.17a15.48,15.48,0,0,0,.65,1.44,1.82,1.82,0,0,0,.85.84c.95.38,1.74-.56,2-1.34a3.21,3.21,0,0,0,.19-1.65c0-.22-.37-.13-.34.09Z"/><path class="cls-5" d="M570,227.28c-.11.8-.34,2-1.36,2.06a.85.85,0,0,1-.85-.72c-.15-.51-.21-1.05-.31-1.58,0-.22-.38-.13-.34.1.09.47.16,1,.28,1.43a1.29,1.29,0,0,0,2.53.22,4.12,4.12,0,0,0,.39-1.41.19.19,0,0,0-.13-.22.17.17,0,0,0-.21.12Z"/><path class="cls-5" d="M577,224.14a7.07,7.07,0,0,0-3.3-1.29.29.29,0,0,0-.29.29c0,.17.13.26.29.28a6.56,6.56,0,0,1,3,1.22.29.29,0,0,0,.39-.11.3.3,0,0,0-.11-.39Z"/><path class="cls-5" d="M569.74,223.44a8.38,8.38,0,0,0-2.23.65.29.29,0,0,0-.1.39.3.3,0,0,0,.39.1,8,8,0,0,1,2.09-.59.29.29,0,0,0-.15-.55Z"/><path class="cls-5" d="M582.69,233.85a8.78,8.78,0,0,1-.07,2.11,3.36,3.36,0,0,1-.76,1.91,7.44,7.44,0,0,1-1.63,1.16c-.59.35-1.2.67-1.82,1-.2.1,0,.4.18.3a19.35,19.35,0,0,0,2-1.07,6.57,6.57,0,0,0,1.65-1.26,3.8,3.8,0,0,0,.7-1.85,9.51,9.51,0,0,0,.09-2.26c0-.23-.37-.23-.35,0Z"/><ellipse class="cls-4" cx="576.19" cy="230.05" rx="1.58" ry="1.03" transform="translate(-37.67 140.09) rotate(-13.43)"/><ellipse class="cls-4" cx="568.94" cy="231.29" rx="0.94" ry="1.03" transform="translate(-38.16 138.44) rotate(-13.43)"/><path class="cls-5" d="M571.33,230.33a1.7,1.7,0,0,0-1,0,1.12,1.12,0,0,0-.68.65.89.89,0,0,0,.08.85.92.92,0,0,0,.79.36,2,2,0,0,0,1-.35.18.18,0,0,0,.07-.24.17.17,0,0,0-.24-.06,1.71,1.71,0,0,1-.67.28.61.61,0,0,1-.56-.12.52.52,0,0,1-.13-.53.77.77,0,0,1,.14-.27.66.66,0,0,1,.29-.21,1.33,1.33,0,0,1,.86,0c.21.06.31-.28.09-.33Z"/><path class="cls-5" d="M570.6,234a4.11,4.11,0,0,0,3.06,2.76,2.84,2.84,0,0,0,2-.43,2.66,2.66,0,0,0,1-1.65,7.24,7.24,0,0,0,0-2.5c0-.21-.35-.21-.33,0,.2,1.5.31,3.63-1.5,4.17s-3.27-.9-3.89-2.43c-.08-.2-.39-.11-.31.08Z"/><path class="cls-5" d="M576.39,237.33a3.46,3.46,0,0,0,1.06-1.69c0-.2-.27-.29-.32-.09a3,3,0,0,1-1,1.55.17.17,0,0,0,0,.23.17.17,0,0,0,.24,0Z"/><path class="cls-15" d="M623.64,311.54A81.25,81.25,0,0,1,591,328.63a36.48,36.48,0,0,1-9,1.36c-4.78,0-10.26-1.75-14.82-3.17a150,150,0,0,0-4.05-33.69c-2.32-9.73-5.46-20.64-.26-29.19,2.53-4.16,7.66-7.39,11.69-10.12.07,5.3,3.31,11.1,8.56,11.78,5.64.73,10.22-4.55,12.65-9.7a47.74,47.74,0,0,0,3.13-8.85c5.51-1,12.35-2.07,16.77,1.36,3.15,2.45,4.54,6.48,5.78,10.27l13.34,41.1C635.13,301,626.2,309.33,623.64,311.54Z"/><path class="cls-14" d="M626.89,158.3c-1.17-2.06-.9-4.59-.92-7s-.58-5.07-2.64-6.22a1.1,1.1,0,0,0-.83.66,3.71,3.71,0,0,0-1.66-2.42c-.91-.43-2.29.19-2.19,1.2a4.67,4.67,0,0,0-2.84-2.43,2.39,2.39,0,0,0-2.92,1.77,28.29,28.29,0,0,0-3-10.83,8,8,0,0,0-2.23-2.93,3.32,3.32,0,0,0-3.49-.4c-1.26.7-1.68,2.33-1.65,3.77.09,5.29,4.22,9.54,6.12,14.48a6.74,6.74,0,0,0-3,2.73,15.53,15.53,0,0,0,4.41,6.76c11.1,9.82,12.52,27.44,18.54,41-8.19,16.26-15.74,33.86-22.79,50.65,5.57,6.63,11.17,13.36,16.73,20,7.2-17.37,14.61-33.9,20.43-51.77,1.28-3.93,2.51-7.94,2.59-12.06.13-6.75-2.77-13.13-5.61-19.25C635.72,177,631.84,167,626.89,158.3Z"/><path class="cls-15" d="M620.92,279.22c.14.32.61,0,.8-.28a223.43,223.43,0,0,0,12.9-23.64c-6.24-9.81-13.71-19.31-23.68-25.28l-4.65,8.83a27.42,27.42,0,0,1-2.9,4.72,13.71,13.71,0,0,1-4.29,3.5C604.34,259.85,615.19,266.66,620.92,279.22Z"/><path class="cls-5" d="M605.84,150.68a12,12,0,0,1,2.25-2.25,6.74,6.74,0,0,1,3.39-1,30.88,30.88,0,0,1,3.47,0,6.68,6.68,0,0,1,3.24.7,3.39,3.39,0,0,1,.93,4.7,2.59,2.59,0,0,1-2.49,1.06c-1.25-.2-1.47-1.37-1.43-2.46,0-.1-.08-.15-.16-.16a1.28,1.28,0,0,0-1.34.83,1.83,1.83,0,0,0,.31,1.86,12,12,0,0,0,1.83,1.66,2.29,2.29,0,0,1,.88,1.46,1.17,1.17,0,0,1-.83,1.28.17.17,0,0,0,.09.32c1.25-.29,1.26-1.84.63-2.71a15.33,15.33,0,0,0-1.94-1.75,2.2,2.2,0,0,1-.78-1.4,1.1,1.1,0,0,1,1.15-1.22l-.17-.17a2.87,2.87,0,0,0,.65,2.3,2.29,2.29,0,0,0,1.85.49,3.09,3.09,0,0,0,2.62-2.81,3.64,3.64,0,0,0-2-3.76,7.61,7.61,0,0,0-2.79-.54,30.77,30.77,0,0,0-3.72,0,7.35,7.35,0,0,0-3.38.93,11,11,0,0,0-2.49,2.42c-.13.16.1.4.23.23Z"/><path class="cls-5" d="M618.69,148.41a2.79,2.79,0,0,0,.57,4c.17.12.34-.16.16-.28a2.46,2.46,0,0,1-.49-3.47c.13-.16-.1-.4-.24-.23Z"/><path class="cls-5" d="M613,147.06a14.33,14.33,0,0,1-.18-1.72,4.43,4.43,0,0,1,.14-1.66,2.4,2.4,0,0,1,1.8-1.46c1.85-.4,3.39,1.17,4,2.78a10.38,10.38,0,0,1,.45,3.55.17.17,0,0,0,.33,0c0-2.15-.27-4.57-2.1-6a3.33,3.33,0,0,0-2.56-.71,2.84,2.84,0,0,0-2,1.37,3.37,3.37,0,0,0-.32,1.71,14.75,14.75,0,0,0,.2,2.2c0,.21.36.12.32-.09Z"/><path class="cls-5" d="M618.88,144.19c0-.21.54-.49.68-.56a1.72,1.72,0,0,1,.85-.25,1.41,1.41,0,0,1,1.14.74,6.58,6.58,0,0,1,.88,2.67,5.54,5.54,0,0,1-.19,2.94,2.56,2.56,0,0,1-.82,1.1,2,2,0,0,1-.61.34c-.07,0-.73.17-.71.07s-.27-.3-.31-.09c-.11.48.51.47.82.42a2.54,2.54,0,0,0,1.46-.91,4.86,4.86,0,0,0,.7-3.81c-.16-1.16-.48-2.82-1.53-3.53a1.59,1.59,0,0,0-1.59-.1c-.41.17-1.2.5-1.09,1.06.05.2.36.12.32-.09Z"/><path class="cls-5" d="M620.19,149.84a1.32,1.32,0,0,1,2.07-.08.17.17,0,0,0,.23,0,.17.17,0,0,0,0-.24,1.64,1.64,0,0,0-2.58.15c-.12.18.17.35.28.17Z"/><path class="cls-5" d="M622.66,145.83a1.07,1.07,0,0,1,1.5,0,2.58,2.58,0,0,1,.6,1.16,16.07,16.07,0,0,1,.52,3.38c.05.95-.22,2.49-1.54,2.26-1.12-.19-1.56-1.39-1.88-2.33-.07-.2-.39-.12-.32.08a3.83,3.83,0,0,0,1.59,2.39,1.59,1.59,0,0,0,2.14-.55,5,5,0,0,0,.22-3.17,8.12,8.12,0,0,0-.77-3,1.46,1.46,0,0,0-2.3-.42c-.15.15.08.38.24.24Z"/><path class="cls-5" d="M623.9,152.57a2,2,0,0,1,1.49-2.37c.21,0,.12-.35-.09-.31a2.26,2.26,0,0,0-1.72,2.77.17.17,0,0,0,.32-.09Z"/><path class="cls-5" d="M621.4,158.67a6.78,6.78,0,0,1,.27-2.9.17.17,0,0,0-.32-.09,7.2,7.2,0,0,0-.28,3c0,.21.36.21.33,0Z"/><path class="cls-5" d="M608.26,141a2.06,2.06,0,0,0,1.16-.47.15.15,0,0,0,0-.23.16.16,0,0,0-.23,0,1.86,1.86,0,0,1-.43.25l-.25.08-.25,0a.17.17,0,0,0-.17.16.18.18,0,0,0,.17.17Z"/><path class="cls-5" d="M608.19,140.1l.89-.44a.19.19,0,0,0,.06-.23.18.18,0,0,0-.23-.06l-.88.44a.17.17,0,0,0-.06.23.16.16,0,0,0,.22.06Z"/><path class="cls-5" d="M614.66,143a.64.64,0,0,0,.38.12.66.66,0,0,0,.4-.15.18.18,0,0,0,0-.12.14.14,0,0,0,0-.11.17.17,0,0,0-.12-.05.16.16,0,0,0-.11.05s0,0,0,0h0a.35.35,0,0,1-.11,0h0l-.12,0s0,0,0,0l0,0,0,0a.21.21,0,0,0-.13,0,.16.16,0,0,0-.1.08.19.19,0,0,0,0,.13.18.18,0,0,0,.08.09Z"/><path class="cls-5" d="M615.63,144a.17.17,0,0,0,0-.33.17.17,0,0,0,0,.33Z"/><path class="cls-5" d="M620.34,145h.44a.17.17,0,0,0,.17-.16.18.18,0,0,0-.17-.17h-.44a.16.16,0,0,0-.16.17.16.16,0,0,0,.16.16Z"/><path class="cls-5" d="M622.91,146.73l.44.29a.15.15,0,0,0,.13,0,.18.18,0,0,0,.1-.07.17.17,0,0,0-.06-.23l-.44-.29a.15.15,0,0,0-.13,0,.18.18,0,0,0-.1.07.17.17,0,0,0,.06.23Z"/><path class="cls-5" d="M628.92,198.72l5.55-1.92c.2-.07.11-.38-.09-.31l-5.55,1.92c-.2.07-.11.38.09.31Z"/><path class="cls-5" d="M631.14,200.1l1.77-.44a.17.17,0,0,0-.08-.32l-1.77.44a.17.17,0,0,0,.08.32Z"/><path class="cls-5" d="M604.7,245.29A129.88,129.88,0,0,0,614.23,264c1.43,2.43,2.75,5.32,5,7.07a5.18,5.18,0,0,0,6.21.41c.17-.13,0-.42-.17-.29-2.63,2-5.79.13-7.52-2.1a65,65,0,0,1-4.51-7.36A118.88,118.88,0,0,1,605,245.2c-.08-.19-.4-.11-.32.09Z"/><path class="cls-5" d="M622.55,272.49a309.56,309.56,0,0,1,9.28,30.1c0,.21.37.12.32-.09a307.72,307.72,0,0,0-9.29-30.1c-.07-.2-.39-.11-.31.09Z"/><path class="cls-5" d="M568.89,260.36a38,38,0,0,1-1,6.18.17.17,0,0,0,.32.09,39.07,39.07,0,0,0,1-6.27c0-.21-.32-.21-.33,0Z"/><path class="cls-5" d="M567.56,270.38a89.38,89.38,0,0,0-3.2,29.78c0,.21.35.21.33,0a88.85,88.85,0,0,1,3.19-29.69.17.17,0,0,0-.32-.09Z"/><path class="cls-5" d="M571.05,305.15c6.09,9.15,17.77,10.47,27.84,10.7a.17.17,0,0,0,0-.33C589,315.29,577.36,314,571.34,305c-.12-.17-.41,0-.29.17Z"/><path class="cls-5" d="M580.23,308.14l7,3.46c.19.09.36-.19.17-.28l-7-3.46c-.19-.1-.35.19-.16.28Z"/><path class="cls-5" d="M571.1,311.37c1.47.46,2.61,1.63,3.84,2.51a34.78,34.78,0,0,0,12.36,5.54.17.17,0,0,0,.08-.32,34.58,34.58,0,0,1-8.83-3.35,35.59,35.59,0,0,1-3.79-2.4,13.22,13.22,0,0,0-3.57-2.3c-.2-.07-.29.25-.09.32Z"/><path class="cls-3" d="M461.57,298c7.72,31.26,11.84,87.07,15.24,122a279.26,279.26,0,0,0,4.92,31.09c-6,.56-9.61,1.87-15.64,2.43-6.91-22.22-15.3-46-16-69-.14-4.62,0-9.26-.82-13.84-1-5.39-3.15-10.55-5-15.78a121.74,121.74,0,0,1-5.23-61.28c.23-1.36.74-3,2.29-3.37a5,5,0,0,1,2.94.46C450.54,293.12,455.32,295.65,461.57,298Z"/><polygon class="cls-16" points="460.56 435.96 478.68 434.74 485.48 465.58 469.25 465.58 460.56 435.96"/><path class="cls-3" d="M464.33,454.7h19.6l2.64,9.24S502,462,503.49,473.76H468.41Z"/><path class="cls-5" d="M503.72,474H468.24l-4.17-19.47h20l0,.15,2.59,9.07c1.23-.12,8.51-.64,13.13,3a10.19,10.19,0,0,1,3.84,7.06Zm-35.14-.41h34.67a9.68,9.68,0,0,0-3.66-6.55c-4.9-3.82-12.92-2.87-13-2.86l-.17,0-2.65-9.26H464.59Z"/><path class="cls-5" d="M494.44,469.4a12.36,12.36,0,0,1,2.27-4.68.69.69,0,0,0,0-.94.66.66,0,0,0-.93,0,13.94,13.94,0,0,0-2.61,5.27.66.66,0,0,0,1.27.35Z"/><path class="cls-5" d="M492,467.74c.07-.35.16-.71.26-1.05l.15-.45c0-.09.07-.17.1-.26l.05-.12c0-.08,0-.09,0,0a9.7,9.7,0,0,1,1-1.84.67.67,0,0,0-.24-.91.69.69,0,0,0-.9.24,11,11,0,0,0-1.72,4.07.66.66,0,0,0,1.27.35Z"/><path class="cls-5" d="M489.28,466.51c0-.16.09-.31.14-.46l.08-.23a1,1,0,0,0,0-.1c0-.06,0-.1,0,0a7,7,0,0,1,.45-.86,4,4,0,0,1,.25-.37l.07-.11h0l.15-.18a6.6,6.6,0,0,1,.69-.71.66.66,0,0,0,0-.93.68.68,0,0,0-.93,0,7.35,7.35,0,0,0-2.21,3.61.67.67,0,0,0,.46.81.66.66,0,0,0,.81-.46Z"/><path class="cls-5" d="M470.89,471.73h3.3a.66.66,0,1,0,0-1.31h-3.3a.66.66,0,0,0-.66.65.67.67,0,0,0,.66.66Z"/><path class="cls-5" d="M479.11,471.86c7.58.49,15.19.95,22.78.29.83-.07.84-1.39,0-1.31-7.59.65-15.2.19-22.78-.3-.85-.05-.85,1.27,0,1.32Z"/><path class="cls-5" d="M485.8,463.24c-.25.13-.49.26-.75.37l0,0-.21.09-.36.13a10.47,10.47,0,0,1-1.56.39.67.67,0,0,0-.46.81.68.68,0,0,0,.81.46,10,10,0,0,0,3.23-1.13.66.66,0,1,0-.66-1.14Z"/><path class="cls-5" d="M465,404a88.44,88.44,0,0,1,5.78-16.42c.09-.19-.2-.36-.29-.16a89,89,0,0,0-5.81,16.49c-.05.21.27.3.32.09Z"/><path class="cls-5" d="M466.33,393.38l1.47-4.72c.06-.2-.26-.29-.32-.09L466,393.29c-.06.2.26.29.32.09Z"/><path class="cls-3" d="M428.79,280.06c-10,1.71-18,10.24-21,19.92s-1.88,20.25,1.06,30,7.57,18.82,11.53,28.16a4.91,4.91,0,0,1,.55,3.2c-.45,1.5-2.18,2.23-2.91,3.61-1.42,2.71,1.58,5.53,2.61,8.41s.06,5.9-.89,8.73Q408.83,414.52,397.93,447c4.41,1.81,8.87,4.76,13.29,6.57,10-17.35,20.64-34.92,28.58-53.33a112,112,0,0,0,6.66-18.82c6-26.18-5.31-54,.63-80.22a21,21,0,0,0,.85-6C447.43,288,435.92,278.85,428.79,280.06Z"/><polygon class="cls-16" points="402.73 432.67 419.54 439.23 407.35 460.76 392.49 460.76 402.73 432.67"/><path class="cls-3" d="M392.49,454.7h19.6l-4.74,9.24s15.47-1.94,16.92,9.82H389.19Z"/><path class="cls-5" d="M424.5,474H388.94l.05-.24,3.33-19.23h20.11l-4.72,9.2c1.68-.13,8.51-.46,12.92,3a10.15,10.15,0,0,1,3.84,7.06Zm-35.06-.41H424a9.68,9.68,0,0,0-3.66-6.55c-4.9-3.82-12.92-2.87-13-2.86l-.39.05,4.77-9.28H392.67Z"/><path class="cls-5" d="M415.22,469.4a12.36,12.36,0,0,1,2.27-4.68.69.69,0,0,0,0-.94.66.66,0,0,0-.93,0,13.94,13.94,0,0,0-2.61,5.27.66.66,0,1,0,1.27.35Z"/><path class="cls-5" d="M412.73,467.74c.07-.35.16-.71.26-1.05.05-.15.1-.3.16-.45l.09-.26.05-.12c0-.08,0-.09,0,0a10.29,10.29,0,0,1,1-1.84.67.67,0,0,0-.23-.91.7.7,0,0,0-.91.24,11,11,0,0,0-1.72,4.07.66.66,0,1,0,1.27.35Z"/><path class="cls-5" d="M410.07,466.51c0-.16.08-.31.13-.46l.08-.23a1,1,0,0,0,0-.1c0-.06,0-.1,0,0a5.81,5.81,0,0,1,.44-.86c.08-.12.16-.25.25-.37a.44.44,0,0,1,.08-.11c0-.06,0,0,0,0l.15-.18a6.6,6.6,0,0,1,.69-.71.66.66,0,0,0,0-.93.68.68,0,0,0-.93,0,7.35,7.35,0,0,0-2.21,3.61.66.66,0,0,0,1.28.35Z"/><path class="cls-5" d="M391.67,471.73H395a.66.66,0,1,0,0-1.31h-3.3a.66.66,0,0,0-.66.65.67.67,0,0,0,.66.66Z"/><path class="cls-5" d="M399.89,471.86c7.58.49,15.19.95,22.78.29.84-.07.84-1.39,0-1.31-7.59.65-15.2.19-22.78-.3-.85-.05-.84,1.27,0,1.32Z"/><path class="cls-5" d="M406.58,463.24c-.24.13-.49.26-.74.37l0,0-.21.09-.36.13a10.47,10.47,0,0,1-1.56.39.67.67,0,0,0-.46.81.68.68,0,0,0,.81.46,9.94,9.94,0,0,0,3.23-1.13.66.66,0,0,0,.24-.9.67.67,0,0,0-.9-.24Z"/><path class="cls-5" d="M454.47,307.78c-9.75,3.4-8.09,16.33-7.8,24.35l1.32,35.4c0,.21.34.21.33,0q-.6-16.32-1.21-32.64c-.19-5.07-.77-10.32-.19-15.38.55-4.75,2.82-9.73,7.63-11.41.2-.07.12-.39-.08-.32Z"/><path class="cls-5" d="M449.52,317.07a10.21,10.21,0,0,1,3-3.76c.17-.13-.07-.36-.23-.23a10.31,10.31,0,0,0-3,3.83c-.09.19.19.35.28.16Z"/><path class="cls-5" d="M432.26,289.86a19.26,19.26,0,0,1-8.41,11.57,18.9,18.9,0,0,1-7.13,2.59,19.32,19.32,0,0,1-4.23.16,20,20,0,0,1-2.18-.29l-.8-.17c-.15,0-2.3-.61-1.61-1a.17.17,0,0,0-.17-.29c-.53.31-.18.87.23,1.16,1,.68,2.75.75,3.92.87a19.19,19.19,0,0,0,20.7-14.5c.05-.2-.27-.29-.32-.09Z"/><path class="cls-5" d="M412.09,304.58a109.91,109.91,0,0,0,5.2,27.66A119.39,119.39,0,0,0,422.37,345c2,4.29,4.08,8.61,5.07,13.26a18,18,0,0,1,.36,7.23,4,4,0,0,1-1.45,2.6c-1.53,1-3.07-.36-3.07-2a2.48,2.48,0,0,1,2.62-2.32,3.73,3.73,0,0,1,3.34,2.06c1.31,2.44.38,5.28-.63,7.63-3.86,9-7.69,18-11.11,27.19q-5.89,15.79-10.64,32c-.06.2.26.29.32.08q5-16.94,11.2-33.48,3.11-8.26,6.53-16.41,1.75-4.17,3.59-8.31c.92-2.08,1.91-4.27,1.67-6.6a4.88,4.88,0,0,0-2.62-4.15,3.53,3.53,0,0,0-4,.64c-1.75,1.93.52,5.62,3,3.93,1.28-.89,1.66-2.71,1.74-4.16a24,24,0,0,0-.87-7.45c-1.35-5.12-3.87-9.83-6-14.65a108.83,108.83,0,0,1-9-37.57c0-.21-.35-.21-.33,0Z"/><path class="cls-5" d="M425.28,406.52A81.66,81.66,0,0,1,441,388.72c.16-.13-.07-.37-.24-.23A81.92,81.92,0,0,0,425,406.35c-.12.18.17.35.28.17Z"/><path class="cls-5" d="M431.82,394.88a13.73,13.73,0,0,1,4.15-5.19c.16-.13,0-.41-.17-.29a14.12,14.12,0,0,0-4.26,5.31c-.09.19.19.36.28.17Z"/><path class="cls-5" d="M457.85,195.5a22.37,22.37,0,0,0,.6,3.06c.74,2.12,2.72,3.54,3.86,5.46,1.6,2.7,1.4,6.13.43,9.11a12.72,12.72,0,0,0-1,4.12c.09,2.87,2.65,5,3.71,7.66,2,5-2.19,10.89-7.43,12.14s-10.75-1.1-14.89-4.53A29.13,29.13,0,0,1,432.58,211a26.2,26.2,0,0,1,10.54-21.37c2-1.44,4.84-2.73,7.3-1.79,1.14.43,2.07,1.34,3.17,1.87a6,6,0,0,1,2.11,1.45A9.73,9.73,0,0,1,457.85,195.5Z"/><path class="cls-5" d="M413.81,223.38a43.88,43.88,0,0,1,3.38,9.69,14.82,14.82,0,0,1-1.33,10,7.13,7.13,0,0,1-3.83,3.39c-4.12,1.32-8.54-2.64-12.68-1.39-3.85,1.16-5.1,6.23-4,10.1,1.54,5.48,6.28,9.64,11.58,11.69s11.15,2.26,16.83,2,11.54-1.25,15.35-5.29a16.17,16.17,0,0,0,3.47-6.15c2.75-8.45.52-17.77-3.26-25.8s-9.08-15.29-12.92-23.3c-.79-1.65-1.64-3.45-3.27-4.25-2-1-4.35-.12-6.2,1.05a18.84,18.84,0,0,0-5.71,5.64c-.38.57-.68,1.19-1,1.78s-.67.79-.52,1.42a29,29,0,0,0,2,4.47Z"/><path class="cls-17" d="M455.61,224.49c-1.22-3.64-1.74-4.72-2.82-8.25,2.56-.3,5.58-1,7.42-3,1.28-1.4.08-3.83-.4-5.66a35.25,35.25,0,0,0-5.44-11.48,5.45,5.45,0,0,0-2-1.89,4.26,4.26,0,0,0-3.25,0,8,8,0,0,0-4.53,4.46,10.45,10.45,0,0,0-.44,6.42,2.53,2.53,0,0,0-3.56-.45,4.37,4.37,0,0,0-1.24,2.56,5.63,5.63,0,0,0-.12,1.69,3.58,3.58,0,0,0,6.37,1.83c.3,4.87.69,10.72,1,15.59l-9.33,9.32s16.29,10.69,25.64,6.32c0,0,.66-14.25,2.21-16.53Z"/><path class="cls-5" d="M442.77,206.15a2.47,2.47,0,0,0,.11,4.18c.18.11.35-.18.17-.29A2.16,2.16,0,0,1,442,208.3a2.19,2.19,0,0,1,.94-1.87c.17-.11,0-.4-.17-.28Z"/><path class="cls-5" d="M442.15,208.49a1,1,0,0,1,.66.11,1,1,0,0,1,.48.51.16.16,0,0,0,.22.06.17.17,0,0,0,.06-.23,1.37,1.37,0,0,0-1.51-.77.17.17,0,0,0-.11.2.16.16,0,0,0,.2.12Z"/><path class="cls-5" d="M452.54,226.55a2.72,2.72,0,0,0-1.69-.53.16.16,0,1,0,0,.33,2.44,2.44,0,0,1,1.52.48.16.16,0,0,0,.22-.06.16.16,0,0,0,0-.22Z"/><path class="cls-5" d="M454.14,226.35a2.73,2.73,0,0,1,.37-1.45.17.17,0,0,0-.29-.17,3.15,3.15,0,0,0-.41,1.62.17.17,0,0,0,.33,0Z"/><path class="cls-5" d="M449.45,203.64a2.92,2.92,0,0,0,1.86,1.77,1.31,1.31,0,0,0,1.2-.2,1.45,1.45,0,0,0,.45-1.06,10.32,10.32,0,0,0-.13-1.66c0-.2-.35-.21-.33,0a10.65,10.65,0,0,1,.13,1.59c0,.44-.16.92-.64,1a1.68,1.68,0,0,1-1.34-.4,2.7,2.7,0,0,1-.88-1.15c-.08-.2-.4-.11-.32.08Z"/><path class="cls-5" d="M454.75,201.79a2.56,2.56,0,0,0,1.86,1.28,1.36,1.36,0,0,0,.89-.31,1.14,1.14,0,0,0,.28-1.07,4.83,4.83,0,0,0-.22-.74l-.28-.81c-.07-.2-.39-.11-.32.09l.27.78a5.68,5.68,0,0,1,.22.7.78.78,0,0,1-.42,1c-.84.34-1.53-.45-2-1a.17.17,0,0,0-.23-.05.16.16,0,0,0-.06.22Z"/><path class="cls-5" d="M448.31,202.53a6.22,6.22,0,0,1,1.91-2.4.26.26,0,0,0,.1-.36.27.27,0,0,0-.37-.1,6.63,6.63,0,0,0-2.1,2.59.28.28,0,0,0,.1.37.26.26,0,0,0,.36-.1Z"/><path class="cls-5" d="M453.57,198.85a7.46,7.46,0,0,1,2-.49.27.27,0,0,0,.27-.27.26.26,0,0,0-.27-.26,7.87,7.87,0,0,0-2.13.5.27.27,0,0,0,.15.52Z"/><path class="cls-5" d="M447.39,213a8.57,8.57,0,0,0,1.17,1.86,3.31,3.31,0,0,0,1.37,1.12,7.49,7.49,0,0,0,1.31.29c.4.07.81.14,1.21.18.21,0,.21-.31,0-.33a11.81,11.81,0,0,1-2.36-.43,3,3,0,0,1-1.3-1.06,8.6,8.6,0,0,1-1.12-1.8c-.09-.19-.37,0-.28.17Z"/><ellipse class="cls-4" cx="451.23" cy="206.73" rx="1.49" ry="0.97" transform="translate(-39.71 133.79) rotate(-16.16)"/><ellipse class="cls-4" cx="457.74" cy="204.38" rx="0.89" ry="0.97" transform="translate(-38.8 135.51) rotate(-16.16)"/><path class="cls-5" d="M455.56,204.94c.33-.32.9-.56,1.28-.19a.49.49,0,0,1,.15.54.65.65,0,0,1-.37.32,1.69,1.69,0,0,1-.71.08c-.08,0-.16.08-.16.17a.17.17,0,0,0,.16.16c.5,0,1.16-.08,1.37-.59a.78.78,0,0,0-.13-.83,1,1,0,0,0-.82-.37,1.59,1.59,0,0,0-1,.47.17.17,0,0,0,.23.24Z"/><path class="cls-5" d="M455.22,207.83a3.26,3.26,0,0,0-.14,1.42,1.33,1.33,0,0,0,.62.88,1,1,0,0,0,1.09-.08,1.7,1.7,0,0,0,.65-1,10,10,0,0,0,.19-1.54c0-.23-.34-.23-.36,0a8.2,8.2,0,0,1-.18,1.47,1.19,1.19,0,0,1-.74.9.75.75,0,0,1-.86-.5,2.32,2.32,0,0,1,.07-1.45.18.18,0,0,0-.34-.1Z"/><path class="cls-5" d="M455.59,211.28a.7.7,0,0,0,1.16-.28.17.17,0,0,0-.12-.21.17.17,0,0,0-.22.12v0s0,0,0,0l0,.05h0v0s0,0,0,0,0,0,0,0l0,0-.05,0s-.05,0,0,0H456l-.06,0s0,0,0,0l0,0,0,0s0,0,0,0l-.05-.05a.18.18,0,0,0-.25,0,.18.18,0,0,0,0,.25Z"/><path class="cls-2" d="M465.53,298.84a88.65,88.65,0,0,0,18.05-49.95,16.16,16.16,0,0,0-.52-5.68,17.36,17.36,0,0,0-3.42-5.36l-8.76-10.64a6.72,6.72,0,0,0-3.13-2c-1.4-.62-4.39-1.27-5.25,0,.3,4.3-.38,9.87-4,12.16-2.87,1.79-6.61,1.67-9.77.49s-5.89-3.29-8.55-5.37c-4.85,2.08-9.17,6.87-9.88,12.1a27.9,27.9,0,0,0,0,6,132.82,132.82,0,0,0,3.06,19.22c.08.34.21.74.55.83s.63-.52.29-.59c-1.75-.36-4.59.68-4.66,2.47,0,.61.16,1.28-.15,1.81-.7,1.22-2.7.19-3.95.84-1.48.76-.84,3,0,4.42,4.42,7.16,10,13.79,17.33,18S457.69,301.89,465.53,298.84Z"/><path class="cls-17" d="M443.26,160.17c-3.25-1.21-7-2.67-8-6-.41-1.41.25-3.38,1.72-3.36,1,0,1.67.89,2.16,1.72a4.24,4.24,0,0,0,1.88,2.13c.9.33,2.18-.57,1.73-1.43a1.88,1.88,0,0,0-.8-.67c-3.88-2.24-6.7-6.71-5.95-11.12a2.33,2.33,0,0,1,.49-1.2,1.79,1.79,0,0,1,2.61.44,5.15,5.15,0,0,1,.7,2.9,7.53,7.53,0,0,1-.42-5.22c.2-.7.67-1.49,1.39-1.45a1.43,1.43,0,0,1,.84.39c1.62,1.35,1.9,3.68,2.07,5.77L443,139c-.17-.94-.1-2.26.85-2.43s1.4.78,1.67,1.57a21.73,21.73,0,0,1,1.17,7.28,32.94,32.94,0,0,1-.15-5.79c1.46,0,2.54,1.47,2.8,2.91s0,2.93.2,4.39a10.39,10.39,0,0,0,1.23,3.49,20.15,20.15,0,0,0,4.87,6c1.54,1.27,3.49,2.86,3,4.8a4.83,4.83,0,0,1-1.88,2.31c-.62.51-1.43,1.66-2.31,1.66a3.63,3.63,0,0,1-1.53-.64l-1.8-.94c-1.19-.6-2.4-1.17-3.63-1.7C446.08,161.28,444.68,160.7,443.26,160.17Z"/><path class="cls-2" d="M476.38,251a397,397,0,0,0,30-39.45c3.22-4.83,6.47-10.49,5-16.11-1-3.78-3.89-6.7-6.77-9.33-13.9-12.63-29.14-23.66-46.34-31.21-2,3.91-3.91,8.2-6.58,11.69A230.56,230.56,0,0,1,484.23,191c2.47,2.23,5.12,5.35,4,8.48a6.38,6.38,0,0,0-2.53.26,1.53,1.53,0,0,0-.73,2.41,3.57,3.57,0,0,1,.73,2.68,8.7,8.7,0,0,1-2.6,4.22c-5.73,6.2-11.94,12.22-19.61,15.73-.29-.46.82,2.48.27,2.45C466,237.89,470.35,241.91,476.38,251Z"/><path class="cls-5" d="M439.28,138.42c-1,1.87.07,4.31.78,6.1a28,28,0,0,0,3.45,6.21c.13.16.41,0,.29-.17a27.26,27.26,0,0,1-3.26-5.73,24.89,24.89,0,0,1-1-3,4.37,4.37,0,0,1,.06-3.24c.1-.18-.19-.35-.28-.16Z"/><path class="cls-5" d="M442.69,137.58A31.16,31.16,0,0,0,446,149.29c.1.19.38,0,.29-.17a30.64,30.64,0,0,1-3.3-11.54c0-.21-.35-.21-.33,0Z"/><path class="cls-5" d="M446.36,139.68a25.19,25.19,0,0,0,1.47,10c.07.2.39.11.32-.09a24.89,24.89,0,0,1-1.46-9.9c0-.21-.32-.21-.33,0Z"/><path class="cls-5" d="M438.9,146.92l.77-.47a.16.16,0,0,0,.05-.22.15.15,0,0,0-.22-.06l-.76.46a.17.17,0,0,0,.16.29Z"/><path class="cls-5" d="M438.88,145.89l.33-.23a.25.25,0,0,0,.08-.1.2.2,0,0,0,0-.13.18.18,0,0,0-.1-.07.2.2,0,0,0-.13,0l-.32.23a.19.19,0,0,0-.08.1.15.15,0,0,0,0,.13.16.16,0,0,0,.09.07.18.18,0,0,0,.13,0Z"/><path class="cls-5" d="M442,144.49h.45a.17.17,0,0,0,.16-.17.16.16,0,0,0-.16-.16H442a.16.16,0,0,0-.16.16.17.17,0,0,0,.16.17Z"/><path class="cls-5" d="M442,143.81l.22-.11a.1.1,0,0,0,.05,0l0-.06a.06.06,0,0,0,0-.06.08.08,0,0,0,0-.06.14.14,0,0,0-.1-.08h0a.11.11,0,0,0-.08,0l-.22.11a.1.1,0,0,0-.05,0l0,.06a.06.06,0,0,0,0,.06.14.14,0,0,0,0,.06.14.14,0,0,0,.1.08h0a.11.11,0,0,0,.08,0Z"/><path class="cls-5" d="M444.84,143.71l.34.11a.16.16,0,0,0,.12,0,.16.16,0,0,0,.08-.1.13.13,0,0,0,0-.12.14.14,0,0,0-.1-.08l-.33-.11a.16.16,0,0,0-.12,0,.14.14,0,0,0-.08.09.15.15,0,0,0,0,.13.18.18,0,0,0,.09.08Z"/><path class="cls-5" d="M445,143.16l.56.11a.16.16,0,0,0,.2-.11.17.17,0,0,0-.12-.2l-.55-.12a.17.17,0,0,0-.2.12.16.16,0,0,0,.11.2Z"/><path class="cls-5" d="M447.54,143.88a.69.69,0,0,0,.28.15.86.86,0,0,0,.32,0,.2.2,0,0,0,.1-.08.13.13,0,0,0,0-.12.18.18,0,0,0-.07-.1l0,0H448a.33.33,0,0,1-.14,0l0,0-.13-.07,0,0h0a.18.18,0,0,0-.12-.05.16.16,0,0,0-.11.05.17.17,0,0,0-.05.12.12.12,0,0,0,.05.11Z"/><path class="cls-5" d="M448,143.38a.17.17,0,0,0,0-.33.17.17,0,0,0,0,.33Z"/><path class="cls-5" d="M435.66,154.67a2.42,2.42,0,0,0,.41-3.24c-.13-.16-.42,0-.29.17a2.09,2.09,0,0,1-.35,2.84c-.17.13.07.36.23.23Z"/><path class="cls-5" d="M446.59,159a1.32,1.32,0,0,0,1.53-1.05,3.75,3.75,0,0,0-.33-2.46,5.63,5.63,0,0,0-.67-1,1.51,1.51,0,0,1-.48-1.36c.29-1,1.47-1.21,2.35-1.35.21,0,.12-.36-.09-.32a3.56,3.56,0,0,0-2.17.88,1.53,1.53,0,0,0-.25,1.83,10.92,10.92,0,0,0,.72,1,3.81,3.81,0,0,1,.58,1.3,3.06,3.06,0,0,1,0,1.38,1,1,0,0,1-1.13.87.17.17,0,0,0-.09.32Z"/><path class="cls-5" d="M486.71,204.78a72.26,72.26,0,0,1,3.7,7.09c.09.19.37,0,.29-.17a75.71,75.71,0,0,0-3.7-7.09.17.17,0,0,0-.29.17Z"/><path class="cls-5" d="M488.21,204.46l1.09,1.33a.17.17,0,0,0,.24,0,.18.18,0,0,0,0-.23l-1.1-1.33a.16.16,0,0,0-.23.23Z"/><path class="cls-5" d="M485.57,202.76a2.74,2.74,0,0,1-.93-1.6,1.23,1.23,0,0,1,1-1.16c1.08-.3,2.18.28,3.28.14,2.12-.28,3.42-2.18,4.5-3.83.11-.18-.17-.34-.29-.17a10.07,10.07,0,0,1-2.51,3,3.83,3.83,0,0,1-1.84.72,8.72,8.72,0,0,1-2-.19,2.35,2.35,0,0,0-2.3.74c-.62.93.16,1.95.8,2.62.14.16.37-.08.23-.23Z"/><path class="cls-2" d="M440.11,232.26q-15.6-1.42-31.23-2.38a16.29,16.29,0,0,0,3.74-2.58,5,5,0,0,0-5.07-.23c8.79-9.37,17.73-19.43,26.52-28.8-3.28-2.23-7.1-5.51-10.38-7.74a125.65,125.65,0,0,0-33.54,35.05c-1.23,1.95-2.43,4.07-2.42,6.37,0,3.84,3.33,6.76,6.48,9A96.31,96.31,0,0,0,435.13,257C436.68,248.91,438.56,240.37,440.11,232.26Z"/><path class="cls-5" d="M466.14,227.2l3,3.38c.14.16.37-.07.23-.23l-3-3.38c-.14-.16-.38.07-.23.23Z"/><path class="cls-5" d="M472.56,233.82c5.78,4.22,12.52,9.85,10.76,17.9-.91,4.15-3.84,6.91-7.46,8.87a63.5,63.5,0,0,1-11.95,4.91c-.2.06-.12.38.09.31a57.93,57.93,0,0,0,13.29-5.66,13,13,0,0,0,6.43-8.76c1.51-8-5.22-13.63-11-17.86-.17-.12-.33.16-.16.29Z"/><path class="cls-5" d="M458.94,266.52a74.63,74.63,0,0,1-13.35,1c-.21,0-.21.32,0,.32a74.71,74.71,0,0,0,13.44-1c.21,0,.12-.35-.09-.32Z"/><path class="cls-5" d="M469.81,266.27c-5.62,1.76-11.28,3.86-17.15,4.53-.21,0-.22.36,0,.33,5.91-.67,11.59-2.78,17.23-4.54.21-.07.12-.39-.08-.32Z"/><path class="cls-5" d="M429.3,274.47q2.26,4.8,5,9.37c.11.19.4,0,.29-.16q-2.73-4.56-5-9.38c-.09-.19-.37,0-.28.17Z"/><path class="cls-5" d="M433.39,269.82a39,39,0,0,1,3.53,3.14,45.8,45.8,0,0,1,3.2,3.34c.52.63,1,1.65.37,2.37a1.77,1.77,0,0,1-2.17.2,6.88,6.88,0,0,1-2.73-3.37c-.09-.19-.37,0-.29.17a8,8,0,0,0,2.33,3.13,2.38,2.38,0,0,0,2.88.31c1-.74.6-2.06,0-2.89a34.85,34.85,0,0,0-3-3.18,40.55,40.55,0,0,0-3.84-3.45c-.16-.13-.4.1-.23.23Z"/><path class="cls-5" d="M434.24,273.74a6.36,6.36,0,0,1-.73-2,.15.15,0,0,0-.2-.11.16.16,0,0,0-.11.2,6.52,6.52,0,0,0,.75,2.1.17.17,0,0,0,.29-.17Z"/><path class="cls-5" d="M432.32,246.32A132.47,132.47,0,0,0,430,261.81c0,.21.31.21.33,0a131.43,131.43,0,0,1,2.33-15.41c0-.2-.27-.29-.32-.08Z"/><path class="cls-5" d="M402.4,228a25.09,25.09,0,0,1,5.33-1.21,24.45,24.45,0,0,1,2.57-.16,6.17,6.17,0,0,1,1.29,0c1.09.23,0,1-.34,1.24l-9,6.64c-.16.13,0,.41.17.28l8.33-6.17c.39-.29,2.57-1.68,1.26-2.24a2.06,2.06,0,0,0-.74-.09c-.43,0-.86,0-1.28,0-.8,0-1.6.08-2.39.17a25.48,25.48,0,0,0-5.32,1.21c-.2.07-.12.39.08.32Z"/><path class="cls-5" d="M400.69,235.79a9.07,9.07,0,0,0-2.45,2c-.13.16.1.39.23.23a8.75,8.75,0,0,1,2.39-2,.17.17,0,0,0-.17-.29Z"/><path class="cls-5" d="M441.57,196.86l-3.28,7c-1.41,3-2.83,6.62-1.27,9.57,1.84,3.49,6.83,4.13,9.06,7.39a10.51,10.51,0,0,1,1.36,6.11,21.14,21.14,0,0,1-2.33,9.94,11.86,11.86,0,0,1-7.93,6.07c-4.87.89-9.78-2.22-12.47-6.38a13.7,13.7,0,0,1-2.39-7.78,34.33,34.33,0,0,1,1.38-6.68,20,20,0,0,0-.24-11,12.7,12.7,0,0,0-7.32-7.9,9.35,9.35,0,0,0-10.18,2.4c-2-6.32,1.53-14,7.83-16.08a15.38,15.38,0,0,0,3-1.09,9,9,0,0,0,2.7-2.8c2.14-3.09,4-6.44,6.66-9.09,5.89-5.82,15.13-7.29,23.17-5.3a13.6,13.6,0,0,1,5.52,2.5c3.11,2.61,4,7,3.95,11.1a6.5,6.5,0,0,1-.37,2.56c-.93,2.23-3.66,2.94-6,3.63C448.59,192.21,443.29,193.18,441.57,196.86Z"/><path class="cls-5" d="M697.87,474.84H80.3a.52.52,0,0,1-.52-.52.52.52,0,0,1,.52-.52H697.87a.52.52,0,0,1,.53.52A.53.53,0,0,1,697.87,474.84Z"/><path class="cls-5" d="M73,474.84H57.78a.52.52,0,0,1-.52-.52.52.52,0,0,1,.52-.52H73a.52.52,0,0,1,.52.52A.52.52,0,0,1,73,474.84Z"/><path class="cls-5" d="M717,474.84H702.22a.53.53,0,0,1-.52-.52.52.52,0,0,1,.52-.52H717a.52.52,0,0,1,.52.52A.53.53,0,0,1,717,474.84Z"/></g></svg>