<svg id="_Layer_" data-name="&lt;Layer&gt;" xmlns="http://www.w3.org/2000/svg" viewBox="0 0 2848 1780"><defs><style>.cls-1{fill:#fff;}.cls-2{fill:#d2e4ff;}.cls-3{fill:#c3dafc;}.cls-4{fill:#ebf3fa;}.cls-5{fill:#2e3552;}.cls-6{fill:#233862;}.cls-7{fill:#163560;}.cls-8{fill:#b5453c;}.cls-9{fill:#f4a269;}.cls-10{fill:#f99746;}.cls-11{fill:#ffb27d;}.cls-12{fill:#ed7d2b;}.cls-13{fill:#1c468a;}.cls-14{fill:#ed985f;}.cls-15{fill:#c6601a;}.cls-16{fill:#f1a34f;}.cls-17{fill:#d3671e;}.cls-18{fill:#b25618;}.cls-19{fill:#e78b37;}.cls-20{fill:#bdd8ff;}.cls-21{fill:#9fc1f4;}.cls-22{fill:#6a9ad3;}.cls-23{fill:#5588bc;}.cls-24{fill:#77a4e5;}.cls-25{fill:#afcdfb;}.cls-26{fill:#2b478b;}</style></defs><rect class="cls-1" width="2848" height="1780"/><path class="cls-2" d="M2672.93,1282.54a331,331,0,0,1-2.27,40.5,299.6,299.6,0,0,1-15.07,65.18,268.5,268.5,0,0,1-19.44,42.76q-3.33,5.91-7,11.62H272.89S58.29,951.16,350.65,713.24q5.48-4.46,11-8.74,5.1-3.93,10.22-7.72c3.32-2.48,6.67-4.88,10-7.25,88.12-62.24,184.62-93,285.84-112.11q5.34-1,10.72-2,5.09-.93,10.2-1.81c82.06-14.15,167-21.6,253-32.66,29.91-3.86,60-8.14,90.05-13.31,120.39-20.66,241.44-55.35,358-132a674.33,674.33,0,0,1,110.84-59.17c2.53-1.06,5.07-2.11,7.62-3.13s5-2,7.47-3c73.13-28.33,145.39-40.56,213.32-40.36,2.68,0,5.34,0,8,.07s5.08.11,7.61.19a546.42,546.42,0,0,1,63.15,5.64q12.87,1.92,25.41,4.41,18.43,3.68,36.1,8.54c151.3,41.52,258.41,145.8,264.55,253.64,4.14,72.7,12.76,142.54,31.85,203.13,8.85,28.06,19.94,54.15,33.88,77.61q5.68,9.58,12,18.57c41.68,59,105,97.9,201.5,104.37,67.07,4.5,123.58,34.55,166.59,79,.39.42.8.83,1.21,1.25C2639.33,1107.84,2672.55,1196,2672.93,1282.54Z"/><path class="cls-3" d="M1418,1133.86c-2.55-19.23-32.29-25.57-39-30.4-4-2.89-13.35-15.66-19.82-25l1.45-1c-18.83-57.9-34.36-105.31-47.17-144.14,1.52-2.92,3-7.37,4.13-14.05,4.62-26.69-18.64-36.82-18.64-36.82l-.37-.2c13.86-116.68-19.5-124.62-19.5-124.62a65,65,0,0,0-26.48-2.22c-4.92-11.86-14.77-19.14-31-20.06a37.79,37.79,0,0,0-15.91,3.05c.75-1.33,1.5-2.67,2.23-4,3.38-2.34,31.91-22.86,29.45-47.53a33.1,33.1,0,0,0-2.89-11.36,45.52,45.52,0,0,0-1.48-5.62c2.54-12.4,2.69-22.47-.2-28.23-5.25-10.52-15.07-17.86-22.47-22.21,3.1-.66,7.17,1.06,7.17,1.06-4-3.61-16.76-5.83-16.76-5.83-45.53-64.79-115.75,19.12-128.53,41s-28.83,46.13-72.09,44.42C915,696.76,909.53,782.38,927,826.21c.24.62,42,74.52,42,74.52a37.17,37.17,0,0,1,3.84-5.41c-2.86,30.83-4.22,56.1-9,63.2-9.9,14.85-56.64,103.27-16.21,144.56-31.89-10.48-77,28.71-82.45,33.59h-.55V1442.6H1434V1136.67C1429.26,1135.74,1423.88,1134.8,1418,1133.86ZM1163,1080.14c3.82-5.75,17.85-32,35-67.07-.51,35.26-.72,60.82-.72,60.82a12.46,12.46,0,0,0,4.46,11.41c-2,4.51-4.41,8.88-6.33,13.13a43.68,43.68,0,0,0-3.36,14.8c-32.09-1.51-56.45-1.79-64.46-.32-1.41.26-3.06.53-4.89.79C1141.85,1104.67,1155.14,1092,1163,1080.14Zm131.34,40c-7.17-13.06-31.59-11.89-37.21-16.64a36.28,36.28,0,0,1-9.08-11.14c1.72-.15,2.71-.27,2.71-.27,7.3-24.42,13.64-47,19.14-68,21,35.24,38.29,61.26,38.29,61.26a13,13,0,0,0,10.55,8.41,20.37,20.37,0,0,1-1.5,4.74c-3.64,8.06-3.71,17.83-3.37,23.38C1307.44,1121.22,1300.91,1120.65,1294.38,1120.1Z"/><path class="cls-4" d="M2672.93,1282.54c-.1,13.58-.84,27.11-2.27,40.5a367.66,367.66,0,0,1-10.66,57.23q-2,7.55-4.41,15a313.33,313.33,0,0,1-19.44,47.36H1833.07V300.41q18.43,3.68,36.1,8.54,21.55,5.93,41.87,13.48c83.77,31.12,150.37,82,188.26,140.64,20.4,31.56,32.48,65.36,34.42,99.52,4.14,72.7,12.76,142.54,31.85,203.13,8.85,28.06,19.94,54.15,33.88,77.61q5.68,9.58,12,18.57c41.68,59,105,97.9,201.5,104.37,67.07,4.5,123.58,34.55,166.59,79,.39.42.8.83,1.21,1.25C2639.33,1107.84,2672.55,1196,2672.93,1282.54Z"/><rect class="cls-5" x="87.46" y="1442.6" width="2690.98" height="7.14" rx="3.05"/><path class="cls-6" d="M1738.36,1089.22l-118.89-9.32s-2.85-18.12,3.36-31.87c6-13.19-2.24-22.74-10.38-38.45,7.55,7.78,33.57,6.64,50.76,4.32,2.11,3.42,23.31,34.85,30.34,39.9C1701.32,1059.38,1736,1066.72,1738.36,1089.22Z"/><path class="cls-6" d="M1598.73,1079.9h-118.9s-2.85-18.12,3.37-31.87c6-13.19,16.31-27.35,8.17-43.06,7.55,7.78,31.42,6.93,48.6,4.61,2.11,3.42-8,25.73,14,44.22C1561.23,1060,1596.33,1057.39,1598.73,1079.9Z"/><path class="cls-7" d="M1579,657.37s-56.62-19.31-78.35,38.21c-103.68,84-252,298.49-264.49,313.48-25.06,30-5.69,71.83,96.81,70.84,59.92-.59,96.6-28.1,113-52.84,4.38-6.59,20.46-36.64,40.17-76.89-.59,40.42-.84,69.72-.84,69.72-3.07,28.65,61.29,20.82,61.29,20.82C1655.77,675.6,1579,657.37,1579,657.37Z"/><path class="cls-8" d="M1525.92,524.4c-6-12.06-17.28-20.48-25.76-25.46,3.55-.76,8.21,1.22,8.21,1.22-4.55-4.15-19.21-6.7-19.21-6.7-52.19-74.27-132.69,21.93-147.35,47s-33,52.88-82.65,50.93c-97.59-3.84-97.45,92.23-83.83,144.57,7.21,27.67,51,92.36,51,92.36,11.26-20.64,109.71-115.18,177.15-114.54,22.64-9.15,46.56-36.08,48.43-38.21-17.72,22.19-30.58,32.68-39.15,37.7C1476.84,703.34,1541.9,556.35,1525.92,524.4Z"/><path class="cls-9" d="M1407.47,713.75c.19.25-8.81,33.53-35.84,18.93-17.75-9.58-46.22-50.46-35.25-64.32,5.22-6.58,28.19-19.09,52.12-61.46l2.87,2.48,48.29,41.77s-11,16.43-20.21,32.54C1411.69,697.22,1405.2,710.53,1407.47,713.75Z"/><path class="cls-8" d="M1389.6,598.91s.9-34.33,11.05-57.4c7.25-16.47,51.31-66,100.86-21.4a89.64,89.64,0,0,1,23.06,32.38c6.52,16,12.06,44.88-39,79.61l-15.76,12.74Z"/><path class="cls-10" d="M1324.69,650.22s17.74,3.38,25.24-6.67,23.83-31.32,27.65-19.12,39.83,47.68,48.16,48.61,14.17,3.27,9.46,7.59-2.75,21.6-7.46,23.17S1335.55,649.26,1324.69,650.22Z"/><path class="cls-11" d="M1436.23,674.47s-69.64-45-40.93-88,39-77.67,84.74-50.74,43.27,49,37.18,65.7S1455.09,685.08,1436.23,674.47Z"/><path class="cls-10" d="M1439.66,709.3s-117.94-86.91-159.22-54.17c-60.88,48.28-48.7,211.28-62.84,232.49s-93.82,173.31,35.77,188.78,159.44-66.23,165.33-127.5S1439.66,709.3,1439.66,709.3Z"/><path class="cls-12" d="M1284.48,708.21s-34,187.74,33.34,239S1419,702.4,1284.48,708.21Z"/><path class="cls-12" d="M1352.21,678.21s1.29-21.94,20.65-13.55,55.16,21,69,15.81-22.31,64.19-55.35,41S1352.21,678.21,1352.21,678.21Z"/><path class="cls-8" d="M1512.11,555.74s-52.6,37.7-86.53,25.74-41.29-28.12-41.29-28.12,34-2.76,59.26-30.46C1443.55,522.9,1513.94,522.24,1512.11,555.74Z"/><path class="cls-11" d="M1601.78,800.47s26.67,11.61,21.37,42.21S1607.24,863,1607.24,863Z"/><path class="cls-8" d="M1504.7,556.69s6.55,20.68,2.66,33.91S1490,627.36,1497,631c0,0,37.14-24.7,34.15-54.76C1528,544.36,1504.7,556.69,1504.7,556.69Z"/><path class="cls-13" d="M1549.62,657.37v0c-5.26-15.11-16.76-24.45-36.54-25.57-86.45-4.89-294.27,358.38-310,377.24-25.07,30-5.7,71.83,96.8,70.84,59.93-.59,83.56-29.28,100-54,7.52-11.32,62-97.89,103.9-187,35.12,83.68,108.7,194.1,108.7,194.1,10.93,26.66,60-8.92,60-8.92C1554.8,662.19,1549.62,657.37,1549.62,657.37Z"/><path class="cls-14" d="M1274.72,668.4s-31.07,48,65.55,92,108,54.77,126.83,58.7c29.35,6.13,142.1,5.27,142.1,5.27s3-17.89-7.42-23.92c-16.63-9.67-112.67-25.37-125.62-30.55S1325.22,616.41,1274.72,668.4Z"/><path class="cls-10" d="M1302.14,647.83s49.35,2,152.29,96.83c0,0,15.76,19.13,23.59,20.4s29.07,6.86,29.53,12.26-26.14,73.15-60,75.08-197-118.73-185.88-157.92S1302.14,647.83,1302.14,647.83Z"/><rect class="cls-15" x="1103.86" y="1091.87" width="435.2" height="350.74"/><rect class="cls-16" x="1362.91" y="1091.87" width="393.76" height="350.73"/><path class="cls-17" d="M1428.48,1159.33a7.22,7.22,0,1,1,7.22,7A7.1,7.1,0,0,1,1428.48,1159.33Z"/><path class="cls-17" d="M1693.31,1159.33a7.22,7.22,0,1,1,7.22,7A7.1,7.1,0,0,1,1693.31,1159.33Z"/><path class="cls-17" d="M1428.48,1380.27a7.22,7.22,0,1,1,7.22,7A7.1,7.1,0,0,1,1428.48,1380.27Z"/><path class="cls-17" d="M1693.31,1380.27a7.22,7.22,0,1,1,7.22,7A7.1,7.1,0,0,1,1693.31,1380.27Z"/><path class="cls-18" d="M1144.84,1159.33c0-3.85,2-7,4.47-7s4.47,3.13,4.47,7-2,7-4.47,7S1144.84,1163.18,1144.84,1159.33Z"/><path class="cls-18" d="M1308.88,1159.33c0-3.85,2-7,4.47-7s4.47,3.13,4.47,7-2,7-4.47,7S1308.88,1163.18,1308.88,1159.33Z"/><path class="cls-18" d="M1144.84,1380.27c0-3.86,2-7,4.47-7s4.47,3.12,4.47,7-2,7-4.47,7S1144.84,1384.12,1144.84,1380.27Z"/><path class="cls-18" d="M1308.88,1380.27c0-3.86,2-7,4.47-7s4.47,3.12,4.47,7-2,7-4.47,7S1308.88,1384.12,1308.88,1380.27Z"/><path class="cls-17" d="M1103.86,1092.44s59.14-54.63,98.15-38c51.36,21.93,172.79,15.82,203.43,10.16s270,11.24,351.22,27.24Z"/><path class="cls-19" d="M1756.66,1350.6v92H1362.91V1091.87H1429l1.29.57S1465.61,1330.34,1756.66,1350.6Z"/><path class="cls-20" d="M678.44,575.45V821.23H371.87V696.77q-5.13,3.79-10.21,7.73V831.44h327V573.65Q683.54,574.52,678.44,575.45Z"/><path class="cls-20" d="M667.72,577.42v233H381.89V689.53C470,627.29,566.51,596.5,667.72,577.42Z"/><path class="cls-20" d="M1736.9,290.17V404.58H1508.11V333.41c-2.55,1-5.09,2.07-7.62,3.13V412.2h244V290.36C1742,290.28,1739.44,290.21,1736.9,290.17Z"/><path class="cls-20" d="M1728.9,290.1V396.53H1515.58V330.46C1588.71,302.13,1661,289.9,1728.9,290.1Z"/><path class="cls-21" d="M2581.59,1407.45s46.75-248.87-13.49-253.71S2581.59,1407.45,2581.59,1407.45Z"/><path class="cls-21" d="M2573.33,1413.3s-88.09-160.81-138.31-154.88S2573.33,1413.3,2573.33,1413.3Z"/><path class="cls-3" d="M794.07,948.66c-12.53-50.25-90.6-34.55-90.6-34.55s-53,87.95-68.43,90,31.8-84.8,31.8-84.8c-29.88-3.14-106,36.64-106,36.64s4.82,102.6-10.6,100.51,0-91.09,0-91.09c-28.92,9.43-55.91,46.07-55.91,46.07-33.73,59.68,38.56,103.65,38.56,103.65s1,35.59-19.28,76.42c0,0-25.45,42-17.29,96.27H473.92c4.29-39.07-13.68-68.71-13.68-68.71-15.35-31-14.62-58-14.62-58s54.84-33.36,29.25-78.63c0,0-20.48-27.79-42.41-34.94,0,0,11.7,67.51,0,69.09s-8-76.24-8-76.24-57.76-30.18-80.43-27.8c0,0,35.83,65.92,24.13,64.33s-51.91-68.3-51.91-68.3-59.23-11.91-68.74,26.21,5.85,57.18,14.63,59.57,65.07,1.58,63.61,9.53-39.48,20.65-60.69,13.5c0,0,23.4,62.74,54.11,59.57s40.22-23.83,59.23-25.42,32.9,4,23.4,9.53-41.68,1.82-57,16-27.78,22.92.73,29.27,79.71,2.39,89.94-21.44l1.28-3a13.12,13.12,0,0,1-1.28,3c5.26,3.33,13.15,19.23,18.63,31.42.78,2.08,2,4.95,3.85,8.85h0c.74,1.77,1.33,3.21,1.74,4.21,6.32,17.17,6.57,42.16,5.88,58.38H384.17v4.72h4.73c1.59,57.35,32.08,106.8,76.19,131.76H410.28c-9.3,0-16.84,8.2-16.84,18.3h273.3c0-10.1-7.54-18.3-16.85-18.3H595.77c44.11-25,74.6-74.41,76.19-131.76h3.29v-4.72H524.33c3.43-8.17,7.61-16.19,12.5-22.11l2.52-2.79c2.48-2.49,4.2-4.35,5.37-5.74,7.59-7.93,18.11-18,23.17-19a11.16,11.16,0,0,1-.22-2.76c.07.89.14,1.8.22,2.76,1.73,22.08,41.16,41.37,65.42,45.33s16.77-6.87,8.41-22.93-34.82-23.25-40.85-30.64,6.44-7.42,21.06-.16,16.62,26.58,40.07,38.78,58.73-30.07,58.73-30.07c-18.69-1-45.38-23.07-44.41-29.82s45.3,11.64,52.88,12.52,24.82-9.36,27.49-42.52-47.38-42.41-47.38-42.41-11.53,9.32-24.57,18.7c-2.57-3.62-6.75-7.63-11.63-12.1,4.3-4.14,8.17-7.7,10.58-9.89a88.14,88.14,0,0,0,15.93,3.13c40.48,4.18,71.32-78.53,71.32-78.53-28,9.43-78.07-7.32-80-17.79s72.29-9.43,83.86-12.57S806.6,998.92,794.07,948.66ZM588.46,1185c-2.3-1.29-2.15-5.62-.67-11.31,3.19.78,6.48,1.46,9.82,2C594.24,1182.34,591,1186.44,588.46,1185Zm-49.37,72.3s-13.28,10.69-22.54,30.49H507c-1.18-20.8-1.64-57.9,7.46-82.65.54-1.32,1.33-3.22,2.31-5.55,2.41-5.14,4-8.92,5.07-11.66,7.22-16.08,17.61-37,24.55-41.42a17.61,17.61,0,0,1-1.69-3.93l1.69,3.93A33.19,33.19,0,0,0,554,1157.3c-13.17,26.65,12.17,58.77,12.17,58.77S559.52,1237.67,539.09,1257.33Zm106.46-131.81c-20.72-6.21-45.72-5-54.85-10.39-12.53-7.33,5.78-14.66,30.84-12.57,16.86,1.41,28.06,14.18,45.9,23.67A205.12,205.12,0,0,0,645.55,1125.52Z"/><path class="cls-2" d="M2304.51,1245c-1.75,3-1.16,6.6,1.32,8s5.91.2,7.66-2.79,2.82-15.11,2.82-15.11S2306.27,1242,2304.51,1245Z"/><path class="cls-2" d="M2218.62,1190.49c-1.76,3-1.17,6.59,1.31,8s5.91.2,7.67-2.79,2.82-15.11,2.82-15.11S2220.37,1187.49,2218.62,1190.49Z"/><path class="cls-2" d="M2205.7,1288.94c-1.75,3-1.16,6.6,1.32,8s5.91.21,7.66-2.79,2.82-15.11,2.82-15.11S2207.46,1286,2205.7,1288.94Z"/><path class="cls-2" d="M2447.09,1111c-2,3.43-1.34,7.57,1.5,9.23s6.79.24,8.8-3.2,3.23-17.33,3.23-17.33S2449.1,1107.55,2447.09,1111Z"/><path class="cls-2" d="M2439.74,1195.08c-2,3.43-1.34,7.57,1.51,9.23s6.78.24,8.79-3.2,3.23-17.33,3.23-17.33S2441.75,1191.64,2439.74,1195.08Z"/><path class="cls-2" d="M2330.26,1123.49c-2,3.43-1.34,7.56,1.51,9.23s6.78.23,8.79-3.2,3.23-17.33,3.23-17.33S2332.27,1120.05,2330.26,1123.49Z"/><path class="cls-2" d="M2217,1072.65c-2.28,3.89-1.51,8.57,1.71,10.46s7.68.27,10-3.62,3.66-19.64,3.66-19.64S2219.28,1068.76,2217,1072.65Z"/><path class="cls-2" d="M2043.81,1059.44c-2.28,3.89-1.52,8.57,1.71,10.46s7.68.27,10-3.62,3.66-19.64,3.66-19.64S2046.08,1055.55,2043.81,1059.44Z"/><path class="cls-2" d="M2161,958.15c-2.28,3.89-1.51,8.58,1.71,10.46s7.68.27,10-3.62,3.67-19.63,3.67-19.63S2163.3,954.26,2161,958.15Z"/><path class="cls-2" d="M2065,935.79c-1.79,3.05-1.19,6.72,1.34,8.21s6,.21,7.81-2.85,2.88-15.41,2.88-15.41S2066.74,932.73,2065,935.79Z"/><path class="cls-2" d="M2073.44,862.47c-1.79,3-1.19,6.73,1.34,8.21s6,.21,7.82-2.84,2.87-15.41,2.87-15.41S2075.23,859.42,2073.44,862.47Z"/><path class="cls-2" d="M1991.35,967.42c-1.79,3.05-1.18,6.73,1.34,8.21s6,.21,7.82-2.84,2.88-15.41,2.88-15.41S1993.14,964.37,1991.35,967.42Z"/><path class="cls-2" d="M2074.2,714.6c2.65-4.51,4.25-22.77,4.25-22.77s-15.14,10.33-17.79,14.84-1.75,10,2,12.14S2071.56,719.11,2074.2,714.6Z"/><path class="cls-2" d="M1990.64,600.27c-2.64,4.51-1.75,10,2,12.14s8.91.31,11.55-4.21,4.25-22.77,4.25-22.77S1993.29,595.76,1990.64,600.27Z"/><path class="cls-2" d="M1961.52,817.77c-2.64,4.51-1.75,10,2,12.14s8.92.3,11.56-4.21,4.25-22.77,4.25-22.77S1964.17,813.26,1961.52,817.77Z"/><path class="cls-22" d="M771.14,1191.17s-41.56-48.49-2.56-79.29c0,0,28.48-17.25,51.71-15.85,0,0-32.91,55.2-22.26,60.68s32.24-64.14,32.24-64.14,64.83-6.29,85.68,3.74c0,0-55.42,45.35-43.75,48s71.54-41.81,71.54-41.81,60.33,10.27,57.11,47.07-24,48.18-33.14,47.2-62.59-21.39-63.75-13.9,31,32,53.54,33.1c0,0-42.54,46.91-70.81,33.37s-30.69-35-48.31-43.05-32.67-8-25.39.18,39.17,16.19,49.25,34,19.12,29.85-10.13,25.45-76.8-25.81-78.88-50.31Z"/><path class="cls-23" d="M971.21,1150.62s-163.88-6.32-200.07,40.55c0,0-8,24-32.63,45.8l-3.84,10.46s28.4-29.94,38.56-31.75C773.23,1215.68,757.34,1157.61,971.21,1150.62Z"/><path class="cls-23" d="M738.51,1237s-35.18,26-37.62,72.49l6.38.57s11.24-48.06,31.54-66.85S738.51,1237,738.51,1237Z"/><path class="cls-24" d="M625.82,1130.19s66.12-37,35.26-87.28c0,0-24.68-30.85-51.13-38.79,0,0,14.11,74.94,0,76.7s-9.7-84.63-9.7-84.63-69.64-33.5-97-30.85c0,0,43.2,73.17,29.1,71.4s-62.59-75.81-62.59-75.81S398.38,947.71,386.92,990s7.05,63.47,17.63,66.12,78.46,1.76,76.7,10.57-47.61,22.93-73.17,15c0,0,28.21,69.64,65.23,66.12s48.49-26.45,71.41-28.21,39.67,4.41,28.21,10.58-50.25,2-68.76,17.76-33.5,25.43.88,32.49,96.09,2.64,108.43-23.81Z"/><path class="cls-22" d="M419.54,1003.24s185.12,60,206.28,127c0,0-.88,30,17.63,64.35v13.22s-19.39-45-30-51.13C613.48,1156.63,654.91,1098.45,419.54,1003.24Z"/><path class="cls-22" d="M643.45,1194.54s28.55,43.35,12.27,96.13l-7.34-2s7.13-58.13-7.81-87.37S643.45,1194.54,643.45,1194.54Z"/><path class="cls-21" d="M731,1079.12s-87.16-48.8-46.49-115c0,0,32.54-40.67,67.4-51.13,0,0-18.59,98.78,0,101.1s12.79-111.56,12.79-111.56,91.8-44.15,127.82-40.67c0,0-56.94,96.45-38.35,94.13S936.69,856,936.69,856s94.13-17.43,109.23,38.35-9.29,83.67-23.24,87.15-103.42,2.33-101.1,14,62.75,30.21,96.45,19.75c0,0-37.18,91.8-86,87.16s-63.91-34.87-94.13-37.19-52.29,5.81-37.18,13.94,66.24,2.67,90.64,23.42,44.16,33.52-1.16,42.82-126.67,3.49-142.93-31.37Z"/><path class="cls-21" d="M1002.93,911.79s-244,79-271.92,167.33c0,0,1.16,39.51-23.24,84.84v17.43s25.56-59.27,39.51-67.4C747.28,1114,692.66,1037.29,1002.93,911.79Z"/><path class="cls-21" d="M707.77,1164s-37.64,57.14-16.18,126.71l9.68-2.6s-9.4-76.62,10.29-115.16S707.77,1164,707.77,1164Z"/><path class="cls-24" d="M728.07,1441.52A170.71,170.71,0,0,0,898.79,1270.8H557.35A170.71,170.71,0,0,0,728.07,1441.52Z"/><path class="cls-25" d="M770.08,1440.22A170.81,170.81,0,0,1,578.16,1270.8h42.41A170.75,170.75,0,0,0,770.08,1440.22Z"/><rect class="cls-24" x="551.74" y="1270.8" width="350.94" height="5.24"/><path class="cls-24" d="M892.41,1442.6H562.91a20.31,20.31,0,0,1,20.31-20.31H872.1a20.31,20.31,0,0,1,20.31,20.31Z"/><path class="cls-21" d="M2099.3,463.07c-21.61,7.26-39.64,16.22-50.25,27.2C2001.67,539.36,1911,533,1911,533V322.43C1994.81,353.55,2061.41,404.46,2099.3,463.07Z"/><path class="cls-20" d="M1911,1380.27V322.43q-20.3-7.55-41.87-13.48-17.65-4.86-36.1-8.54V1442.6h803.08a313.33,313.33,0,0,0,19.44-47.36q2.38-7.41,4.41-15Z"/><path class="cls-7" d="M1847.06,1151.92s-75.76-10.74-80.17-23c0,0,5.27-11-3.05-13.94-2.23-.77-6-2.2-7.65-.08l.11,22.55s8.16,8,12.74,14.38c2.53,3.54,51.49,24,51.49,24Z"/><path class="cls-7" d="M2003.18,1317.34c7.18-10.37-.29-83.7-52-61.44-11,3.32-24.2,11.27-40,25.77,0,0-22.72,53.54,66.88,88.95,0,0,8.88,3.84,10.14,12s2.68,45-.36,46.12-7.54-3.11-10.82,1.54-2.13,12.32-2.13,12.32h32.56s15.56-82.68,14.69-89.26S1994.66,1329.66,2003.18,1317.34Z"/><path class="cls-6" d="M1875.44,1017.65s17.23,36.13,7.71,47l-26.77-21.5S1856.25,1032.47,1875.44,1017.65Z"/><path class="cls-26" d="M2060.06,1212.25c-7-12.75-17.57-34.06-3.67-42.76,11.85-7.41,7.31-22.87.46-26.57-14.43-7.78-29.09,2.07-36,11.69-13.07,18.3,4.3,46.91,4.3,46.91,16.41,35.34-17.38,53.74-33.68,60.31a189.93,189.93,0,0,0-27.44-32.33c-5.62-5.33-10.77-9.67-15.09-13.36-45.87-39.21-34.77-53.55-45.66-71.18-2.13-3.49-10.57-13-12.82-16s-3-13.74-3.28-23.19c5.15-4.39,5.72-9.31,5.72-9.31a9.34,9.34,0,0,1,0,4c5.34-4.34,4.13-14.33,4.13-14.33,1.18,1.45,1.65,4.54,1.65,4.54,2.69-15.54-6.88-28.22-7-28.32,1.68-14.6-10.43-40-10.43-40s.87,18.83,2.7,28.43a38.93,38.93,0,0,0-10.69-7.84c-9.57-4.75-22.64-9.22-36.48,4.36-3.14,3.08-12.45,5.58-16.84,5-2.42-.31-7.92,11.81-8.14,13.46-2.4,18.34,3.42,27.4,13.89,36.79,1.47,4.13,2.59,9.68,0,13.42,0,0,2.21-.9,2.48-1.62-.18,1-1.38,6.74-4.53,9.33a9.49,9.49,0,0,0,2.13-.5c-2.75,3.49-13.2,17.92-13,35.71-22,.18-42.88-1.17-44.91-6.8,0,0,4.74-9.27-3.05-13.94a17.26,17.26,0,0,0-8.54-2l-.38,25.32s9.54,7.08,14.12,13.5c1.58,2.2,32.33,16.08,55.32,26.25,13.39,58,56.4,91.59,70.63,101.32,2,17.73,12.58,40.8,42.77,67.67,0,0,7,6.66,5.4,14.75s-13,43.19-16.19,43.19-14-4.68-18.71-1.44,1.79,15.83,1.79,15.83H1944s40.67-66.93,42.11-73.41-17.64-31.67-5.4-40.31c5.24-3.7,12.53-24,11-42.66C2007.77,1280.62,2082.07,1252.15,2060.06,1212.25Z"/><path class="cls-26" d="M1862.24,1047.85l26.79,21.5a12.65,12.65,0,0,0,2.7-7c1.69-14.6-10.43-40-10.43-40C1862.11,1037.19,1862.24,1047.85,1862.24,1047.85Z"/><path class="cls-7" d="M1819.21,1052.43a3.22,3.22,0,0,1,3.08-.23s-.41,6.09-6.38,6.47C1815.91,1058.67,1817.63,1053.38,1819.21,1052.43Z"/><path class="cls-7" d="M1830.16,1066.11c.23.08,22.56,8.4,38.57,26.78h0c-16.28-18.71-38.1-27.43-38.33-27.51Z"/><path class="cls-7" d="M1828.08,1067.69c.24.15,23.65,16.08,36.92,41.8h0c-13.5-26.19-36.19-42.42-36.44-42.58Z"/><path class="cls-7" d="M1825.67,1069.59c.17.17,16.64,17.41,23,40.93h0c-6.49-23.94-22.31-41.31-22.48-41.48Z"/></svg>